# Blender 3.5.1
# www.blender.org
mtllib Shelf_v3_OBJ.mtl
o Frame
v 0.910318 0.000000 2.479153
v 0.997678 0.000000 2.479153
v 0.910318 0.000000 2.391794
v 0.997678 0.000000 2.391794
v 0.910318 7.614695 2.479153
v 0.997678 7.614695 2.479153
v 0.910318 7.614695 2.391794
v 0.997678 7.614695 2.391794
v -0.910318 0.000000 2.479153
v -0.997678 0.000000 2.479153
v -0.910318 0.000000 2.391794
v -0.997678 0.000000 2.391794
v -0.910318 7.614695 2.479153
v -0.997678 7.614695 2.479153
v -0.910318 7.614695 2.391794
v -0.997678 7.614695 2.391794
v 0.910318 0.000000 -2.485091
v 0.997678 0.000000 -2.485091
v 0.910318 0.000000 -2.397732
v 0.997678 0.000000 -2.397732
v 0.910318 7.614695 -2.485091
v 0.997678 7.614695 -2.485091
v 0.910318 7.614695 -2.397732
v 0.997678 7.614695 -2.397732
v -0.910318 0.000000 -2.485091
v -0.997678 0.000000 -2.485091
v -0.910318 0.000000 -2.397732
v -0.997678 0.000000 -2.397732
v -0.910318 7.614695 -2.485091
v -0.997678 7.614695 -2.485091
v -0.910318 7.614695 -2.397732
v -0.997678 7.614695 -2.397732
v 0.910318 0.748353 0.448139
v 0.997678 0.748353 0.448139
v 0.910318 0.748353 0.360780
v 0.997678 0.748353 0.360780
v 0.910318 7.614695 0.448139
v 0.997678 7.614695 0.448139
v 0.910318 7.614695 0.360780
v 0.997678 7.614695 0.360780
v -0.910318 0.748353 0.448139
v -0.997678 0.748353 0.448139
v -0.910318 0.748353 0.360780
v -0.997678 0.748353 0.360780
v -0.910318 7.614695 0.448139
v -0.997678 7.614695 0.448139
v -0.910318 7.614695 0.360780
v -0.997678 7.614695 0.360780
v -0.910318 7.527336 2.479153
v -0.910318 7.527336 2.391794
v -0.910318 7.614695 2.479153
v -0.910318 7.614695 2.391794
v 0.910318 7.527336 2.479153
v 0.910318 7.527336 2.391794
v 0.910318 7.614695 2.479153
v 0.910318 7.614695 2.391794
v -0.910318 7.527336 -2.485091
v -0.910318 7.527336 -2.397732
v -0.910318 7.614695 -2.485091
v -0.910318 7.614695 -2.397732
v 0.910318 7.527336 -2.485091
v 0.910318 7.527336 -2.397732
v 0.910318 7.614695 -2.485091
v 0.910318 7.614695 -2.397732
v -0.910318 6.148173 0.448139
v -0.910318 6.148173 0.360780
v -0.910318 6.235532 0.448139
v -0.910318 6.235532 0.360780
v 0.910318 6.148173 0.448139
v 0.910318 6.148173 0.360780
v 0.910318 6.235532 0.448139
v 0.910318 6.235532 0.360780
v -0.910318 6.148173 -2.485091
v -0.910318 6.148173 -2.397732
v -0.910318 6.235532 -2.485091
v -0.910318 6.235532 -2.397732
v 0.910318 6.148173 -2.485091
v 0.910318 6.148173 -2.397732
v 0.910318 6.235532 -2.485091
v 0.910318 6.235532 -2.397732
v -0.910318 4.832067 2.479153
v -0.910318 4.832067 2.391794
v -0.910318 4.919426 2.479153
v -0.910318 4.919426 2.391794
v 0.910318 4.832067 2.479153
v 0.910318 4.832067 2.391794
v 0.910318 4.919425 2.479153
v 0.910318 4.919425 2.391794
v -0.910318 2.435715 2.479153
v -0.910318 2.435715 2.391794
v -0.910318 2.523073 2.479153
v -0.910318 2.523073 2.391794
v 0.910318 2.435714 2.479153
v 0.910318 2.435714 2.391794
v 0.910318 2.523073 2.479153
v 0.910318 2.523073 2.391794
v -0.910318 0.660994 2.479153
v -0.910318 0.660994 2.391794
v -0.910318 0.748353 2.479153
v -0.910318 0.748353 2.391794
v 0.910318 0.660994 2.479153
v 0.910318 0.660994 2.391794
v 0.910318 0.748353 2.479153
v 0.910318 0.748353 2.391794
v -0.910318 0.660994 -2.485091
v -0.910318 0.660994 -2.397732
v -0.910318 0.748353 -2.485091
v -0.910318 0.748353 -2.397732
v 0.910318 0.660994 -2.485091
v 0.910318 0.660994 -2.397732
v 0.910318 0.748353 -2.485091
v 0.910318 0.748353 -2.397732
v 0.910318 0.660994 -2.397732
v 0.997678 0.660994 -2.397732
v 0.910318 0.748353 -2.397732
v 0.997678 0.748353 -2.397732
v 0.910318 0.660994 2.391794
v 0.997678 0.660994 2.391794
v 0.910318 0.748353 2.391794
v 0.997678 0.748353 2.391794
v -0.910318 0.660994 -2.397732
v -0.997678 0.660994 -2.397732
v -0.910318 0.748353 -2.397732
v -0.997678 0.748353 -2.397732
v -0.910318 0.660994 2.391794
v -0.997678 0.660994 2.391794
v -0.910318 0.748353 2.391794
v -0.997678 0.748353 2.391794
v 0.910318 0.660994 2.391794
v 0.997678 0.660994 2.391794
v 0.910318 0.748353 2.391794
v 0.997678 0.748353 2.391794
v 0.910318 0.660994 -2.397732
v 0.997678 0.660994 -2.397732
v 0.910318 0.748353 -2.397732
v 0.997678 0.748353 -2.397732
v -0.910318 0.660994 2.391794
v -0.997678 0.660994 2.391794
v -0.910318 0.748353 2.391794
v -0.997678 0.748353 2.391794
v -0.910318 0.660994 -2.397732
v -0.997678 0.660994 -2.397732
v -0.910318 0.748353 -2.397732
v -0.997678 0.748353 -2.397732
v -0.910318 2.435715 0.448139
v -0.910318 2.435715 0.360780
v -0.910318 2.523073 0.448139
v -0.910318 2.523073 0.360780
v 0.910318 2.435714 0.448139
v 0.910318 2.435714 0.360780
v 0.910318 2.523073 0.448139
v 0.910318 2.523073 0.360780
v 0.910318 2.435714 0.448139
v 0.997678 2.435714 0.448139
v 0.910318 2.523073 0.448139
v 0.997678 2.523073 0.448139
v 0.910318 2.435714 2.391794
v 0.997678 2.435714 2.391794
v 0.910318 2.523072 2.391794
v 0.997678 2.523072 2.391794
v -0.910318 2.435714 0.448139
v -0.997678 2.435714 0.448139
v -0.910318 2.523073 0.448139
v -0.997678 2.523073 0.448139
v -0.910318 2.435714 2.391794
v -0.997678 2.435714 2.391794
v -0.910318 2.523072 2.391794
v -0.997678 2.523072 2.391794
v -0.910318 3.518240 0.448139
v -0.910318 3.518240 0.360780
v -0.910318 3.605599 0.448139
v -0.910318 3.605599 0.360780
v 0.910318 3.518240 0.448139
v 0.910318 3.518240 0.360780
v 0.910318 3.605599 0.448139
v 0.910318 3.605599 0.360780
v -0.910318 3.518240 -2.485091
v -0.910318 3.518240 -2.397732
v -0.910318 3.605599 -2.485091
v -0.910318 3.605599 -2.397732
v 0.910318 3.518240 -2.485091
v 0.910318 3.518240 -2.397732
v 0.910318 3.605599 -2.485091
v 0.910318 3.605599 -2.397732
v 0.910318 3.518240 -2.397732
v 0.997678 3.518240 -2.397732
v 0.910318 3.605599 -2.397732
v 0.997678 3.605599 -2.397732
v 0.910318 3.518240 0.360780
v 0.997678 3.518240 0.360780
v 0.910318 3.605599 0.360780
v 0.997678 3.605599 0.360780
v -0.910318 3.518240 -2.397732
v -0.997678 3.518240 -2.397732
v -0.910318 3.605599 -2.397732
v -0.997678 3.605599 -2.397732
v -0.910318 3.518240 0.360780
v -0.997678 3.518240 0.360780
v -0.910318 3.605599 0.360780
v -0.997678 3.605599 0.360780
v -0.910318 4.832067 0.448139
v -0.910318 4.832067 0.360780
v -0.910318 4.919426 0.448139
v -0.910318 4.919426 0.360780
v 0.910318 4.832067 0.448139
v 0.910318 4.832067 0.360780
v 0.910318 4.919425 0.448139
v 0.910318 4.919425 0.360780
v 0.910318 4.832067 0.448139
v 0.997678 4.832067 0.448139
v 0.910318 4.919426 0.448139
v 0.997678 4.919426 0.448139
v 0.910318 4.832067 2.391794
v 0.997678 4.832067 2.391794
v 0.910318 4.919425 2.391794
v 0.997678 4.919425 2.391794
v -0.910318 4.832067 0.448139
v -0.997678 4.832067 0.448139
v -0.910318 4.919426 0.448139
v -0.997678 4.919426 0.448139
v -0.910318 4.832067 2.391794
v -0.997678 4.832067 2.391794
v -0.910318 4.919425 2.391794
v -0.997678 4.919425 2.391794
v 0.910318 6.148173 -2.397732
v 0.997678 6.148173 -2.397732
v 0.910318 6.235532 -2.397732
v 0.997678 6.235532 -2.397732
v 0.910318 6.148173 0.360780
v 0.997678 6.148173 0.360780
v 0.910318 6.235532 0.360780
v 0.997678 6.235532 0.360780
v -0.910318 6.148173 -2.397732
v -0.997678 6.148173 -2.397732
v -0.910318 6.235532 -2.397732
v -0.997678 6.235532 -2.397732
v -0.910318 6.148173 0.360780
v -0.997678 6.148173 0.360780
v -0.910318 6.235532 0.360780
v -0.997678 6.235532 0.360780
v 0.910318 7.527336 -2.397732
v 0.997678 7.527336 -2.397732
v 0.910318 7.614695 -2.397732
v 0.997678 7.614695 -2.397732
v 0.910318 7.527336 2.391794
v 0.997678 7.527336 2.391794
v 0.910318 7.614695 2.391794
v 0.997678 7.614695 2.391794
v -0.910318 7.527336 -2.397732
v -0.997678 7.527336 -2.397732
v -0.910318 7.614695 -2.397732
v -0.997678 7.614695 -2.397732
v -0.910318 7.527336 2.391794
v -0.997678 7.527336 2.391794
v -0.910318 7.614695 2.391794
v -0.997678 7.614695 2.391794
v 0.910318 7.527336 2.391794
v 0.997678 7.527336 2.391794
v 0.910318 7.614695 2.391794
v 0.997678 7.614695 2.391794
v 0.910318 7.527336 -2.397732
v 0.997678 7.527336 -2.397732
v 0.910318 7.614695 -2.397732
v 0.997678 7.614695 -2.397732
v -0.910318 7.527336 2.391794
v -0.997678 7.527336 2.391794
v -0.910318 7.614695 2.391794
v -0.997678 7.614695 2.391794
v -0.910318 7.527336 -2.397732
v -0.997678 7.527336 -2.397732
v -0.910318 7.614695 -2.397732
v -0.997678 7.614695 -2.397732
vn -0.0000 -1.0000 -0.0000
vn -0.0000 1.0000 -0.0000
vn -0.0000 -0.0000 -1.0000
vn -0.0000 -0.0000 1.0000
vn 1.0000 -0.0000 -0.0000
vn -1.0000 -0.0000 -0.0000
vt 0.453053 0.881610
vt 0.204605 0.002742
vt 0.090426 0.002742
vt 0.453053 0.891655
vt 0.214650 0.002742
vt 0.033798 0.002742
vt 0.463098 0.881610
vt 0.074898 0.002742
vt 0.080382 0.002742
vt 0.463098 0.891655
vt 0.064854 0.002742
vt 0.043842 0.002742
vt 0.421997 0.891655
vt 0.204605 0.878308
vt 0.090426 0.878308
vt 0.421997 0.881610
vt 0.214650 0.878308
vt 0.033797 0.878308
vt 0.432042 0.891655
vt 0.074898 0.878308
vt 0.080381 0.878308
vt 0.432042 0.881610
vt 0.064853 0.878308
vt 0.043842 0.878308
vt 0.406469 0.891655
vt 0.152538 0.002742
vt 0.018270 0.002742
vt 0.406469 0.881610
vt 0.142493 0.002742
vt 0.168066 0.002742
vt 0.416514 0.891655
vt 0.126965 0.002742
vt 0.028314 0.002742
vt 0.416514 0.881610
vt 0.137010 0.002742
vt 0.158021 0.002742
vt 0.872307 0.877577
vt 0.152538 0.878308
vt 0.018270 0.878308
vt 0.872307 0.887622
vt 0.142493 0.878308
vt 0.168066 0.878308
vt 0.882352 0.877577
vt 0.126965 0.878308
vt 0.028314 0.878308
vt 0.882352 0.887622
vt 0.137010 0.878308
vt 0.158021 0.878308
vt 0.369930 0.875382
vt 0.245706 0.002742
vt 0.002742 0.002742
vt 0.369930 0.885427
vt 0.235661 0.002742
vt 0.199122 0.002742
vt 0.359885 0.875382
vt 0.220133 0.002742
vt 0.012786 0.002742
vt 0.359885 0.885427
vt 0.230178 0.002742
vt 0.189077 0.002742
vt 0.354402 0.885427
vt 0.245706 0.878308
vt 0.002742 0.878308
vt 0.354402 0.875382
vt 0.235661 0.878308
vt 0.199122 0.878308
vt 0.344357 0.885427
vt 0.220133 0.878308
vt 0.012786 0.878308
vt 0.344357 0.875382
vt 0.230178 0.878308
vt 0.189077 0.878308
vt 0.338874 0.885427
vt 0.095909 0.002742
vt 0.183594 0.002742
vt 0.338874 0.875382
vt 0.105954 0.002742
vt 0.049326 0.002742
vt 0.328829 0.885427
vt 0.121482 0.002742
vt 0.173549 0.002742
vt 0.328829 0.875382
vt 0.111437 0.002742
vt 0.059370 0.002742
vt 0.338874 0.813271
vt 0.095909 0.878308
vt 0.183594 0.878308
vt 0.338874 0.823316
vt 0.105954 0.878308
vt 0.049325 0.878308
vt 0.328829 0.813271
vt 0.121482 0.878308
vt 0.173549 0.878308
vt 0.328829 0.823316
vt 0.111437 0.878308
vt 0.059370 0.878308
vt 0.282245 0.828799
vt 0.297773 0.002742
vt 0.323346 0.002742
vt 0.282245 0.838844
vt 0.307818 0.002742
vt 0.344357 0.002742
vt 0.292290 0.828799
vt 0.276762 0.002742
vt 0.313301 0.002742
vt 0.292290 0.838844
vt 0.266717 0.002742
vt 0.354402 0.002742
vt 0.251189 0.885427
vt 0.297773 0.792260
vt 0.323346 0.792260
vt 0.251189 0.875382
vt 0.307818 0.792260
vt 0.344357 0.792260
vt 0.261234 0.885427
vt 0.276762 0.792260
vt 0.313301 0.792260
vt 0.261234 0.875382
vt 0.266717 0.792260
vt 0.354402 0.792260
vt 0.359885 0.838843
vt 0.292290 0.002742
vt 0.328829 0.002742
vt 0.359885 0.828799
vt 0.282245 0.002742
vt 0.369930 0.002742
vt 0.369930 0.838843
vt 0.251189 0.002742
vt 0.338874 0.002742
vt 0.369930 0.828799
vt 0.261234 0.002742
vt 0.359885 0.002742
vt 0.328829 0.844326
vt 0.292290 0.792260
vt 0.328829 0.792260
vt 0.328829 0.854371
vt 0.282245 0.792260
vt 0.369930 0.792260
vt 0.338874 0.844326
vt 0.251189 0.792260
vt 0.338874 0.792260
vt 0.338874 0.854371
vt 0.261234 0.792260
vt 0.359885 0.792260
vt 0.509681 0.881610
vt 0.944464 0.641739
vt 0.887835 0.212085
vt 0.499636 0.881610
vt 0.934419 0.641739
vt 0.903363 0.647222
vt 0.509681 0.891655
vt 0.934419 0.212085
vt 0.897880 0.212085
vt 0.499636 0.891655
vt 0.944464 0.212085
vt 0.913408 0.647222
vt 0.276762 0.797743
vt 0.944464 0.432395
vt 0.887835 0.002742
vt 0.276762 0.807788
vt 0.934419 0.432395
vt 0.903363 0.856566
vt 0.266717 0.797743
vt 0.934419 0.002742
vt 0.897880 0.002742
vt 0.266717 0.807788
vt 0.944464 0.002742
vt 0.913408 0.856566
vt 0.608332 0.881610
vt 0.654916 0.997258
vt 0.918891 0.432395
vt 0.618377 0.881610
vt 0.664961 0.997258
vt 0.918891 0.856566
vt 0.608332 0.891655
vt 0.887835 0.217568
vt 0.928936 0.432395
vt 0.618377 0.891655
vt 0.897880 0.217568
vt 0.928936 0.856566
vt 0.307818 0.807788
vt 0.654916 0.787915
vt 0.918891 0.641739
vt 0.307818 0.797743
vt 0.664961 0.787915
vt 0.918891 0.647222
vt 0.297773 0.807788
vt 0.887835 0.426912
vt 0.928936 0.641739
vt 0.297773 0.797743
vt 0.897880 0.426912
vt 0.928936 0.647222
vt 0.602849 0.881610
vt 0.975520 0.856566
vt 0.872307 0.856566
vt 0.592804 0.881610
vt 0.965475 0.856566
vt 0.882352 0.641739
vt 0.602849 0.891655
vt 0.981003 0.856566
vt 0.882352 0.856566
vt 0.592804 0.891655
vt 0.991047 0.856566
vt 0.872307 0.641739
vt 0.276762 0.813271
vt 0.975520 0.647222
vt 0.872307 0.647222
vt 0.276762 0.823316
vt 0.965475 0.647222
vt 0.882352 0.432395
vt 0.266717 0.813271
vt 0.981003 0.647222
vt 0.882352 0.647222
vt 0.266717 0.823316
vt 0.991047 0.647222
vt 0.872307 0.432395
vt 0.577276 0.881610
vt 0.623860 0.997258
vt 0.887835 0.647222
vt 0.587321 0.881610
vt 0.633905 0.997258
vt 0.918891 0.426912
vt 0.577276 0.891655
vt 0.903363 0.002742
vt 0.897880 0.647222
vt 0.587321 0.891655
vt 0.913408 0.002742
vt 0.928936 0.426912
vt 0.338874 0.807788
vt 0.623860 0.787915
vt 0.887835 0.856566
vt 0.338874 0.797743
vt 0.633905 0.787915
vt 0.918891 0.217568
vt 0.328829 0.807788
vt 0.903363 0.212085
vt 0.897880 0.856566
vt 0.328829 0.797743
vt 0.913408 0.212085
vt 0.928936 0.217568
vt 0.571793 0.881610
vt 0.975520 0.641739
vt 0.903363 0.641739
vt 0.561748 0.881610
vt 0.965475 0.641739
vt 0.913408 0.426912
vt 0.571793 0.891655
vt 0.965475 0.426912
vt 0.913408 0.641739
vt 0.561748 0.891655
vt 0.975520 0.426912
vt 0.903363 0.426912
vt 0.261234 0.813271
vt 0.975520 0.432395
vt 0.903363 0.432395
vt 0.261234 0.823316
vt 0.965475 0.432395
vt 0.913408 0.217568
vt 0.251189 0.813271
vt 0.965475 0.217568
vt 0.913408 0.432395
vt 0.251189 0.823316
vt 0.975520 0.217568
vt 0.903363 0.217568
vt 0.012786 0.893836
vt 0.680489 0.997258
vt 0.810195 0.997258
vt 0.012786 0.883791
vt 0.670444 0.997258
vt 0.856779 0.787915
vt 0.002742 0.893836
vt 0.639388 0.997258
vt 0.820240 0.997258
vt 0.002742 0.883791
vt 0.649433 0.997258
vt 0.866824 0.787915
vt 0.292290 0.813271
vt 0.680489 0.787915
vt 0.810195 0.787915
vt 0.292290 0.823316
vt 0.670444 0.787915
vt 0.856779 0.997258
vt 0.282245 0.813271
vt 0.639388 0.787915
vt 0.820240 0.787915
vt 0.282245 0.823316
vt 0.649433 0.787915
vt 0.866824 0.997258
vt 0.540737 0.881610
vt 0.991047 0.426912
vt 0.732556 0.997258
vt 0.530692 0.881610
vt 0.981003 0.426912
vt 0.717028 0.787915
vt 0.540737 0.891655
vt 0.981003 0.641739
vt 0.742601 0.997258
vt 0.530692 0.891655
vt 0.991047 0.641739
vt 0.727073 0.787915
vt 0.369930 0.797743
vt 0.991047 0.217568
vt 0.732556 0.787915
vt 0.369930 0.807788
vt 0.981003 0.217568
vt 0.717028 0.997258
vt 0.359885 0.797743
vt 0.981003 0.432395
vt 0.742601 0.787915
vt 0.359885 0.807788
vt 0.991047 0.432395
vt 0.727073 0.997258
vt 0.515164 0.881610
vt 0.934419 0.426912
vt 0.685972 0.787915
vt 0.525209 0.881610
vt 0.944464 0.426912
vt 0.701500 0.997258
vt 0.515164 0.891655
vt 0.918891 0.002742
vt 0.696017 0.787915
vt 0.525209 0.891655
vt 0.928936 0.002742
vt 0.711545 0.997258
vt 0.292290 0.807788
vt 0.934419 0.217568
vt 0.685972 0.997258
vt 0.292290 0.797743
vt 0.944464 0.217568
vt 0.701500 0.787915
vt 0.282245 0.807788
vt 0.918891 0.212085
vt 0.696017 0.997258
vt 0.282245 0.797743
vt 0.928936 0.212085
vt 0.711545 0.787915
vt 0.447570 0.891655
vt 0.561749 0.002742
vt 0.748084 0.553460
vt 0.447570 0.881610
vt 0.571793 0.002742
vt 0.856779 0.002742
vt 0.437525 0.891655
vt 0.447570 0.002742
vt 0.758129 0.553460
vt 0.437525 0.881610
vt 0.437525 0.002742
vt 0.866824 0.002742
vt 0.276762 0.875382
vt 0.561748 0.553460
vt 0.748084 0.002742
vt 0.276762 0.885427
vt 0.571793 0.553460
vt 0.856779 0.553460
vt 0.266717 0.875382
vt 0.447570 0.553460
vt 0.758129 0.002742
vt 0.266717 0.885427
vt 0.437525 0.553460
vt 0.866824 0.553460
vt 0.882352 0.862049
vt 0.618377 0.002742
vt 0.841251 0.002742
vt 0.882352 0.872094
vt 0.608332 0.002742
vt 0.763612 0.553460
vt 0.872307 0.862049
vt 0.592804 0.002742
vt 0.851296 0.002742
vt 0.872307 0.872094
vt 0.602849 0.002742
vt 0.773657 0.553460
vt 0.338874 0.869899
vt 0.618377 0.553460
vt 0.841251 0.553460
vt 0.338874 0.859854
vt 0.608332 0.553460
vt 0.763612 0.002742
vt 0.328829 0.869899
vt 0.592804 0.553460
vt 0.851296 0.553460
vt 0.328829 0.859854
vt 0.602849 0.553460
vt 0.773657 0.002742
vt 0.292290 0.859854
vt 0.484109 0.553460
vt 0.825723 0.002742
vt 0.292290 0.869899
vt 0.494154 0.553460
vt 0.779140 0.553460
vt 0.282245 0.859854
vt 0.587321 0.553460
vt 0.835768 0.002742
vt 0.282245 0.869899
vt 0.577276 0.553460
vt 0.789185 0.553460
vt 0.369930 0.854371
vt 0.484109 0.002742
vt 0.825723 0.553460
vt 0.369930 0.844326
vt 0.494154 0.002742
vt 0.779140 0.002742
vt 0.359885 0.854371
vt 0.587321 0.002742
vt 0.835768 0.553460
vt 0.359885 0.844326
vt 0.577276 0.002742
vt 0.789184 0.002742
vt 0.276762 0.854371
vt 0.400986 0.553460
vt 0.794668 0.553460
vt 0.276762 0.844327
vt 0.390941 0.553460
vt 0.810196 0.002742
vt 0.266717 0.854371
vt 0.468581 0.553460
vt 0.804712 0.553460
vt 0.266717 0.844327
vt 0.478626 0.553460
vt 0.820240 0.002742
vt 0.261234 0.844327
vt 0.400986 0.002742
vt 0.794668 0.002742
vt 0.261234 0.854371
vt 0.390941 0.002742
vt 0.810196 0.553460
vt 0.251189 0.844327
vt 0.468581 0.002742
vt 0.804712 0.002742
vt 0.251189 0.854371
vt 0.478626 0.002742
vt 0.820240 0.553460
vt 0.028314 0.893836
vt 0.959992 0.856566
vt 0.825723 0.997258
vt 0.028314 0.883791
vt 0.949947 0.856566
vt 0.841251 0.787915
vt 0.018269 0.893836
vt 0.949947 0.641739
vt 0.835768 0.997258
vt 0.018269 0.883791
vt 0.959992 0.641739
vt 0.851296 0.787915
vt 0.307818 0.813271
vt 0.959992 0.647222
vt 0.825723 0.787915
vt 0.307818 0.823316
vt 0.949947 0.647222
vt 0.841251 0.997258
vt 0.297773 0.813271
vt 0.949947 0.432395
vt 0.835768 0.787915
vt 0.297773 0.823316
vt 0.959992 0.432395
vt 0.851296 0.997258
vt 0.261234 0.838844
vt 0.701500 0.558943
vt 0.794667 0.782432
vt 0.261234 0.828799
vt 0.711545 0.558943
vt 0.748084 0.558943
vt 0.251189 0.838844
vt 0.664961 0.558943
vt 0.804712 0.782432
vt 0.251189 0.828799
vt 0.654916 0.558943
vt 0.758129 0.558943
vt 0.276762 0.828799
vt 0.701500 0.782432
vt 0.794667 0.558943
vt 0.276762 0.838844
vt 0.711545 0.782432
vt 0.748084 0.782432
vt 0.266717 0.828799
vt 0.664961 0.782432
vt 0.804712 0.558943
vt 0.266717 0.838844
vt 0.654916 0.782432
vt 0.758129 0.782432
vt 0.354402 0.813271
vt 0.680489 0.558943
vt 0.763612 0.558943
vt 0.354402 0.823316
vt 0.670444 0.558943
vt 0.779140 0.782432
vt 0.344357 0.813271
vt 0.685972 0.558943
vt 0.773657 0.558943
vt 0.344357 0.823316
vt 0.696017 0.558943
vt 0.789184 0.782432
vt 0.307818 0.838844
vt 0.680489 0.782432
vt 0.763612 0.782432
vt 0.307818 0.828799
vt 0.670444 0.782432
vt 0.779140 0.558943
vt 0.297773 0.838844
vt 0.685972 0.782432
vt 0.773657 0.782432
vt 0.297773 0.828799
vt 0.696017 0.782432
vt 0.789184 0.558943
vt 0.494153 0.891655
vt 0.944464 0.856566
vt 0.779140 0.997258
vt 0.494153 0.881610
vt 0.934419 0.856566
vt 0.794667 0.787915
vt 0.484109 0.891655
vt 0.949947 0.212085
vt 0.789184 0.997258
vt 0.484109 0.881610
vt 0.959992 0.212085
vt 0.804712 0.787915
vt 0.323346 0.797743
vt 0.944464 0.647222
vt 0.779140 0.787915
vt 0.323346 0.807788
vt 0.934419 0.647222
vt 0.794667 0.997258
vt 0.313301 0.797743
vt 0.949947 0.002742
vt 0.789184 0.787915
vt 0.313301 0.807788
vt 0.959992 0.002742
vt 0.804712 0.997258
vt 0.468581 0.881610
vt 0.981003 0.212085
vt 0.763612 0.787915
vt 0.478626 0.881610
vt 0.991047 0.212085
vt 0.748084 0.997258
vt 0.468581 0.891655
vt 0.872307 0.217568
vt 0.773657 0.787915
vt 0.478626 0.891655
vt 0.882352 0.217568
vt 0.758129 0.997258
vt 0.261234 0.807788
vt 0.981003 0.002742
vt 0.763612 0.997258
vt 0.261234 0.797743
vt 0.991047 0.002742
vt 0.748084 0.787915
vt 0.251189 0.807788
vt 0.872307 0.426912
vt 0.773657 0.997258
vt 0.251189 0.797743
vt 0.882352 0.426912
vt 0.758129 0.787915
vt 0.354402 0.854371
vt 0.390941 0.558943
vt 0.499637 0.876127
vt 0.354402 0.844326
vt 0.400986 0.558943
vt 0.592804 0.558943
vt 0.344357 0.854371
vt 0.478626 0.558943
vt 0.509681 0.876127
vt 0.344357 0.844326
vt 0.468581 0.558943
vt 0.602849 0.558943
vt 0.323346 0.844326
vt 0.390941 0.876127
vt 0.499637 0.558943
vt 0.323346 0.854371
vt 0.400986 0.876127
vt 0.592804 0.876127
vt 0.313301 0.844326
vt 0.478626 0.876127
vt 0.509681 0.558943
vt 0.313301 0.854371
vt 0.468581 0.876127
vt 0.602849 0.876127
vt 0.323346 0.813271
vt 0.494154 0.558943
vt 0.561748 0.558943
vt 0.323346 0.823316
vt 0.484109 0.558943
vt 0.546220 0.876127
vt 0.313301 0.813271
vt 0.453053 0.558943
vt 0.571793 0.558943
vt 0.313301 0.823316
vt 0.463098 0.558943
vt 0.556265 0.876127
vt 0.369930 0.823316
vt 0.494153 0.876127
vt 0.561748 0.876127
vt 0.369930 0.813271
vt 0.484109 0.876127
vt 0.546220 0.558943
vt 0.359885 0.823316
vt 0.453053 0.876127
vt 0.571793 0.876127
vt 0.359885 0.813271
vt 0.463098 0.876127
vt 0.556265 0.558943
vt 0.556265 0.881610
vt 0.959992 0.426912
vt 0.887835 0.641739
vt 0.546220 0.881610
vt 0.949947 0.426912
vt 0.882352 0.212085
vt 0.556265 0.891655
vt 0.965475 0.212085
vt 0.897880 0.641739
vt 0.546220 0.891655
vt 0.975519 0.212085
vt 0.872307 0.212085
vt 0.354402 0.797743
vt 0.959992 0.217568
vt 0.887835 0.432395
vt 0.354402 0.807788
vt 0.949947 0.217568
vt 0.882352 0.002742
vt 0.344357 0.797743
vt 0.965475 0.002742
vt 0.897880 0.432395
vt 0.344357 0.807788
vt 0.975520 0.002742
vt 0.872307 0.002742
vt 0.323346 0.838843
vt 0.717028 0.558943
vt 0.856779 0.782432
vt 0.323346 0.828799
vt 0.727073 0.558943
vt 0.825723 0.558943
vt 0.313301 0.838843
vt 0.649433 0.558943
vt 0.866824 0.782432
vt 0.313301 0.828799
vt 0.639388 0.558943
vt 0.835768 0.558943
vt 0.338874 0.828799
vt 0.717028 0.782432
vt 0.856779 0.558943
vt 0.338874 0.838843
vt 0.727073 0.782432
vt 0.825723 0.782432
vt 0.328829 0.828799
vt 0.649433 0.782432
vt 0.866824 0.558943
vt 0.328829 0.838843
vt 0.639388 0.782432
vt 0.835768 0.782432
vt 0.292290 0.844327
vt 0.633905 0.558943
vt 0.810195 0.558943
vt 0.292290 0.854371
vt 0.623860 0.558943
vt 0.841251 0.782432
vt 0.282245 0.844327
vt 0.732556 0.558943
vt 0.820240 0.558943
vt 0.282245 0.854371
vt 0.742601 0.558943
vt 0.851296 0.782432
vt 0.307818 0.854371
vt 0.633905 0.782432
vt 0.810195 0.782432
vt 0.307818 0.844327
vt 0.623860 0.782432
vt 0.841251 0.558943
vt 0.297773 0.854371
vt 0.732556 0.782432
vt 0.820240 0.782432
vt 0.297773 0.844327
vt 0.742601 0.782432
vt 0.851296 0.558943
vt 0.261234 0.869899
vt 0.406469 0.558943
vt 0.577276 0.876127
vt 0.261234 0.859854
vt 0.416514 0.558943
vt 0.608332 0.558943
vt 0.251189 0.869899
vt 0.385458 0.558943
vt 0.587321 0.876127
vt 0.251189 0.859854
vt 0.375413 0.558943
vt 0.618377 0.558943
vt 0.276762 0.859854
vt 0.406469 0.876127
vt 0.577276 0.558943
vt 0.276762 0.869899
vt 0.416514 0.876127
vt 0.608332 0.876127
vt 0.266717 0.859854
vt 0.385458 0.876127
vt 0.587321 0.558943
vt 0.266717 0.869899
vt 0.375413 0.876127
vt 0.618377 0.876127
vt 0.354402 0.859854
vt 0.432042 0.558943
vt 0.530692 0.558943
vt 0.354402 0.869899
vt 0.421997 0.558943
vt 0.515164 0.876127
vt 0.344357 0.859854
vt 0.437525 0.558943
vt 0.540737 0.558943
vt 0.344357 0.869899
vt 0.447570 0.558943
vt 0.525209 0.876127
vt 0.369930 0.869899
vt 0.432042 0.876127
vt 0.530692 0.876127
vt 0.369930 0.859854
vt 0.421997 0.876127
vt 0.515164 0.558943
vt 0.359885 0.869899
vt 0.437525 0.876127
vt 0.540737 0.876127
vt 0.359885 0.859854
vt 0.447570 0.876127
vt 0.525209 0.558943
vt 0.307818 0.885427
vt 0.421997 0.002742
vt 0.670444 0.553460
vt 0.307818 0.875382
vt 0.432042 0.002742
vt 0.664961 0.553460
vt 0.297773 0.885427
vt 0.416514 0.002742
vt 0.680489 0.553460
vt 0.297773 0.875382
vt 0.406469 0.002742
vt 0.654916 0.553460
vt 0.323346 0.875382
vt 0.421997 0.553460
vt 0.670444 0.002742
vt 0.323346 0.885427
vt 0.432042 0.553460
vt 0.664961 0.002742
vt 0.313301 0.875382
vt 0.416514 0.553460
vt 0.680489 0.002742
vt 0.313301 0.885427
vt 0.406469 0.553460
vt 0.654916 0.002742
vt 0.385458 0.881610
vt 0.525210 0.002742
vt 0.649433 0.553460
vt 0.385458 0.891655
vt 0.515165 0.002742
vt 0.732556 0.553460
vt 0.375413 0.881610
vt 0.499637 0.002742
vt 0.639388 0.553460
vt 0.375413 0.891655
vt 0.509682 0.002742
vt 0.742601 0.553460
vt 0.400986 0.891655
vt 0.525209 0.553460
vt 0.649433 0.002742
vt 0.400986 0.881610
vt 0.515165 0.553460
vt 0.732556 0.002742
vt 0.390941 0.891655
vt 0.499637 0.553460
vt 0.639388 0.002742
vt 0.390941 0.881610
vt 0.509682 0.553460
vt 0.742601 0.002742
vt 0.292290 0.875382
vt 0.453053 0.553460
vt 0.711545 0.553460
vt 0.292290 0.885427
vt 0.463098 0.553460
vt 0.685972 0.553460
vt 0.282245 0.875382
vt 0.556265 0.553460
vt 0.701500 0.553460
vt 0.282245 0.885427
vt 0.546221 0.553460
vt 0.696017 0.553460
vt 0.307818 0.869899
vt 0.453053 0.002742
vt 0.711545 0.002742
vt 0.307818 0.859854
vt 0.463098 0.002742
vt 0.685972 0.002742
vt 0.297773 0.869899
vt 0.556265 0.002742
vt 0.701500 0.002742
vt 0.297773 0.859854
vt 0.546221 0.002742
vt 0.696017 0.002742
vt 0.354402 0.838843
vt 0.540737 0.553460
vt 0.717028 0.553460
vt 0.354402 0.828799
vt 0.530693 0.553460
vt 0.633905 0.553460
vt 0.344357 0.838843
vt 0.375413 0.553460
vt 0.727073 0.553460
vt 0.344357 0.828799
vt 0.385458 0.553460
vt 0.623860 0.553460
vt 0.323346 0.859854
vt 0.540737 0.002742
vt 0.717028 0.002742
vt 0.323346 0.869899
vt 0.530693 0.002742
vt 0.633905 0.002742
vt 0.313301 0.859854
vt 0.375413 0.002742
vt 0.727073 0.002742
vt 0.313301 0.869899
vt 0.385458 0.002742
vt 0.623860 0.002742
s 0
usemtl Metal
f 1/1/1 3/7/1 4/10/1 2/4/1
f 5/13/2 6/16/2 8/22/2 7/19/2
f 4/11/3 3/8/3 7/20/3 8/23/3
f 1/2/4 2/5/4 6/17/4 5/14/4
f 2/6/5 4/12/5 8/24/5 6/18/5
f 3/9/6 1/3/6 5/15/6 7/21/6
f 9/25/1 10/28/1 12/34/1 11/31/1
f 13/37/2 15/43/2 16/46/2 14/40/2
f 12/35/3 16/47/3 15/44/3 11/32/3
f 9/26/4 13/38/4 14/41/4 10/29/4
f 10/30/6 14/42/6 16/48/6 12/36/6
f 11/33/5 15/45/5 13/39/5 9/27/5
f 17/49/1 18/52/1 20/58/1 19/55/1
f 21/61/2 23/67/2 24/70/2 22/64/2
f 20/59/4 24/71/4 23/68/4 19/56/4
f 17/50/3 21/62/3 22/65/3 18/53/3
f 18/54/5 22/66/5 24/72/5 20/60/5
f 19/57/6 23/69/6 21/63/6 17/51/6
f 25/73/1 27/79/1 28/82/1 26/76/1
f 29/85/2 30/88/2 32/94/2 31/91/2
f 28/83/4 27/80/4 31/92/4 32/95/4
f 25/74/3 26/77/3 30/89/3 29/86/3
f 26/78/6 28/84/6 32/96/6 30/90/6
f 27/81/5 25/75/5 29/87/5 31/93/5
f 33/97/1 35/103/1 36/106/1 34/100/1
f 37/109/2 38/112/2 40/118/2 39/115/2
f 36/107/3 35/104/3 39/116/3 40/119/3
f 33/98/4 34/101/4 38/113/4 37/110/4
f 34/102/5 36/108/5 40/120/5 38/114/5
f 35/105/6 33/99/6 37/111/6 39/117/6
f 41/121/1 42/124/1 44/130/1 43/127/1
f 45/133/2 47/139/2 48/142/2 46/136/2
f 44/131/3 48/143/3 47/140/3 43/128/3
f 41/122/4 45/134/4 46/137/4 42/125/4
f 42/126/6 46/138/6 48/144/6 44/132/6
f 43/129/5 47/141/5 45/135/5 41/123/5
f 49/145/6 51/151/6 52/154/6 50/148/6
f 53/157/5 54/160/5 56/166/5 55/163/5
f 52/155/2 51/152/2 55/164/2 56/167/2
f 49/146/1 50/149/1 54/161/1 53/158/1
f 50/150/3 52/156/3 56/168/3 54/162/3
f 51/153/4 49/147/4 53/159/4 55/165/4
f 57/169/6 58/172/6 60/178/6 59/175/6
f 61/181/5 63/187/5 64/190/5 62/184/5
f 60/179/2 64/191/2 63/188/2 59/176/2
f 57/170/1 61/182/1 62/185/1 58/173/1
f 58/174/4 62/186/4 64/192/4 60/180/4
f 59/177/3 63/189/3 61/183/3 57/171/3
f 65/193/6 67/199/6 68/202/6 66/196/6
f 69/205/5 70/208/5 72/214/5 71/211/5
f 68/203/2 67/200/2 71/212/2 72/215/2
f 65/194/1 66/197/1 70/209/1 69/206/1
f 66/198/3 68/204/3 72/216/3 70/210/3
f 67/201/4 65/195/4 69/207/4 71/213/4
f 73/217/6 74/220/6 76/226/6 75/223/6
f 77/229/5 79/235/5 80/238/5 78/232/5
f 76/227/2 80/239/2 79/236/2 75/224/2
f 73/218/1 77/230/1 78/233/1 74/221/1
f 74/222/4 78/234/4 80/240/4 76/228/4
f 75/225/3 79/237/3 77/231/3 73/219/3
f 81/241/6 83/247/6 84/250/6 82/244/6
f 85/253/5 86/256/5 88/262/5 87/259/5
f 84/251/2 83/248/2 87/260/2 88/263/2
f 81/242/1 82/245/1 86/257/1 85/254/1
f 82/246/3 84/252/3 88/264/3 86/258/3
f 83/249/4 81/243/4 85/255/4 87/261/4
f 89/265/6 91/271/6 92/274/6 90/268/6
f 93/277/5 94/280/5 96/286/5 95/283/5
f 92/275/2 91/272/2 95/284/2 96/287/2
f 89/266/1 90/269/1 94/281/1 93/278/1
f 90/270/3 92/276/3 96/288/3 94/282/3
f 91/273/4 89/267/4 93/279/4 95/285/4
f 97/289/6 99/295/6 100/298/6 98/292/6
f 101/301/5 102/304/5 104/310/5 103/307/5
f 100/299/2 99/296/2 103/308/2 104/311/2
f 97/290/1 98/293/1 102/305/1 101/302/1
f 98/294/3 100/300/3 104/312/3 102/306/3
f 99/297/4 97/291/4 101/303/4 103/309/4
f 105/313/6 106/316/6 108/322/6 107/319/6
f 109/325/5 111/331/5 112/334/5 110/328/5
f 108/323/2 112/335/2 111/332/2 107/320/2
f 105/314/1 109/326/1 110/329/1 106/317/1
f 106/318/4 110/330/4 112/336/4 108/324/4
f 107/321/3 111/333/3 109/327/3 105/315/3
f 113/337/3 115/343/3 116/346/3 114/340/3
f 117/349/4 118/352/4 120/358/4 119/355/4
f 116/347/2 115/344/2 119/356/2 120/359/2
f 113/338/1 114/341/1 118/353/1 117/350/1
f 114/342/5 116/348/5 120/360/5 118/354/5
f 115/345/6 113/339/6 117/351/6 119/357/6
f 121/361/3 122/364/3 124/370/3 123/367/3
f 125/373/4 127/379/4 128/382/4 126/376/4
f 124/371/2 128/383/2 127/380/2 123/368/2
f 121/362/1 125/374/1 126/377/1 122/365/1
f 122/366/6 126/378/6 128/384/6 124/372/6
f 123/369/5 127/381/5 125/375/5 121/363/5
f 129/385/4 130/388/4 132/394/4 131/391/4
f 133/397/3 135/403/3 136/406/3 134/400/3
f 132/395/2 136/407/2 135/404/2 131/392/2
f 129/386/1 133/398/1 134/401/1 130/389/1
f 130/390/5 134/402/5 136/408/5 132/396/5
f 131/393/6 135/405/6 133/399/6 129/387/6
f 137/409/4 139/415/4 140/418/4 138/412/4
f 141/421/3 142/424/3 144/430/3 143/427/3
f 140/419/2 139/416/2 143/428/2 144/431/2
f 137/410/1 138/413/1 142/425/1 141/422/1
f 138/414/6 140/420/6 144/432/6 142/426/6
f 139/417/5 137/411/5 141/423/5 143/429/5
f 145/433/6 147/439/6 148/442/6 146/436/6
f 149/445/5 150/448/5 152/454/5 151/451/5
f 148/443/2 147/440/2 151/452/2 152/455/2
f 145/434/1 146/437/1 150/449/1 149/446/1
f 146/438/3 148/444/3 152/456/3 150/450/3
f 147/441/4 145/435/4 149/447/4 151/453/4
f 153/457/3 155/463/3 156/466/3 154/460/3
f 157/469/4 158/472/4 160/478/4 159/475/4
f 156/467/2 155/464/2 159/476/2 160/479/2
f 153/458/1 154/461/1 158/473/1 157/470/1
f 154/462/5 156/468/5 160/480/5 158/474/5
f 155/465/6 153/459/6 157/471/6 159/477/6
f 161/481/3 162/484/3 164/490/3 163/487/3
f 165/493/4 167/499/4 168/502/4 166/496/4
f 164/491/2 168/503/2 167/500/2 163/488/2
f 161/482/1 165/494/1 166/497/1 162/485/1
f 162/486/6 166/498/6 168/504/6 164/492/6
f 163/489/5 167/501/5 165/495/5 161/483/5
f 169/505/6 171/511/6 172/514/6 170/508/6
f 173/517/5 174/520/5 176/526/5 175/523/5
f 172/515/2 171/512/2 175/524/2 176/527/2
f 169/506/1 170/509/1 174/521/1 173/518/1
f 170/510/3 172/516/3 176/528/3 174/522/3
f 171/513/4 169/507/4 173/519/4 175/525/4
f 177/529/6 178/532/6 180/538/6 179/535/6
f 181/541/5 183/547/5 184/550/5 182/544/5
f 180/539/2 184/551/2 183/548/2 179/536/2
f 177/530/1 181/542/1 182/545/1 178/533/1
f 178/534/4 182/546/4 184/552/4 180/540/4
f 179/537/3 183/549/3 181/543/3 177/531/3
f 185/553/3 187/559/3 188/562/3 186/556/3
f 189/565/4 190/568/4 192/574/4 191/571/4
f 188/563/2 187/560/2 191/572/2 192/575/2
f 185/554/1 186/557/1 190/569/1 189/566/1
f 186/558/5 188/564/5 192/576/5 190/570/5
f 187/561/6 185/555/6 189/567/6 191/573/6
f 193/577/3 194/580/3 196/586/3 195/583/3
f 197/589/4 199/595/4 200/598/4 198/592/4
f 196/587/2 200/599/2 199/596/2 195/584/2
f 193/578/1 197/590/1 198/593/1 194/581/1
f 194/582/6 198/594/6 200/600/6 196/588/6
f 195/585/5 199/597/5 197/591/5 193/579/5
f 201/601/6 203/607/6 204/610/6 202/604/6
f 205/613/5 206/616/5 208/622/5 207/619/5
f 204/611/2 203/608/2 207/620/2 208/623/2
f 201/602/1 202/605/1 206/617/1 205/614/1
f 202/606/3 204/612/3 208/624/3 206/618/3
f 203/609/4 201/603/4 205/615/4 207/621/4
f 209/625/3 211/631/3 212/634/3 210/628/3
f 213/637/4 214/640/4 216/646/4 215/643/4
f 212/635/2 211/632/2 215/644/2 216/647/2
f 209/626/1 210/629/1 214/641/1 213/638/1
f 210/630/5 212/636/5 216/648/5 214/642/5
f 211/633/6 209/627/6 213/639/6 215/645/6
f 217/649/3 218/652/3 220/658/3 219/655/3
f 221/661/4 223/667/4 224/670/4 222/664/4
f 220/659/2 224/671/2 223/668/2 219/656/2
f 217/650/1 221/662/1 222/665/1 218/653/1
f 218/654/6 222/666/6 224/672/6 220/660/6
f 219/657/5 223/669/5 221/663/5 217/651/5
f 225/673/3 227/679/3 228/682/3 226/676/3
f 229/685/4 230/688/4 232/694/4 231/691/4
f 228/683/2 227/680/2 231/692/2 232/695/2
f 225/674/1 226/677/1 230/689/1 229/686/1
f 226/678/5 228/684/5 232/696/5 230/690/5
f 227/681/6 225/675/6 229/687/6 231/693/6
f 233/697/3 234/700/3 236/706/3 235/703/3
f 237/709/4 239/715/4 240/718/4 238/712/4
f 236/707/2 240/719/2 239/716/2 235/704/2
f 233/698/1 237/710/1 238/713/1 234/701/1
f 234/702/6 238/714/6 240/720/6 236/708/6
f 235/705/5 239/717/5 237/711/5 233/699/5
f 241/721/3 243/727/3 244/730/3 242/724/3
f 245/733/4 246/736/4 248/742/4 247/739/4
f 244/731/2 243/728/2 247/740/2 248/743/2
f 241/722/1 242/725/1 246/737/1 245/734/1
f 242/726/5 244/732/5 248/744/5 246/738/5
f 243/729/6 241/723/6 245/735/6 247/741/6
f 249/745/3 250/748/3 252/754/3 251/751/3
f 253/757/4 255/763/4 256/766/4 254/760/4
f 252/755/2 256/767/2 255/764/2 251/752/2
f 249/746/1 253/758/1 254/761/1 250/749/1
f 250/750/6 254/762/6 256/768/6 252/756/6
f 251/753/5 255/765/5 253/759/5 249/747/5
f 257/769/4 258/772/4 260/778/4 259/775/4
f 261/781/3 263/787/3 264/790/3 262/784/3
f 260/779/2 264/791/2 263/788/2 259/776/2
f 257/770/1 261/782/1 262/785/1 258/773/1
f 258/774/5 262/786/5 264/792/5 260/780/5
f 259/777/6 263/789/6 261/783/6 257/771/6
f 265/793/4 267/799/4 268/802/4 266/796/4
f 269/805/3 270/808/3 272/814/3 271/811/3
f 268/803/2 267/800/2 271/812/2 272/815/2
f 265/794/1 266/797/1 270/809/1 269/806/1
f 266/798/6 268/804/6 272/816/6 270/810/6
f 267/801/5 265/795/5 269/807/5 271/813/5
o Selfs
v -0.975236 7.611442 2.431307
v 0.975236 7.611442 2.431307
v -0.975236 7.611442 -2.437246
v 0.975236 7.611442 -2.437246
v -0.944884 0.742020 2.432763
v 0.944884 0.742020 2.432763
v -0.944884 0.742020 -2.438701
v 0.944884 0.742020 -2.438701
v -0.970219 2.518536 2.446277
v 0.970219 2.518536 2.446277
v -0.970219 2.518536 0.408901
v 0.970219 2.518536 0.408901
v -0.970219 3.601706 0.395623
v 0.970219 3.601706 0.395623
v -0.970219 3.601706 -2.440339
v 0.970219 3.601706 -2.440339
v -0.970219 4.914888 2.446277
v 0.970219 4.914888 2.446277
v -0.970219 4.914888 0.408392
v 0.970219 4.914888 0.408392
v -0.970219 6.231640 0.395623
v 0.970219 6.231640 0.395623
v -0.970219 6.231640 -2.440339
v 0.970219 6.231640 -2.440339
vn -0.0000 1.0000 -0.0000
vt 0.252706 0.629918
vt 0.000573 0.629918
vt 0.252706 0.000573
vt 0.000573 0.000573
vt 0.498137 0.630294
vt 0.253852 0.630294
vt 0.498137 0.000573
vt 0.253852 0.000573
vt 0.750119 0.999427
vt 0.499284 0.999427
vt 0.750119 0.736061
vt 0.499284 0.736061
vt 0.750119 0.367170
vt 0.499284 0.367170
vt 0.750119 0.000573
vt 0.499284 0.000573
vt 0.251408 0.894496
vt 0.000573 0.894496
vt 0.251408 0.631065
vt 0.000573 0.631064
vt 0.750119 0.734914
vt 0.499284 0.734914
vt 0.750119 0.368317
vt 0.499284 0.368317
s 0
usemtl Wood
f 273/817/7 274/818/7 276/820/7 275/819/7
f 277/821/7 278/822/7 280/824/7 279/823/7
f 281/825/7 282/826/7 284/828/7 283/827/7
f 285/829/7 286/830/7 288/832/7 287/831/7
f 289/833/7 290/834/7 292/836/7 291/835/7
f 293/837/7 294/838/7 296/840/7 295/839/7
