# Blender v3.6.23 OBJ File: 'computer.blend'
# www.blender.org
mtllib computer.mtl
o Computer_Cube
v -0.997918 0.005982 0.287885
v -0.991928 -0.000008 0.288474
v -0.997918 0.020177 0.302080
v -0.991928 0.019587 0.308069
v -0.997918 0.007126 0.293636
v -0.991928 0.001484 0.295973
v -0.997918 0.010050 0.298012
v -0.991928 0.005732 0.302330
v -0.997918 0.014426 0.300936
v -0.991928 0.012089 0.306578
v -0.997918 1.917869 0.302080
v -0.991928 1.918459 0.308069
v -0.997918 1.932064 0.287885
v -0.991928 1.938054 0.288474
v -0.997918 1.923621 0.300936
v -0.991928 1.925957 0.306578
v -0.997918 1.927996 0.298012
v -0.991928 1.932315 0.302330
v -0.997918 1.930920 0.293636
v -0.991928 1.936562 0.295973
v -0.997918 0.020177 -0.302080
v -0.991928 0.019587 -0.308069
v -0.997918 0.005982 -0.287885
v -0.991928 -0.000008 -0.288474
v -0.997918 0.014426 -0.300936
v -0.991928 0.012089 -0.306578
v -0.997918 0.010050 -0.298012
v -0.991928 0.005732 -0.302330
v -0.997918 0.007126 -0.293636
v -0.991928 0.001484 -0.295973
v -0.997918 1.932064 -0.287885
v -0.991928 1.938054 -0.288474
v -0.997918 1.917869 -0.302080
v -0.991928 1.918459 -0.308069
v -0.997918 1.930920 -0.293636
v -0.991928 1.936562 -0.295973
v -0.997918 1.927996 -0.298012
v -0.991928 1.932315 -0.302330
v -0.997918 1.923621 -0.300936
v -0.991928 1.925957 -0.306578
v 0.997918 0.020177 0.302080
v 0.991928 0.019587 0.308069
v 0.997918 0.005982 0.287885
v 0.991928 -0.000008 0.288474
v 0.997918 0.014426 0.300936
v 0.991928 0.012089 0.306578
v 0.997918 0.010050 0.298012
v 0.991928 0.005732 0.302330
v 0.997918 0.007126 0.293636
v 0.991928 0.001484 0.295973
v 0.997918 1.932064 0.287885
v 0.991928 1.938054 0.288474
v 0.997918 1.917869 0.302080
v 0.991928 1.918459 0.308069
v 0.997918 1.930920 0.293636
v 0.991928 1.936562 0.295973
v 0.997918 1.927996 0.298012
v 0.991928 1.932315 0.302330
v 0.997918 1.923621 0.300936
v 0.991928 1.925957 0.306578
v 0.997918 0.005982 -0.287885
v 0.991928 -0.000008 -0.288474
v 0.997918 0.020177 -0.302080
v 0.991928 0.019587 -0.308069
v 0.997918 0.007126 -0.293636
v 0.991928 0.001484 -0.295973
v 0.997918 0.010050 -0.298012
v 0.991928 0.005732 -0.302330
v 0.997918 0.014426 -0.300936
v 0.991928 0.012089 -0.306578
v 0.997918 1.917869 -0.302080
v 0.991928 1.918459 -0.308069
v 0.997918 1.932064 -0.287885
v 0.991928 1.938054 -0.288474
v 0.997918 1.923621 -0.300936
v 0.991928 1.925957 -0.306578
v 0.997918 1.927996 -0.298012
v 0.991928 1.932315 -0.302330
v 0.997918 1.930920 -0.293636
v 0.991928 1.936562 -0.295973
v 0.801539 1.787138 -0.299387
v 0.801539 1.791107 -0.321347
v 0.815327 1.790285 -0.299387
v 0.813605 1.793861 -0.321347
v 0.826383 1.799103 -0.299387
v 0.823280 1.801577 -0.321347
v 0.832519 1.811844 -0.299387
v 0.828650 1.812727 -0.321347
v 0.832519 1.825986 -0.299387
v 0.828650 1.825103 -0.321347
v 0.826383 1.838727 -0.299387
v 0.823280 1.836253 -0.321347
v 0.815327 1.847545 -0.299387
v 0.813605 1.843969 -0.321347
v 0.801539 1.850692 -0.299387
v 0.801539 1.846723 -0.321347
v 0.787752 1.847545 -0.299387
v 0.789474 1.843969 -0.321347
v 0.776695 1.838727 -0.299387
v 0.779799 1.836253 -0.321347
v 0.770559 1.825986 -0.299387
v 0.774429 1.825103 -0.321347
v 0.770559 1.811844 -0.299387
v 0.774429 1.812727 -0.321347
v 0.776695 1.799103 -0.299387
v 0.779799 1.801577 -0.321347
v 0.787752 1.790285 -0.299387
v 0.789474 1.793861 -0.321347
v 0.801539 0.094875 -0.299387
v 0.801539 0.098844 -0.321347
v 0.815327 0.098022 -0.299387
v 0.813605 0.101598 -0.321347
v 0.826383 0.106839 -0.299387
v 0.823280 0.109314 -0.321347
v 0.832519 0.119581 -0.299387
v 0.828650 0.120464 -0.321347
v 0.832519 0.133723 -0.299387
v 0.828650 0.132839 -0.321347
v 0.826383 0.146464 -0.299387
v 0.823280 0.143989 -0.321347
v 0.815327 0.155281 -0.299387
v 0.813605 0.151705 -0.321347
v 0.801539 0.158428 -0.299387
v 0.801539 0.154459 -0.321347
v 0.787752 0.155281 -0.299387
v 0.789474 0.151705 -0.321347
v 0.776695 0.146464 -0.299387
v 0.779799 0.143989 -0.321347
v 0.770559 0.133723 -0.299387
v 0.774429 0.132839 -0.321347
v 0.770559 0.119581 -0.299387
v 0.774429 0.120464 -0.321347
v 0.776695 0.106839 -0.299387
v 0.779799 0.109314 -0.321347
v 0.787752 0.098022 -0.299387
v 0.789474 0.101598 -0.321347
v -0.881711 1.787138 -0.299387
v -0.881711 1.791107 -0.321347
v -0.867924 1.790285 -0.299387
v -0.869646 1.793861 -0.321347
v -0.856867 1.799103 -0.299387
v -0.859970 1.801577 -0.321347
v -0.850731 1.811844 -0.299387
v -0.854601 1.812727 -0.321347
v -0.850731 1.825986 -0.299387
v -0.854601 1.825103 -0.321347
v -0.856867 1.838727 -0.299387
v -0.859970 1.836253 -0.321347
v -0.867924 1.847545 -0.299387
v -0.869646 1.843969 -0.321347
v -0.881711 1.850692 -0.299387
v -0.881711 1.846723 -0.321347
v -0.895498 1.847545 -0.299387
v -0.893776 1.843969 -0.321347
v -0.906555 1.838727 -0.299387
v -0.903452 1.836253 -0.321347
v -0.912691 1.825986 -0.299387
v -0.908821 1.825103 -0.321347
v -0.912691 1.811844 -0.299387
v -0.908821 1.812727 -0.321347
v -0.906555 1.799103 -0.299387
v -0.903452 1.801577 -0.321347
v -0.895498 1.790285 -0.299387
v -0.893776 1.793861 -0.321347
v -0.881711 0.094875 -0.299387
v -0.881711 0.098844 -0.321347
v -0.867924 0.098022 -0.299387
v -0.869646 0.101598 -0.321347
v -0.856867 0.106839 -0.299387
v -0.859970 0.109314 -0.321347
v -0.850731 0.119581 -0.299387
v -0.854601 0.120464 -0.321347
v -0.850731 0.133723 -0.299387
v -0.854601 0.132839 -0.321347
v -0.856867 0.146464 -0.299387
v -0.859970 0.143989 -0.321347
v -0.867924 0.155281 -0.299387
v -0.869646 0.151705 -0.321347
v -0.881711 0.158428 -0.299387
v -0.881711 0.154459 -0.321347
v -0.895498 0.155281 -0.299387
v -0.893776 0.151705 -0.321347
v -0.906555 0.146464 -0.299387
v -0.903452 0.143989 -0.321347
v -0.912691 0.133723 -0.299387
v -0.908821 0.132839 -0.321347
v -0.912691 0.119581 -0.299387
v -0.908821 0.120464 -0.321347
v -0.906555 0.106839 -0.299387
v -0.903452 0.109314 -0.321347
v -0.895498 0.098022 -0.299387
v -0.893776 0.101598 -0.321347
vt 0.759299 0.753919
vt 0.199145 0.753919
vt 0.199145 0.757122
vt 0.759299 0.757121
vt 0.199261 0.979438
vt 0.757257 0.979438
vt 0.757257 0.976247
vt 0.199261 0.976247
vt 0.757257 0.015835
vt 0.199261 0.015835
vt 0.199261 0.019598
vt 0.757257 0.019598
vt 0.199145 0.459500
vt 0.759299 0.459500
vt 0.759299 0.455722
vt 0.199145 0.455722
vt 0.199261 0.012645
vt 0.757257 0.012645
vt 0.757257 0.015835
vt 0.199261 0.015835
vt 0.759299 0.459500
vt 0.199145 0.459500
vt 0.199145 0.455722
vt 0.759299 0.455722
vt 0.759299 0.452520
vt 0.199145 0.452520
vt 0.757257 0.019598
vt 0.757257 0.972485
vt 0.199261 0.972485
vt 0.199261 0.019598
vt 0.757257 0.976247
vt 0.199261 0.976247
vt 0.757257 0.979438
vt 0.199261 0.979438
vt 0.173853 0.006592
vt 0.175497 0.007175
vt 0.176748 0.008666
vt 0.177584 0.010898
vt 0.177911 0.013832
vt 0.177911 0.981679
vt 0.177584 0.984612
vt 0.176748 0.986843
vt 0.175497 0.988335
vt 0.173853 0.988918
vt 0.009262 0.988918
vt 0.007618 0.988335
vt 0.006367 0.986843
vt 0.005532 0.984612
vt 0.005204 0.981679
vt 0.005204 0.013832
vt 0.005532 0.010898
vt 0.006367 0.008666
vt 0.007618 0.007175
vt 0.009262 0.006592
vt 0.199145 0.452520
vt 0.759299 0.452520
vt 0.199145 0.750142
vt 0.759299 0.750142
vt 0.757257 0.012645
vt 0.199261 0.012645
vt 0.757257 0.972485
vt 0.199261 0.972485
vt 0.759299 0.750142
vt 0.199145 0.750142
vt 0.199145 0.753919
vt 0.759299 0.753919
vt 0.759299 0.757121
vt 0.199145 0.757122
vt 0.987466 0.019633
vt 0.989097 0.020212
vt 0.990337 0.021691
vt 0.991166 0.023904
vt 0.991491 0.026813
vt 0.991491 0.986630
vt 0.991166 0.989539
vt 0.990338 0.991752
vt 0.989097 0.993231
vt 0.987466 0.993810
vt 0.824241 0.993810
vt 0.822611 0.993231
vt 0.821370 0.991752
vt 0.820541 0.989539
vt 0.820217 0.986630
vt 0.820217 0.026813
vt 0.820541 0.023904
vt 0.821370 0.021691
vt 0.822611 0.020212
vt 0.824241 0.019633
vt 0.174022 0.003537
vt 0.176165 0.004298
vt 0.821948 0.017358
vt 0.824074 0.016604
vt 0.177982 0.006464
vt 0.820146 0.019507
vt 0.179197 0.009706
vt 0.818942 0.022722
vt 0.179623 0.013531
vt 0.818519 0.026515
vt 0.824074 0.996839
vt 0.821948 0.996085
vt 0.176165 0.991212
vt 0.174022 0.991973
vt 0.820146 0.993936
vt 0.177982 0.989046
vt 0.818942 0.990721
vt 0.179197 0.985804
vt 0.818519 0.986928
vt 0.179623 0.981979
vt 0.987634 0.016604
vt 0.989759 0.017358
vt 0.006950 0.004298
vt 0.009094 0.003537
vt 0.991562 0.019507
vt 0.005133 0.006464
vt 0.992766 0.022722
vt 0.003919 0.009706
vt 0.993189 0.026515
vt 0.003492 0.013531
vt 0.009094 0.991973
vt 0.006950 0.991212
vt 0.989759 0.996085
vt 0.987634 0.996839
vt 0.005133 0.989046
vt 0.991562 0.993936
vt 0.003919 0.985804
vt 0.992766 0.990721
vt 0.003492 0.981979
vt 0.993189 0.986928
vt 0.758364 0.497477
vt 0.758364 0.508899
vt 0.761882 0.508899
vt 0.762384 0.497477
vt 0.764703 0.508899
vt 0.765608 0.497477
vt 0.509586 0.933367
vt 0.515988 0.934654
vt 0.515988 0.940454
vt 0.509586 0.939994
vt 0.515988 0.946891
vt 0.509586 0.947350
vt 0.515988 0.952690
vt 0.509586 0.953977
vt 0.765608 0.497477
vt 0.764703 0.508899
vt 0.761882 0.508899
vt 0.762384 0.497477
vt 0.758364 0.508899
vt 0.758364 0.497477
vt 0.754847 0.508899
vt 0.754345 0.497477
vt 0.752026 0.508899
vt 0.751122 0.497477
vt 0.509586 0.953977
vt 0.515988 0.952690
vt 0.515988 0.946891
vt 0.509586 0.947350
vt 0.515988 0.940454
vt 0.509586 0.939994
vt 0.515988 0.934654
vt 0.509586 0.933367
vt 0.761882 0.930641
vt 0.758364 0.929209
vt 0.754847 0.930641
vt 0.752026 0.934654
vt 0.750461 0.940454
vt 0.750461 0.946891
vt 0.752026 0.952690
vt 0.754847 0.956704
vt 0.758364 0.958136
vt 0.761882 0.956704
vt 0.764703 0.952690
vt 0.766268 0.946891
vt 0.766268 0.940454
vt 0.764703 0.934654
vt 0.751122 0.497477
vt 0.752026 0.508899
vt 0.754847 0.508899
vt 0.754345 0.497477
vt 0.750000 0.490000
vt 0.854132 0.466233
vt 0.937640 0.399638
vt 0.983983 0.303405
vt 0.983983 0.196595
vt 0.937640 0.100362
vt 0.854132 0.033767
vt 0.750000 0.010000
vt 0.645868 0.033767
vt 0.562360 0.100362
vt 0.516017 0.196595
vt 0.516017 0.303405
vt 0.562360 0.399638
vt 0.645868 0.466233
vt 0.758364 0.497477
vt 0.758364 0.508899
vt 0.761882 0.508899
vt 0.762384 0.497477
vt 0.764703 0.508899
vt 0.765608 0.497477
vt 0.509586 0.053159
vt 0.515988 0.054446
vt 0.515988 0.060246
vt 0.509586 0.059786
vt 0.515988 0.066683
vt 0.509586 0.067142
vt 0.515988 0.072482
vt 0.509586 0.073769
vt 0.765608 0.497477
vt 0.764703 0.508899
vt 0.761882 0.508899
vt 0.762384 0.497477
vt 0.758364 0.508899
vt 0.758364 0.497477
vt 0.754847 0.508899
vt 0.754345 0.497477
vt 0.752026 0.508899
vt 0.751122 0.497477
vt 0.509586 0.073769
vt 0.515988 0.072482
vt 0.515988 0.066683
vt 0.509586 0.067142
vt 0.515988 0.060246
vt 0.509586 0.059786
vt 0.515988 0.054446
vt 0.509586 0.053159
vt 0.761882 0.050433
vt 0.758364 0.049001
vt 0.754847 0.050433
vt 0.752026 0.054446
vt 0.750461 0.060246
vt 0.750461 0.066683
vt 0.752026 0.072482
vt 0.754847 0.076496
vt 0.758364 0.077928
vt 0.761882 0.076496
vt 0.764703 0.072482
vt 0.766268 0.066683
vt 0.766268 0.060246
vt 0.764703 0.054446
vt 0.751122 0.497477
vt 0.752026 0.508899
vt 0.754847 0.508899
vt 0.754345 0.497477
vt 0.750000 0.490000
vt 0.854132 0.466233
vt 0.937640 0.399638
vt 0.983983 0.303405
vt 0.983983 0.196595
vt 0.937640 0.100362
vt 0.854132 0.033767
vt 0.750000 0.010000
vt 0.645868 0.033767
vt 0.562360 0.100362
vt 0.516017 0.196595
vt 0.516017 0.303405
vt 0.562360 0.399638
vt 0.645868 0.466233
vt 0.267636 0.497477
vt 0.267636 0.508899
vt 0.271153 0.508899
vt 0.271655 0.497477
vt 0.273974 0.508899
vt 0.274878 0.497477
vt 0.509586 0.933367
vt 0.515988 0.934654
vt 0.515988 0.940454
vt 0.509586 0.939994
vt 0.515988 0.946891
vt 0.509586 0.947350
vt 0.515988 0.952690
vt 0.509586 0.953977
vt 0.274878 0.497477
vt 0.273974 0.508899
vt 0.271153 0.508899
vt 0.271655 0.497477
vt 0.267636 0.508899
vt 0.267636 0.497477
vt 0.264118 0.508899
vt 0.263616 0.497477
vt 0.261297 0.508899
vt 0.260393 0.497477
vt 0.509586 0.953977
vt 0.515988 0.952690
vt 0.515988 0.946891
vt 0.509586 0.947350
vt 0.515988 0.940454
vt 0.509586 0.939994
vt 0.515988 0.934654
vt 0.509586 0.933367
vt 0.271153 0.930641
vt 0.267636 0.929209
vt 0.264118 0.930641
vt 0.261297 0.934654
vt 0.259732 0.940454
vt 0.259732 0.946891
vt 0.261297 0.952690
vt 0.264118 0.956704
vt 0.267636 0.958136
vt 0.271153 0.956704
vt 0.273974 0.952690
vt 0.275539 0.946891
vt 0.275539 0.940454
vt 0.273974 0.934654
vt 0.260393 0.497477
vt 0.261297 0.508899
vt 0.264118 0.508899
vt 0.263616 0.497477
vt 0.750000 0.490000
vt 0.854132 0.466233
vt 0.937640 0.399638
vt 0.983983 0.303405
vt 0.983983 0.196595
vt 0.937640 0.100362
vt 0.854132 0.033767
vt 0.750000 0.010000
vt 0.645868 0.033767
vt 0.562360 0.100362
vt 0.516017 0.196595
vt 0.516017 0.303405
vt 0.562360 0.399638
vt 0.645868 0.466233
vt 0.267636 0.497477
vt 0.267636 0.508899
vt 0.271153 0.508899
vt 0.271655 0.497477
vt 0.273974 0.508899
vt 0.274878 0.497477
vt 0.509586 0.053159
vt 0.515988 0.054446
vt 0.515988 0.060246
vt 0.509586 0.059786
vt 0.515988 0.066683
vt 0.509586 0.067142
vt 0.515988 0.072482
vt 0.509586 0.073769
vt 0.274878 0.497477
vt 0.273974 0.508899
vt 0.271153 0.508899
vt 0.271655 0.497477
vt 0.267636 0.508899
vt 0.267636 0.497477
vt 0.264118 0.508899
vt 0.263616 0.497477
vt 0.261297 0.508899
vt 0.260393 0.497477
vt 0.509586 0.073769
vt 0.515988 0.072482
vt 0.515988 0.066683
vt 0.509586 0.067142
vt 0.515988 0.060246
vt 0.509586 0.059786
vt 0.515988 0.054446
vt 0.509586 0.053159
vt 0.271153 0.050433
vt 0.267636 0.049001
vt 0.264118 0.050433
vt 0.261297 0.054446
vt 0.259732 0.060246
vt 0.259732 0.066683
vt 0.261297 0.072482
vt 0.264118 0.076496
vt 0.267636 0.077928
vt 0.271153 0.076496
vt 0.273974 0.072482
vt 0.275539 0.066683
vt 0.275539 0.060246
vt 0.273974 0.054446
vt 0.260393 0.497477
vt 0.261297 0.508899
vt 0.264118 0.508899
vt 0.263616 0.497477
vt 0.750000 0.490000
vt 0.854132 0.466233
vt 0.937640 0.399638
vt 0.983983 0.303405
vt 0.983983 0.196595
vt 0.937640 0.100362
vt 0.854132 0.033767
vt 0.750000 0.010000
vt 0.645868 0.033767
vt 0.562360 0.100362
vt 0.516017 0.196595
vt 0.516017 0.303405
vt 0.562360 0.399638
vt 0.645868 0.466233
vn 0.0000 -0.9239 0.3827
vn 0.0000 -0.7071 0.7071
vn 0.0000 0.7071 0.7071
vn 0.0000 0.3827 0.9239
vn 0.0000 -0.3827 0.9239
vn 0.0000 -0.0980 0.9952
vn 0.0000 -0.9952 -0.0980
vn 0.0000 -0.9239 -0.3827
vn 0.0000 -0.7071 -0.7071
vn 0.0000 -0.3827 -0.9239
vn 0.0000 0.9952 -0.0980
vn 0.0000 0.9239 -0.3827
vn 0.0000 -0.0980 -0.9952
vn 0.0000 0.0980 -0.9952
vn 0.0000 0.3827 -0.9239
vn 0.0000 0.7071 -0.7071
vn 1.0000 0.0000 0.0000
vn 0.0000 -0.9952 0.0980
vn 0.0000 0.0980 0.9952
vn 0.0000 0.9952 0.0980
vn 0.0000 0.9239 0.3827
vn -1.0000 0.0000 0.0000
vn 0.7139 -0.6469 -0.2680
vn 0.7088 -0.7020 -0.0691
vn -0.7088 -0.7020 -0.0691
vn -0.7139 -0.6469 -0.2680
vn 0.7139 -0.4951 -0.4951
vn -0.7139 -0.4951 -0.4951
vn 0.7139 -0.2680 -0.6469
vn -0.7139 -0.2680 -0.6469
vn 0.7088 -0.0691 -0.7020
vn -0.7088 -0.0691 -0.7020
vn -0.7139 0.6469 -0.2680
vn -0.7088 0.7020 -0.0691
vn 0.7088 0.7020 -0.0691
vn 0.7139 0.6469 -0.2680
vn -0.7139 0.4951 -0.4951
vn 0.7139 0.4951 -0.4951
vn -0.7139 0.2680 -0.6469
vn 0.7139 0.2680 -0.6469
vn -0.7088 0.0691 -0.7020
vn 0.7088 0.0691 -0.7020
vn -0.7139 -0.6469 0.2680
vn -0.7088 -0.7020 0.0691
vn 0.7088 -0.7020 0.0691
vn 0.7139 -0.6469 0.2680
vn -0.7139 -0.4951 0.4951
vn 0.7139 -0.4951 0.4951
vn -0.7139 -0.2680 0.6469
vn 0.7139 -0.2680 0.6469
vn -0.7088 -0.0691 0.7020
vn 0.7088 -0.0691 0.7020
vn 0.7139 0.6469 0.2680
vn 0.7088 0.7020 0.0691
vn -0.7088 0.7020 0.0691
vn -0.7139 0.6469 0.2680
vn 0.7139 0.4951 0.4951
vn -0.7139 0.4951 0.4951
vn 0.7139 0.2680 0.6469
vn -0.7139 0.2680 0.6469
vn 0.7088 0.0691 0.7020
vn -0.7088 0.0691 0.7020
vn -0.0000 -0.9841 -0.1779
vn 0.4270 -0.8866 -0.1779
vn 0.7694 -0.6135 -0.1779
vn 0.9594 -0.2190 -0.1779
vn 0.9594 0.2190 -0.1779
vn 0.7694 0.6135 -0.1779
vn 0.4270 0.8866 -0.1779
vn -0.0000 0.9841 -0.1779
vn -0.4270 0.8866 -0.1779
vn -0.7694 0.6135 -0.1779
vn -0.7694 0.6136 -0.1779
vn -0.9594 0.2190 -0.1779
vn -0.9594 -0.2190 -0.1779
vn -0.7694 -0.6136 -0.1779
vn -0.0000 0.0000 -1.0000
vn -0.4270 -0.8866 -0.1779
vn 0.0000 0.0000 1.0000
vn -0.7694 -0.6135 -0.1779
usemtl Computer
s 1
f 6/1/1 50/2/1 48/3/2 8/4/2
f 58/5/3 18/6/3 16/7/4 60/8/4
f 10/9/5 46/10/5 42/11/6 4/12/6
f 62/13/7 24/14/7 30/15/8 66/16/8
f 68/17/9 28/18/9 26/19/10 70/20/10
f 32/21/11 74/22/11 80/23/12 36/24/12
f 66/16/8 30/15/8 28/25/9 68/26/9
f 22/27/13 34/28/14 72/29/14 64/30/13
f 40/31/15 76/32/15 72/29/14 34/28/14
f 38/33/16 78/34/16 76/32/15 40/31/15
f 61/35/17 65/36/17 67/37/17 69/38/17 63/39/17 71/40/17 75/41/17 77/42/17 79/43/17 73/44/17 51/45/17 55/46/17 57/47/17 59/48/17 53/49/17 41/50/17 45/51/17 47/52/17 49/53/17 43/54/17
f 36/24/12 80/23/12 78/55/16 38/56/16
f 24/14/7 62/13/7 44/57/18 2/58/18
f 8/59/2 48/60/2 46/10/5 10/9/5
f 60/8/4 16/7/4 12/61/19 54/62/19
f 42/11/6 54/62/19 12/61/19 4/12/6
f 74/22/11 32/21/11 14/63/20 52/64/20
f 70/20/10 26/19/10 22/27/13 64/30/13
f 56/65/21 20/66/21 18/67/3 58/68/3
f 52/64/20 14/63/20 20/66/21 56/65/21
f 1/69/22 5/70/22 7/71/22 9/72/22 3/73/22 11/74/22 15/75/22 17/76/22 19/77/22 13/78/22 31/79/22 35/80/22 37/81/22 39/82/22 33/83/22 21/84/22 25/85/22 27/86/22 29/87/22 23/88/22
f 65/36/23 61/35/24 62/89/24 66/90/23
f 23/88/25 29/87/26 30/91/26 24/92/25
f 67/37/27 65/36/23 66/90/23 68/93/27
f 29/87/26 27/86/28 28/94/28 30/91/26
f 69/38/29 67/37/27 68/93/27 70/95/29
f 27/86/28 25/85/30 26/96/30 28/94/28
f 63/39/31 69/38/29 70/95/29 64/97/31
f 25/85/30 21/84/32 22/98/32 26/96/30
f 35/80/33 31/79/34 32/99/34 36/100/33
f 73/44/35 79/43/36 80/101/36 74/102/35
f 37/81/37 35/80/33 36/100/33 38/103/37
f 79/43/36 77/42/38 78/104/38 80/101/36
f 39/82/39 37/81/37 38/103/37 40/105/39
f 77/42/38 75/41/40 76/106/40 78/104/38
f 33/83/41 39/82/39 40/105/39 34/107/41
f 75/41/40 71/40/42 72/108/42 76/106/40
f 5/70/43 1/69/44 2/109/44 6/110/43
f 43/54/45 49/53/46 50/111/46 44/112/45
f 7/71/47 5/70/43 6/110/43 8/113/47
f 49/53/46 47/52/48 48/114/48 50/111/46
f 9/72/49 7/71/47 8/113/47 10/115/49
f 47/52/48 45/51/50 46/116/50 48/114/48
f 3/73/51 9/72/49 10/115/49 4/117/51
f 45/51/50 41/50/52 42/118/52 46/116/50
f 55/46/53 51/45/54 52/119/54 56/120/53
f 13/78/55 19/77/56 20/121/56 14/122/55
f 57/47/57 55/46/53 56/120/53 58/123/57
f 19/77/56 17/76/58 18/124/58 20/121/56
f 59/48/59 57/47/57 58/123/57 60/125/59
f 17/76/58 15/75/60 16/126/60 18/124/58
f 53/49/61 59/48/59 60/125/59 54/127/61
f 15/75/60 11/74/62 12/128/62 16/126/60
f 1/69/44 23/88/25 24/92/25 2/109/44
f 61/35/24 43/54/45 44/112/45 62/89/24
f 4/117/51 12/128/62 11/74/62 3/73/51
f 14/122/55 32/99/34 31/79/34 13/78/55
f 34/107/41 22/98/32 21/84/32 33/83/41
f 41/50/52 53/49/61 54/127/61 42/118/52
f 51/45/54 73/44/35 74/102/35 52/119/54
f 71/40/42 63/39/31 64/97/31 72/108/42
f 2/58/18 44/57/18 50/2/1 6/1/1
f 81/129/63 82/130/63 84/131/64 83/132/64
f 83/132/64 84/131/64 86/133/65 85/134/65
f 85/135/65 86/136/65 88/137/66 87/138/66
f 87/138/66 88/137/66 90/139/67 89/140/67
f 89/140/67 90/139/67 92/141/68 91/142/68
f 91/143/68 92/144/68 94/145/69 93/146/69
f 93/146/69 94/145/69 96/147/70 95/148/70
f 95/148/70 96/147/70 98/149/71 97/150/71
f 97/150/71 98/149/71 100/151/72 99/152/73
f 99/153/73 100/154/72 102/155/74 101/156/74
f 101/156/74 102/155/74 104/157/75 103/158/75
f 103/158/75 104/157/75 106/159/76 105/160/76
f 84/161/77 82/162/77 108/163/77 106/164/77 104/165/77 102/166/77 100/167/77 98/168/77 96/169/77 94/170/77 92/171/77 90/172/77 88/173/77 86/174/77
f 105/175/76 106/176/76 108/177/78 107/178/78
f 107/178/78 108/177/78 82/130/63 81/129/63
f 81/179/79 83/180/79 85/181/79 87/182/79 89/183/79 91/184/79 93/185/79 95/186/79 97/187/79 99/188/79 101/189/79 103/190/79 105/191/79 107/192/79
f 109/193/63 110/194/63 112/195/64 111/196/64
f 111/196/64 112/195/64 114/197/65 113/198/65
f 113/199/65 114/200/65 116/201/66 115/202/66
f 115/202/66 116/201/66 118/203/67 117/204/67
f 117/204/67 118/203/67 120/205/68 119/206/68
f 119/207/68 120/208/68 122/209/69 121/210/69
f 121/210/69 122/209/69 124/211/70 123/212/70
f 123/212/70 124/211/70 126/213/71 125/214/71
f 125/214/71 126/213/71 128/215/72 127/216/72
f 127/217/72 128/218/72 130/219/74 129/220/74
f 129/220/74 130/219/74 132/221/75 131/222/75
f 131/222/75 132/221/75 134/223/76 133/224/76
f 112/225/77 110/226/77 136/227/77 134/228/77 132/229/77 130/230/77 128/231/77 126/232/77 124/233/77 122/234/77 120/235/77 118/236/77 116/237/77 114/238/77
f 133/239/76 134/240/76 136/241/78 135/242/78
f 135/242/78 136/241/78 110/194/63 109/193/63
f 109/243/79 111/244/79 113/245/79 115/246/79 117/247/79 119/248/79 121/249/79 123/250/79 125/251/79 127/252/79 129/253/79 131/254/79 133/255/79 135/256/79
f 137/257/63 138/258/63 140/259/64 139/260/64
f 139/260/64 140/259/64 142/261/65 141/262/65
f 141/263/65 142/264/65 144/265/66 143/266/66
f 143/266/66 144/265/66 146/267/67 145/268/67
f 145/268/67 146/267/67 148/269/68 147/270/68
f 147/271/68 148/272/68 150/273/69 149/274/69
f 149/274/69 150/273/69 152/275/70 151/276/70
f 151/276/70 152/275/70 154/277/71 153/278/71
f 153/278/71 154/277/71 156/279/72 155/280/72
f 155/281/72 156/282/72 158/283/74 157/284/74
f 157/284/74 158/283/74 160/285/75 159/286/75
f 159/286/75 160/285/75 162/287/76 161/288/76
f 140/289/77 138/290/77 164/291/77 162/292/77 160/293/77 158/294/77 156/295/77 154/296/77 152/297/77 150/298/77 148/299/77 146/300/77 144/301/77 142/302/77
f 161/303/76 162/304/76 164/305/78 163/306/78
f 163/306/78 164/305/78 138/258/63 137/257/63
f 137/307/79 139/308/79 141/309/79 143/310/79 145/311/79 147/312/79 149/313/79 151/314/79 153/315/79 155/316/79 157/317/79 159/318/79 161/319/79 163/320/79
f 165/321/63 166/322/63 168/323/64 167/324/64
f 167/324/64 168/323/64 170/325/65 169/326/65
f 169/327/65 170/328/65 172/329/66 171/330/66
f 171/330/66 172/329/66 174/331/67 173/332/67
f 173/332/67 174/331/67 176/333/68 175/334/68
f 175/335/68 176/336/68 178/337/69 177/338/69
f 177/338/69 178/337/69 180/339/70 179/340/70
f 179/340/70 180/339/70 182/341/71 181/342/71
f 181/342/71 182/341/71 184/343/72 183/344/72
f 183/345/72 184/346/72 186/347/74 185/348/74
f 185/348/74 186/347/74 188/349/75 187/350/75
f 187/350/75 188/349/75 190/351/80 189/352/80
f 168/353/77 166/354/77 192/355/77 190/356/77 188/357/77 186/358/77 184/359/77 182/360/77 180/361/77 178/362/77 176/363/77 174/364/77 172/365/77 170/366/77
f 189/367/80 190/368/80 192/369/78 191/370/78
f 191/370/78 192/369/78 166/322/63 165/321/63
f 165/371/79 167/372/79 169/373/79 171/374/79 173/375/79 175/376/79 177/377/79 179/378/79 181/379/79 183/380/79 185/381/79 187/382/79 189/383/79 191/384/79
