# Blender v3.6.23 OBJ File: 'Keyboard.blend'
# www.blender.org
mtllib Keyboard.mtl
o Keyboard_Plane
v -2.462889 0.066854 -0.691979
v -2.462889 0.066854 0.691979
v 2.462889 0.066854 0.691979
v 2.462889 0.066854 -0.691979
v -2.418095 0.000000 0.724631
v -2.500001 0.000000 0.642724
v -2.449439 0.000000 0.718396
v -2.476012 0.000000 0.700641
v -2.493767 0.000000 0.674068
v 2.500001 0.000000 0.642724
v 2.418095 0.000000 0.724631
v 2.493767 0.000000 0.674068
v 2.476012 0.000000 0.700641
v 2.449439 0.000000 0.718396
v -2.500001 0.000000 -0.642724
v -2.418095 0.000000 -0.724631
v -2.493767 0.000000 -0.674068
v -2.476012 0.000000 -0.700641
v -2.449439 0.000000 -0.718396
v 2.418095 0.000000 -0.724631
v 2.500001 0.000000 -0.642724
v 2.449439 0.000000 -0.718396
v 2.476012 0.000000 -0.700641
v 2.493767 0.000000 -0.674068
v -2.462927 0.066854 -0.692012
v -2.462927 0.066854 0.692012
v 2.462927 0.066854 0.692012
v 2.462927 0.066854 -0.692012
v -2.426132 0.066854 -0.718783
v -2.493664 0.066854 -0.651149
v -2.451894 0.066854 -0.713594
v -2.473620 0.066854 -0.699064
v -2.488373 0.066854 -0.677206
v -2.493664 0.066854 0.651149
v -2.426132 0.066854 0.718783
v -2.488373 0.066854 0.677206
v -2.473620 0.066854 0.699064
v -2.451894 0.066854 0.713594
v 2.426132 0.066854 0.718783
v 2.493664 0.066854 0.651149
v 2.451894 0.066854 0.713594
v 2.473620 0.066854 0.699064
v 2.488373 0.066854 0.677206
v 2.493664 0.066854 -0.651149
v 2.426132 0.066854 -0.718783
v 2.488373 0.066854 -0.677206
v 2.473620 0.066854 -0.699064
v 2.451894 0.066854 -0.713594
v -2.421719 0.062139 -0.721994
v -2.418095 0.053934 -0.724631
v -2.500001 0.053934 -0.642724
v -2.497143 0.062141 -0.646524
v -2.449439 0.053934 -0.718396
v -2.450547 0.062140 -0.716230
v -2.476012 0.053934 -0.700641
v -2.474933 0.062142 -0.699929
v -2.493767 0.053934 -0.674068
v -2.491333 0.062141 -0.675484
v -2.497143 0.062141 0.646524
v -2.500001 0.053934 0.642724
v -2.418095 0.053934 0.724631
v -2.421719 0.062139 0.721994
v -2.493767 0.053934 0.674068
v -2.491333 0.062141 0.675484
v -2.476012 0.053934 0.700641
v -2.474933 0.062142 0.699929
v -2.449439 0.053934 0.718396
v -2.450547 0.062140 0.716230
v 2.421719 0.062139 0.721994
v 2.418095 0.053934 0.724631
v 2.500001 0.053934 0.642724
v 2.497143 0.062141 0.646524
v 2.449439 0.053934 0.718396
v 2.450547 0.062140 0.716230
v 2.476012 0.053934 0.700641
v 2.474933 0.062142 0.699929
v 2.493767 0.053934 0.674068
v 2.491333 0.062141 0.675484
v 2.497143 0.062141 -0.646524
v 2.500001 0.053934 -0.642724
v 2.418095 0.053934 -0.724631
v 2.421719 0.062139 -0.721994
v 2.493767 0.053934 -0.674068
v 2.491333 0.062141 -0.675484
v 2.476012 0.053934 -0.700641
v 2.474933 0.062142 -0.699929
v 2.449439 0.053934 -0.718396
v 2.450547 0.062140 -0.716230
v 0.799071 0.066854 0.691979
v 0.799071 0.066854 -0.691979
v -2.462889 0.066854 -0.433437
v 2.462889 0.066854 -0.433437
v 0.799071 0.066854 -0.433437
v 0.852496 0.066854 0.691979
v 0.852496 0.066854 -0.691979
v 0.852496 0.066854 -0.433437
v 1.489784 0.066854 0.691979
v 1.489784 0.066854 -0.691979
v 1.489784 0.066854 -0.433437
v 1.546802 0.066854 0.691979
v 1.546802 0.066854 -0.691979
v 1.546802 0.066854 -0.433437
v 2.405634 0.066854 0.691979
v 2.405634 0.066854 -0.691979
v 2.405634 0.066854 -0.433437
v -2.462889 0.066854 0.638750
v 2.462889 0.066854 0.638750
v 0.799071 0.066854 0.638750
v 0.852496 0.066854 0.638750
v 1.489784 0.066854 0.638750
v 1.546802 0.066854 0.638750
v 2.405634 0.066854 0.638750
v -2.402060 0.066854 -0.691979
v -2.402060 0.066854 0.691979
v -2.402060 0.066854 -0.433437
v -2.402060 0.066854 0.638750
v 2.462889 0.066854 -0.642552
v 0.799071 0.066854 -0.642552
v -2.462889 0.066854 -0.642552
v 0.852496 0.066854 -0.642552
v 1.489784 0.066854 -0.642552
v 1.546802 0.066854 -0.642552
v 2.405634 0.066854 -0.642552
v -2.402060 0.066854 -0.642552
v -2.462889 0.066854 -0.487652
v 2.462889 0.066854 -0.487652
v 0.799071 0.066854 -0.487652
v 0.852496 0.066854 -0.487652
v 1.489784 0.066854 -0.487652
v 1.546802 0.066854 -0.487652
v 2.405634 0.066854 -0.487652
v -2.402060 0.066854 -0.487652
v -1.018198 0.066854 0.691979
v -1.018198 0.066854 -0.691979
v -1.018198 0.066854 -0.433437
v -1.018198 0.066854 0.638750
v -1.018198 0.066854 -0.642552
v -1.018198 0.066854 -0.487652
v -1.120847 0.066854 -0.691979
v -1.120847 0.066854 -0.433437
v -1.120847 0.066854 0.638750
v -1.120847 0.066854 -0.642552
v -1.120847 0.066854 -0.487652
v -1.120847 0.066854 0.691979
v -1.982616 0.066854 -0.691979
v -1.982616 0.066854 -0.433437
v -1.982616 0.066854 0.638750
v -1.982616 0.066854 -0.642552
v -1.982616 0.066854 -0.487652
v -1.982616 0.066854 0.691979
v -2.184712 0.066854 -0.691979
v -2.184712 0.066854 -0.433437
v -2.184712 0.066854 0.638750
v -2.184712 0.066854 -0.642552
v -2.184712 0.066854 -0.487652
v -2.184712 0.066854 0.691979
v -0.166591 0.066854 0.691979
v -0.166591 0.066854 -0.691979
v -0.166591 0.066854 -0.433437
v -0.166591 0.066854 0.638750
v -0.166591 0.066854 -0.642552
v -0.166591 0.066854 -0.487652
v -0.060140 0.066854 0.691979
v -0.060140 0.066854 -0.691979
v -0.060140 0.066854 -0.433437
v -0.060140 0.066854 0.638750
v -0.060140 0.066854 -0.642552
v -0.060140 0.066854 -0.487652
v -0.060140 0.073933 0.209750
v -0.166591 0.073933 0.209750
v -2.184712 0.073933 0.209750
v -1.982616 0.073933 0.209750
v -1.120847 0.073933 0.209750
v -1.018198 0.073933 0.209750
v -2.402060 0.073933 0.209750
v 2.405634 0.073933 0.209750
v 1.546802 0.073933 0.209750
v 0.799071 0.073933 0.209750
v 1.546802 0.073933 0.638750
v 2.405634 0.073933 0.638750
v -2.402060 0.073933 0.424250
v 1.489784 0.073933 0.638750
v -2.184712 0.073933 0.424250
v 1.546802 0.073933 0.424250
v 2.405634 0.073933 0.424250
v 1.489784 0.073933 0.424250
v 0.852496 0.073933 0.424250
v 0.799071 0.073933 0.424250
v -1.018198 0.073933 0.424250
v -1.982616 0.073933 0.424250
v -2.402060 0.066854 0.424250
v 2.405634 0.066854 0.424250
v 1.546802 0.066854 0.424250
v 1.489784 0.066854 0.424250
v 0.852496 0.066854 0.424250
v 0.799071 0.066854 0.424250
v 2.462889 0.066854 0.424250
v -2.462889 0.066854 0.424250
v 1.064926 0.066854 0.424250
v 1.277355 0.066854 0.424250
v 1.064926 0.066854 -0.003484
v 1.277355 0.066854 -0.003484
v -1.120847 0.073933 0.424250
v -0.166591 0.073933 0.424250
v -0.060140 0.073933 0.424250
v -0.060140 0.073933 -0.003484
v -0.166591 0.073933 -0.003484
v -2.184712 0.073933 -0.003484
v -1.982616 0.073933 -0.003484
v -1.120847 0.073933 -0.003484
v -1.018198 0.073933 -0.003484
v -2.402060 0.073933 -0.003484
v 1.064926 0.073933 0.424250
v 1.064926 0.066854 0.209750
v 1.277355 0.066854 0.209750
v 1.064926 0.066854 -0.487652
v 1.277355 0.066854 -0.487652
v 1.064926 0.066854 -0.642552
v 1.277355 0.066854 -0.642552
v 1.064926 0.066854 0.638750
v 1.277355 0.066854 0.638750
v 1.277355 0.066854 0.691979
v 1.064926 0.066854 0.691979
v 1.064926 0.066854 -0.433437
v 1.277355 0.066854 -0.433437
v 1.064926 0.066854 -0.691979
v 1.277355 0.066854 -0.691979
v 2.405634 0.073933 -0.433437
v 2.405634 0.073933 -0.003484
v 1.546802 0.073933 -0.433437
v 1.546802 0.073933 -0.003484
v 1.489784 0.073933 -0.433437
v 0.852496 0.073933 -0.003484
v 0.799071 0.073933 -0.003484
v 0.852496 0.073933 0.638750
v 1.064926 0.073933 0.638750
v 0.852496 0.073933 -0.433437
v 0.799071 0.073933 0.638750
v 2.462889 0.066854 0.209750
v 0.799071 0.066854 0.209750
v 0.852496 0.066854 0.209750
v 1.489784 0.066854 0.209750
v 1.546802 0.066854 0.209750
v 2.405634 0.066854 0.209750
v -2.402060 0.066854 0.209750
v 0.799071 0.073933 -0.433437
v 1.489784 0.073933 -0.003484
v -0.060140 0.073933 -0.642552
v -0.060140 0.073933 -0.487652
v -0.166591 0.073933 -0.642552
v -0.166591 0.073933 -0.487652
v -0.166591 0.073933 0.638750
v -0.060140 0.073933 0.638750
v -0.166591 0.073933 -0.433437
v -0.060140 0.073933 -0.433437
v -1.982616 0.073933 0.638750
v -2.462889 0.066854 0.209750
v -1.982616 0.073933 -0.433437
v -1.982616 0.073933 -0.642552
v -1.982616 0.073933 -0.487652
v -1.120847 0.073933 -0.642552
v -1.120847 0.073933 -0.487652
v 1.064926 0.073933 -0.433437
v 1.064926 0.073933 -0.003484
v -1.120847 0.073933 0.638750
v -1.018198 0.073933 0.638750
v -1.120847 0.073933 -0.433437
v -1.018198 0.073933 -0.433437
v 1.277355 0.073933 -0.433437
v 1.277355 0.073933 -0.003484
v -1.018198 0.073933 -0.642552
v -1.018198 0.073933 -0.487652
v -2.184712 0.073933 -0.487652
v -2.184712 0.073933 -0.642552
v -2.402060 0.073933 -0.642552
v -2.402060 0.073933 -0.487652
v 1.489784 0.073933 -0.642552
v 1.489784 0.073933 -0.487652
v 0.852496 0.073933 -0.642552
v 0.852496 0.073933 -0.487652
v 0.799071 0.073933 -0.642552
v 0.799071 0.073933 -0.487652
v 1.277355 0.073933 0.638750
v 1.277355 0.073933 0.424250
v 2.462889 0.066854 -0.003484
v 0.799071 0.066854 -0.003484
v 0.852496 0.066854 -0.003484
v 1.489784 0.066854 -0.003484
v 1.546802 0.066854 -0.003484
v 2.405634 0.066854 -0.003484
v -2.402060 0.066854 -0.003484
v -2.402060 0.073933 0.638750
v -2.184712 0.073933 0.638750
v -2.402060 0.073933 -0.433437
v -2.184712 0.073933 -0.433437
v 1.064926 0.073933 0.209750
v 1.277355 0.073933 0.209750
v 1.064926 0.073933 -0.642552
v 1.064926 0.073933 -0.487652
v 1.277355 0.073933 -0.642552
v 1.277355 0.073933 -0.487652
v -2.462889 0.066854 -0.003484
vt 0.009018 0.537039
vt 0.016333 0.528318
vt 0.983662 0.528318
vt 0.990976 0.537039
vt 0.990969 0.537050
vt 0.979555 0.537050
vt 0.808349 0.537050
vt 0.796983 0.537050
vt 0.754635 0.537050
vt 0.712288 0.537050
vt 0.669940 0.537050
vt 0.659290 0.537050
vt 0.488008 0.537050
vt 0.466787 0.537050
vt 0.297021 0.537050
vt 0.276558 0.537050
vt 0.104767 0.537050
vt 0.064479 0.537050
vt 0.021151 0.537050
vt 0.009025 0.537050
vt 0.006631 0.990524
vt 0.003370 0.982560
vt 0.003959 0.983122
vt 0.006892 0.990243
vt 0.997087 0.550352
vt 0.997087 0.974632
vt 0.990976 0.987945
vt 0.990969 0.987934
vt 0.990969 0.971831
vt 0.990969 0.921366
vt 0.990969 0.903703
vt 0.990969 0.763627
vt 0.990969 0.694157
vt 0.990969 0.624274
vt 0.990969 0.554392
vt 0.983662 0.996667
vt 0.016333 0.996667
vt 0.009018 0.987945
vt 0.009025 0.987934
vt 0.021151 0.987934
vt 0.064479 0.987934
vt 0.104767 0.987934
vt 0.276558 0.987934
vt 0.297021 0.987934
vt 0.466787 0.987934
vt 0.488008 0.987934
vt 0.659290 0.987934
vt 0.669940 0.987934
vt 0.712288 0.987934
vt 0.754635 0.987934
vt 0.796983 0.987934
vt 0.808349 0.987934
vt 0.979555 0.987934
vt 0.020180 0.517348
vt 0.013892 0.515298
vt 0.008560 0.509460
vt 0.004998 0.500724
vt 0.003747 0.490418
vt 0.003747 0.067782
vt 0.004998 0.057476
vt 0.008560 0.048739
vt 0.013892 0.042902
vt 0.020180 0.040852
vt 0.980176 0.040852
vt 0.986464 0.042902
vt 0.991796 0.048739
vt 0.995358 0.057476
vt 0.996609 0.067782
vt 0.996609 0.490418
vt 0.995358 0.500724
vt 0.991796 0.509460
vt 0.986464 0.515298
vt 0.980176 0.517348
vt 0.979555 0.971831
vt 0.011479 0.995835
vt 0.011211 0.994976
vt 0.006631 0.534460
vt 0.011479 0.529149
vt 0.011211 0.530008
vt 0.006892 0.534742
vt 0.993363 0.534460
vt 0.996624 0.542424
vt 0.996035 0.541863
vt 0.993102 0.534742
vt 0.002215 0.973126
vt 0.002907 0.974632
vt 0.002215 0.551859
vt 0.003370 0.542424
vt 0.003959 0.541863
vt 0.002907 0.550352
vt 1.195439 0.004888
vt 1.195439 0.029122
vt 1.193730 0.029122
vt 1.193730 0.004888
vt 0.017210 0.527271
vt 0.982784 0.527271
vt 0.988515 0.529149
vt 0.988783 0.530008
vt 1.181576 0.029122
vt 1.181576 0.004888
vt 1.172982 0.004888
vt 1.172982 0.029122
vt 0.997779 0.551859
vt 0.997779 0.973126
vt 0.996624 0.982560
vt 0.996035 0.983122
vt -0.175482 0.004888
vt -0.175482 0.029122
vt -0.173773 0.029122
vt -0.173773 0.004888
vt 0.988515 0.995835
vt 0.982784 0.997713
vt 0.988783 0.994976
vt 0.993363 0.990524
vt 0.993102 0.990243
vt 1.181576 0.004888
vt 1.181576 0.029122
vt 1.172982 0.029122
vt 1.172982 0.004888
vt 0.009025 0.554392
vt 0.009025 0.624274
vt 0.009025 0.694157
vt 0.009025 0.763627
vt 0.009025 0.903703
vt 0.009025 0.921366
vt 0.009025 0.971831
vt -0.153025 0.004888
vt -0.153025 0.029122
vt 1.188861 0.004888
vt 1.188861 0.029122
vt 1.195439 0.029122
vt 1.195439 0.004888
vt 1.193730 0.004888
vt 1.193730 0.029122
vt 1.188861 0.004888
vt 1.188861 0.029122
vt -0.161619 0.004888
vt -0.161619 0.029122
vt -0.153025 0.029122
vt -0.153025 0.004888
vt -0.168905 0.004888
vt -0.168905 0.029122
vt -0.175482 0.029122
vt -0.175482 0.004888
vt -0.173773 0.004888
vt -0.173773 0.029122
vt -0.168905 0.004888
vt -0.168905 0.029122
vt -0.161619 0.004888
vt -0.161619 0.029122
vt 1.172982 0.102532
vt -0.153025 0.102532
vt -0.153025 0.126766
vt 1.172982 0.126766
vt 0.017210 0.997713
vt 0.017930 0.998572
vt 0.011699 0.996541
vt 0.006416 0.990756
vt 0.002886 0.982099
vt 0.001647 0.971887
vt 0.001647 0.553097
vt 0.002886 0.542885
vt 0.006416 0.534228
vt 0.011699 0.528444
vt 0.017930 0.526412
vt 0.982064 0.526412
vt 0.988295 0.528444
vt 0.993578 0.534228
vt 0.997108 0.542885
vt 0.998347 0.553097
vt 0.998347 0.971887
vt 0.997108 0.982099
vt 0.993578 0.990756
vt 0.988295 0.996541
vt 0.982064 0.998572
vt 0.979555 0.694157
vt 0.979555 0.624274
vt 0.979555 0.763627
vt 0.979555 0.903703
vt 0.659290 0.971831
vt 0.669940 0.971831
vt 0.979555 0.694157
vt 0.979555 0.624274
vt 0.712288 0.921366
vt 0.754635 0.921366
vt 0.754635 0.921366
vt 0.712288 0.921366
vt 0.659290 0.763627
vt 0.669940 0.763627
vt 0.669940 0.903703
vt 0.659290 0.903703
vt 0.796983 0.971831
vt 0.808349 0.971831
vt 0.796983 0.921366
vt 0.796983 0.971831
vt 0.754635 0.971831
vt 0.104767 0.554392
vt 0.104767 0.624274
vt 0.064479 0.624274
vt 0.064479 0.554392
vt 0.276558 0.554392
vt 0.276558 0.624274
vt 0.808349 0.554392
vt 0.796983 0.554392
vt 0.021151 0.694157
vt 0.021151 0.624274
vt 0.021151 0.624274
vt 0.021151 0.694157
vt 0.669940 0.554392
vt 0.659290 0.554392
vt 0.979555 0.554392
vt 0.021151 0.554392
vt 0.796983 0.763627
vt 0.808349 0.763627
vt 0.808349 0.903703
vt 0.796983 0.903703
vt 0.021151 0.971831
vt 0.021151 0.921366
vt 0.712288 0.554392
vt 0.712288 0.624274
vt 0.669940 0.624274
vt 0.669940 0.554392
vt 0.796983 0.921366
vt 0.808349 0.921366
vt 0.021151 0.554392
vt 0.659290 0.921366
vt 0.669940 0.921366
vt 0.979555 0.921366
vt 0.297021 0.624274
vt 0.297021 0.694157
vt 0.276558 0.694157
vt 0.021151 0.903703
vt 0.276558 0.903703
vt 0.297021 0.903703
vt 0.297021 0.921366
vt 0.276558 0.921366
vt 0.297021 0.971831
vt 0.276558 0.971831
vt 0.297021 0.554392
vt 0.276558 0.554392
vt 0.021151 0.763628
vt 0.064479 0.903703
vt 0.104767 0.903703
vt 0.104767 0.921366
vt 0.064479 0.921366
vt 0.104767 0.971831
vt 0.064479 0.971831
vt 0.104767 0.554392
vt 0.064479 0.554392
vt 0.712288 0.763627
vt 0.712288 0.763627
vt 0.669940 0.763627
vt 0.659290 0.694157
vt 0.659290 0.763627
vt 0.659290 0.694157
vt 0.669940 0.921366
vt 0.466787 0.903703
vt 0.488008 0.903703
vt 0.488008 0.921366
vt 0.466787 0.921366
vt 0.488008 0.971831
vt 0.466787 0.971831
vt 0.488008 0.554392
vt 0.466787 0.554392
vt 0.659290 0.921366
vt 0.488008 0.921366
vt 0.021151 0.903703
vt 0.064479 0.903703
vt 0.712288 0.971831
vt 0.669940 0.971831
vt 0.712288 0.971831
vt 0.796983 0.624274
vt 0.754635 0.624274
vt 0.754635 0.624274
vt 0.796983 0.624274
vt 0.064479 0.971831
vt 0.064479 0.921366
vt 0.488008 0.971831
vt 0.659290 0.971831
vt 0.754635 0.903703
vt 0.712288 0.554392
vt 0.754635 0.554392
vt 0.754635 0.971831
vt 0.104767 0.921366
vt 0.104767 0.971831
vt 0.712288 0.624274
vt 0.669940 0.624274
vt 0.754635 0.694157
vt 0.712288 0.694157
vt 0.712288 0.694157
vt 0.754635 0.694157
vt 0.808349 0.624274
vt 0.466787 0.971831
vt 0.466787 0.921366
vt 0.297021 0.903703
vt 0.466787 0.903703
vt 0.297021 0.554392
vt 0.808349 0.694157
vt 0.808349 0.624274
vt 0.808349 0.694157
vt 0.659290 0.554392
vt 0.488008 0.554392
vt 0.276558 0.971831
vt 0.466787 0.554392
vt 0.276558 0.903703
vt 0.754635 0.763627
vt 0.796983 0.763627
vt 0.754635 0.763627
vt 0.754635 0.903703
vt 0.796983 0.903703
vt 0.659290 0.624274
vt 0.659290 0.624274
vt 0.712288 0.903703
vt 0.669940 0.903703
vt 0.712288 0.903703
vt 0.488008 0.624274
vt 0.488008 0.694157
vt 0.466787 0.694157
vt 0.466787 0.624274
vt 0.021151 0.763628
vt 0.808349 0.903703
vt 0.979555 0.903703
vt 0.669940 0.694157
vt 0.796983 0.694157
vt 0.488008 0.763627
vt 0.021151 0.971831
vt 0.488008 0.903703
vt 0.659290 0.903703
vt 0.808349 0.763627
vt 0.979555 0.763627
vt 0.297021 0.921366
vt 0.796983 0.554392
vt 0.021151 0.921366
vt 0.104767 0.903703
vt 0.276558 0.921366
vt 0.754635 0.554392
vt 0.297021 0.971831
vt 0.466787 0.763627
vt 0.297021 0.763627
vt 0.276558 0.763627
vt 0.064479 0.694157
vt 0.064479 0.763627
vt 0.104767 0.694157
vt 0.104767 0.763627
vt 0.808349 0.554392
vt 0.979555 0.554392
vn 0.0000 1.0000 0.0000
vn -0.6891 0.2272 -0.6881
vn -0.8812 0.3084 -0.3584
vn -0.8308 0.3742 -0.4120
vn -0.6666 0.3063 -0.6796
vn 0.0000 -1.0000 0.0000
vn -0.3605 0.2857 -0.8879
vn -0.4057 0.3542 -0.8426
vn -0.6891 0.2272 0.6881
vn -0.3605 0.2857 0.8879
vn -0.4057 0.3542 0.8426
vn -0.6666 0.3063 0.6796
vn 0.6891 0.2272 0.6881
vn 0.8812 0.3084 0.3584
vn 0.8308 0.3742 0.4120
vn 0.6666 0.3063 0.6796
vn -0.9021 0.4230 -0.0859
vn -0.8515 0.5088 -0.1265
vn -0.9021 0.4230 0.0859
vn -0.8812 0.3084 0.3584
vn -0.8308 0.3742 0.4120
vn -0.8515 0.5088 0.1265
vn -0.9952 0.0000 -0.0980
vn -0.9850 0.1508 -0.0842
vn -0.9244 0.1048 -0.3668
vn -0.9239 0.0000 -0.3827
vn -0.0863 0.3954 0.9145
vn -0.1277 0.4759 0.8702
vn 0.0863 0.3954 0.9145
vn 0.3605 0.2857 0.8879
vn 0.4057 0.3542 0.8426
vn 0.1277 0.4759 0.8702
vn -0.3692 0.0960 0.9244
vn -0.3827 0.0000 0.9239
vn -0.0980 0.0000 0.9952
vn -0.0847 0.1392 0.9866
vn 0.9021 0.4230 0.0859
vn 0.8515 0.5088 0.1265
vn 0.9021 0.4230 -0.0859
vn 0.8812 0.3084 -0.3584
vn 0.8308 0.3742 -0.4120
vn 0.8515 0.5088 -0.1265
vn 0.9952 0.0000 0.0980
vn 0.9850 0.1508 0.0842
vn 0.9244 0.1048 0.3668
vn 0.9239 0.0000 0.3827
vn 0.3605 0.2857 -0.8879
vn 0.0863 0.3954 -0.9145
vn 0.1277 0.4759 -0.8702
vn 0.4057 0.3542 -0.8426
vn 0.6891 0.2272 -0.6881
vn 0.6666 0.3063 -0.6796
vn -0.3827 0.0000 -0.9239
vn -0.3692 0.0960 -0.9244
vn -0.0847 0.1392 -0.9866
vn -0.0980 0.0000 -0.9952
vn 0.0980 0.0000 -0.9952
vn 0.0847 0.1392 -0.9866
vn -0.7071 0.0000 -0.7071
vn -0.7063 0.0748 -0.7039
vn -0.9850 0.1508 0.0842
vn -0.9952 0.0000 0.0980
vn -0.9239 0.0000 0.3827
vn -0.9244 0.1048 0.3668
vn -0.7071 0.0000 0.7071
vn -0.7063 0.0748 0.7039
vn 0.3827 0.0000 0.9239
vn 0.3692 0.0960 0.9244
vn 0.0847 0.1392 0.9866
vn 0.0980 0.0000 0.9952
vn 0.7071 0.0000 0.7071
vn 0.7063 0.0748 0.7039
vn 0.9850 0.1508 -0.0842
vn 0.9952 0.0000 -0.0980
vn 0.9239 0.0000 -0.3827
vn 0.9244 0.1048 -0.3668
vn 0.7071 0.0000 -0.7071
vn 0.7063 0.0748 -0.7039
vn 0.3827 0.0000 -0.9239
vn 0.3692 0.0960 -0.9244
vn -0.0863 0.3954 -0.9145
vn -0.1277 0.4759 -0.8702
vn 1.0000 0.0000 0.0000
vn 0.0000 0.0000 1.0000
vn -1.0000 0.0000 0.0000
vn 0.0000 0.0000 -1.0000
usemtl Keyboard
s 1
f 26/1/1 35/2/1 39/3/1 27/4/1 3/5/1 103/6/1 100/7/1 97/8/1 222/9/1 223/10/1 94/11/1 89/12/1 163/13/1 157/14/1 133/15/1 144/16/1 150/17/1 156/18/1 114/19/1 2/20/1
f 56/21/2 58/22/3 33/23/4 32/24/5
f 27/4/1 40/25/1 44/26/1 28/27/1 4/28/1 117/29/1 126/30/1 92/31/1 285/32/1 239/33/1 197/34/1 107/35/1 3/5/1
f 28/27/1 45/36/1 29/37/1 25/38/1 1/39/1 113/40/1 151/41/1 145/42/1 139/43/1 134/44/1 158/45/1 164/46/1 90/47/1 95/48/1 226/49/1 227/50/1 98/51/1 101/52/1 104/53/1 4/28/1
f 5/54/6 7/55/6 8/56/6 9/57/6 6/58/6 15/59/6 17/60/6 18/61/6 19/62/6 16/63/6 20/64/6 22/65/6 23/66/6 24/67/6 21/68/6 10/69/6 12/70/6 13/71/6 14/72/6 11/73/6
f 123/74/1 117/29/1 4/28/1 104/53/1
f 54/75/7 56/21/2 32/24/5 31/76/8
f 66/77/9 68/78/10 38/79/11 37/80/12
f 76/81/13 78/82/14 43/83/15 42/84/16
f 58/22/3 52/85/17 30/86/18 33/23/4
f 59/87/19 64/88/20 36/89/21 34/90/22
f 34/90/1 36/89/1 26/1/1
f 15/91/23 51/92/24 57/93/25 17/94/26
f 68/78/10 62/95/27 35/2/28 38/79/11
f 69/96/29 74/97/30 41/98/31 39/3/32
f 39/3/1 41/98/1 27/4/1
f 67/99/33 7/100/34 5/101/35 61/102/36
f 78/82/14 72/103/37 40/25/38 43/83/15
f 79/104/39 84/105/40 46/106/41 44/26/42
f 44/26/1 46/106/1 28/27/1
f 10/107/43 71/108/44 77/109/45 12/110/46
f 88/111/47 82/112/48 45/36/49 48/113/50
f 86/114/51 88/111/47 48/113/50 47/115/52
f 33/23/1 30/86/1 25/38/1
f 32/24/1 33/23/1 25/38/1
f 31/76/1 32/24/1 25/38/1
f 19/116/53 53/117/54 50/118/55 16/119/56
f 84/105/40 86/114/51 47/115/52 46/106/41
f 46/106/1 47/115/1 28/27/1
f 47/115/1 48/113/1 28/27/1
f 48/113/1 45/36/1 28/27/1
f 43/83/1 40/25/1 27/4/1
f 42/84/1 43/83/1 27/4/1
f 41/98/1 42/84/1 27/4/1
f 74/97/30 76/81/13 42/84/16 41/98/31
f 64/88/20 66/77/9 37/80/12 36/89/21
f 36/89/1 37/80/1 26/1/1
f 37/80/1 38/79/1 26/1/1
f 38/79/1 35/2/1 26/1/1
f 25/38/1 30/86/1 34/90/1 26/1/1 2/20/1 106/120/1 198/121/1 257/122/1 302/123/1 91/124/1 125/125/1 119/126/1 1/39/1
f 20/127/57 16/119/56 50/118/55 81/128/58
f 18/129/59 55/130/60 53/117/54 19/116/53
f 17/94/26 57/93/25 55/130/60 18/129/59
f 34/90/22 30/86/18 52/85/17 59/87/19
f 60/131/61 6/132/62 9/133/63 63/134/64
f 63/134/64 9/133/63 8/135/65 65/136/66
f 65/136/66 8/135/65 7/100/34 67/99/33
f 39/3/32 35/2/28 62/95/27 69/96/29
f 14/137/67 73/138/68 70/139/69 11/140/70
f 13/141/71 75/142/72 73/138/68 14/137/67
f 12/110/46 77/109/45 75/142/72 13/141/71
f 44/26/42 40/25/38 72/103/37 79/104/39
f 80/143/73 21/144/74 24/145/75 83/146/76
f 83/146/76 24/145/75 23/147/77 85/148/78
f 85/148/78 23/147/77 22/149/79 87/150/80
f 87/150/80 22/149/79 20/127/57 81/128/58
f 15/91/23 6/132/62 60/131/61 51/92/24
f 5/151/35 11/152/70 70/153/69 61/154/36
f 10/107/43 21/144/74 80/143/73 71/108/44
f 49/155/81 54/75/7 31/76/8 29/37/82
f 29/37/1 31/76/1 25/38/1
f 50/156/55 53/157/54 54/75/7 49/155/81
f 53/157/54 55/158/60 56/21/2 54/75/7
f 55/158/60 57/159/25 58/22/3 56/21/2
f 57/159/25 51/160/24 52/85/17 58/22/3
f 60/161/61 63/162/64 64/88/20 59/87/19
f 63/162/64 65/163/66 66/77/9 64/88/20
f 65/163/66 67/164/33 68/78/10 66/77/9
f 67/164/33 61/165/36 62/95/27 68/78/10
f 70/166/69 73/167/68 74/97/30 69/96/29
f 73/167/68 75/168/72 76/81/13 74/97/30
f 75/168/72 77/169/45 78/82/14 76/81/13
f 77/169/45 71/170/44 72/103/37 78/82/14
f 80/171/73 83/172/76 84/105/40 79/104/39
f 83/172/76 85/173/78 86/114/51 84/105/40
f 85/173/78 87/174/80 88/111/47 86/114/51
f 87/174/80 81/175/58 82/112/48 88/111/47
f 51/160/24 60/161/61 59/87/19 52/85/17
f 61/165/36 70/166/69 69/96/29 62/95/27
f 71/170/44 80/171/73 79/104/39 72/103/37
f 81/175/58 50/156/55 49/155/81 82/112/48
f 29/37/82 45/36/49 82/112/48 49/155/81
f 197/34/1 239/33/1 244/176/1 192/177/1
f 290/178/1 285/32/1 92/31/1 105/179/1
f 118/180/1 120/181/1 95/48/1 90/47/1
f 192/177/83 244/176/83 176/182/83 185/183/83
f 216/184/84 217/185/84 301/186/84 299/187/84
f 286/188/1 287/189/1 96/190/1 93/191/1
f 121/192/1 122/193/1 101/52/1 98/51/1
f 301/186/1 278/194/1 277/195/1 300/196/1
f 256/197/1 190/198/1 183/199/1 293/200/1
f 265/201/1 203/202/1 190/198/1 256/197/1
f 97/8/1 100/7/1 111/203/1 110/204/1
f 245/205/85 191/206/85 181/207/85 175/208/85
f 89/12/1 94/11/1 109/209/1 108/210/1
f 103/6/1 3/5/1 107/35/1 112/211/1
f 2/20/1 114/19/1 116/212/1 106/120/1
f 288/213/1 289/214/1 102/215/1 99/216/1
f 119/126/1 124/217/1 113/40/1 1/39/1
f 125/125/1 132/218/1 124/217/1 119/126/1
f 236/219/1 213/220/1 187/221/1 235/222/1
f 129/223/1 130/224/1 122/193/1 121/192/1
f 191/206/85 116/212/85 292/225/85 181/207/85
f 127/226/1 128/227/1 120/181/1 118/180/1
f 131/228/1 126/30/1 117/29/1 123/74/1
f 105/179/1 92/31/1 126/30/1 131/228/1
f 93/191/1 96/190/1 128/227/1 127/226/1
f 99/216/1 102/215/1 130/224/1 129/223/1
f 189/229/1 174/230/1 173/231/1 203/202/1
f 91/124/1 115/232/1 132/218/1 125/125/1
f 140/233/1 135/234/1 138/235/1 143/236/1
f 143/236/1 138/235/1 137/237/1 142/238/1
f 144/16/1 133/15/1 136/239/1 141/240/1
f 302/123/1 291/241/1 115/232/1 91/124/1
f 142/238/1 137/237/1 134/44/1 139/43/1
f 152/242/1 146/243/1 149/244/1 155/245/1
f 155/245/1 149/244/1 148/246/1 154/247/1
f 156/18/1 150/17/1 147/248/1 153/249/1
f 287/189/84 201/250/84 264/251/84 233/252/84
f 154/247/1 148/246/1 145/42/1 151/41/1
f 124/217/1 154/247/1 151/41/1 113/40/1
f 240/253/83 286/188/83 234/254/83 178/255/83
f 114/19/1 156/18/1 153/249/1 116/212/1
f 128/227/84 216/184/84 299/187/84 280/256/84
f 115/232/1 152/242/1 155/245/1 132/218/1
f 159/257/1 165/258/1 168/259/1 162/260/1
f 162/260/1 168/259/1 167/261/1 161/262/1
f 157/14/1 163/13/1 166/263/1 160/264/1
f 116/212/84 153/249/84 293/200/84 292/225/84
f 161/262/1 167/261/1 164/46/1 158/45/1
f 146/243/1 140/233/1 143/236/1 149/244/1
f 168/259/84 127/226/84 282/265/84 249/266/84
f 150/17/1 144/16/1 141/240/1 147/248/1
f 152/242/86 115/232/86 294/267/86 295/268/86
f 148/246/1 142/238/1 139/43/1 145/42/1
f 137/237/1 161/262/1 158/45/1 134/44/1
f 218/269/86 120/181/86 279/270/86 298/271/86
f 133/15/1 157/14/1 160/264/1 136/239/1
f 194/272/86 200/273/86 284/274/86 186/275/86
f 135/234/1 159/257/1 162/260/1 138/235/1
f 165/258/1 93/191/1 127/226/1 168/259/1
f 155/245/83 154/247/83 274/276/83 273/277/83
f 163/13/1 89/12/1 108/210/1 166/263/1
f 118/180/86 167/261/86 248/278/86 281/279/86
f 167/261/1 118/180/1 90/47/1 164/46/1
f 225/280/1 99/216/1 129/223/1 217/185/1
f 109/209/84 220/281/84 236/219/84 235/222/84
f 222/9/1 97/8/1 110/204/1 221/282/1
f 219/283/1 121/192/1 98/51/1 227/50/1
f 148/246/85 149/244/85 260/284/85 259/285/85
f 199/286/86 195/287/86 187/221/86 213/220/86
f 215/288/86 214/289/86 296/290/86 297/291/86
f 111/203/1 193/292/1 194/272/1 110/204/1
f 147/248/84 141/240/84 265/201/84 256/197/84
f 116/212/1 191/206/1 198/121/1 106/120/1
f 162/260/83 161/262/83 250/293/83 251/294/83
f 159/257/86 135/234/86 268/295/86 254/296/86
f 141/240/84 136/239/84 266/297/84 265/201/84
f 129/223/83 121/192/83 277/195/83 278/194/83
f 243/298/85 193/292/85 184/299/85 177/300/85
f 166/263/84 108/210/84 238/301/84 253/302/84
f 142/238/86 148/246/86 259/285/86 261/303/86
f 136/239/84 160/264/84 252/304/84 266/297/84
f 135/234/86 140/233/86 267/305/86 268/295/86
f 120/181/85 128/227/85 280/256/85 279/270/85
f 202/306/84 288/213/84 247/307/84 270/308/84
f 99/216/86 225/280/86 269/309/86 232/310/86
f 201/250/84 202/306/84 270/308/84 264/251/84
f 108/210/83 196/311/83 188/312/83 238/301/83
f 224/313/86 96/190/86 237/314/86 263/315/86
f 205/316/1 169/317/1 170/318/1 204/319/1
f 115/232/85 291/241/85 212/320/85 294/267/85
f 196/311/83 240/253/83 178/255/83 188/312/83
f 225/280/86 224/313/86 263/315/86 269/309/86
f 167/261/85 168/259/85 249/266/85 248/278/85
f 105/179/86 102/215/86 230/321/86 228/322/86
f 214/289/85 199/286/85 213/220/85 296/290/85
f 195/287/1 241/323/1 240/253/1 196/311/1
f 193/292/1 243/298/1 242/324/1 194/272/1
f 169/317/1 178/255/1 234/254/1 206/325/1
f 191/206/1 245/205/1 257/122/1 198/121/1
f 188/312/1 178/255/1 169/317/1 205/316/1
f 154/247/86 124/217/86 275/326/86 274/276/86
f 93/191/86 165/258/86 255/327/86 246/328/86
f 289/214/85 243/298/85 177/300/85 231/329/85
f 195/287/85 109/209/85 235/222/85 187/221/85
f 153/249/84 147/248/84 256/197/84 293/200/84
f 160/264/84 166/263/84 253/302/84 252/304/84
f 290/178/83 105/179/83 228/322/83 229/330/83
f 127/226/83 118/180/83 281/279/83 282/265/83
f 291/241/85 245/205/85 175/208/85 212/320/85
f 138/235/84 162/260/84 251/294/84 272/331/84
f 200/273/83 215/288/83 297/291/83 284/274/83
f 244/176/83 290/178/83 229/330/83 176/182/83
f 110/204/83 194/272/83 186/275/83 182/332/83
f 132/218/84 155/245/84 273/277/84 276/333/84
f 140/233/86 146/243/86 258/334/86 267/305/86
f 199/286/1 214/289/1 241/323/1 195/287/1
f 146/243/86 152/242/86 295/268/86 258/334/86
f 143/236/83 142/238/83 261/303/83 262/335/83
f 233/252/1 264/251/1 263/315/1 237/314/1
f 102/215/85 289/214/85 231/329/85 230/321/85
f 224/313/1 225/280/1 217/185/1 216/184/1
f 264/251/1 270/308/1 269/309/1 263/315/1
f 96/190/1 224/313/1 216/184/1 128/227/1
f 299/187/1 301/186/1 300/196/1 298/271/1
f 221/282/84 110/204/84 182/332/84 283/336/84
f 137/237/85 138/235/85 272/331/85 271/337/85
f 170/318/1 169/317/1 206/325/1 207/338/1
f 223/10/1 222/9/1 221/282/1 220/281/1
f 94/11/1 223/10/1 220/281/1 109/209/1
f 173/231/1 174/230/1 211/339/1 210/340/1
f 218/269/1 219/283/1 227/50/1 226/49/1
f 174/230/1 170/318/1 207/338/1 211/339/1
f 165/258/86 159/257/86 254/296/86 255/327/86
f 120/181/1 218/269/1 226/49/1 95/48/1
f 175/208/1 171/341/1 208/342/1 212/320/1
f 172/343/1 173/231/1 210/340/1 209/344/1
f 288/213/83 99/216/83 232/310/83 247/307/83
f 270/308/1 247/307/1 232/310/1 269/309/1
f 171/341/1 172/343/1 209/344/1 208/342/1
f 194/272/1 242/324/1 215/288/1 200/273/1
f 220/281/84 221/282/84 283/336/84 236/219/84
f 177/300/1 176/182/1 229/330/1 231/329/1
f 284/274/1 297/291/1 296/290/1 213/220/1
f 184/299/1 185/183/1 176/182/1 177/300/1
f 241/323/1 214/289/1 201/250/1 287/189/1
f 179/345/1 180/346/1 185/183/1 184/299/1
f 280/256/1 299/187/1 298/271/1 279/270/1
f 214/289/1 215/288/1 202/306/1 201/250/1
f 204/319/1 170/318/1 174/230/1 189/229/1
f 228/322/1 230/321/1 231/329/1 229/330/1
f 193/292/85 111/203/85 179/345/85 184/299/85
f 183/199/1 171/341/1 175/208/1 181/207/1
f 203/202/1 173/231/1 172/343/1 190/198/1
f 102/215/1 105/179/1 131/228/1 130/224/1
f 182/332/1 186/275/1 284/274/1 283/336/1
f 190/198/1 172/343/1 171/341/1 183/199/1
f 130/224/1 131/228/1 123/74/1 122/193/1
f 238/301/1 188/312/1 205/316/1 253/302/1
f 283/336/1 284/274/1 213/220/1 236/219/1
f 100/7/1 103/6/1 112/211/1 111/203/1
f 253/302/1 205/316/1 204/319/1 252/304/1
f 252/304/1 204/319/1 189/229/1 266/297/1
f 122/193/1 123/74/1 104/53/1 101/52/1
f 266/297/1 189/229/1 203/202/1 265/201/1
f 293/200/1 183/199/1 181/207/1 292/225/1
f 96/190/85 287/189/85 233/252/85 237/314/85
f 121/192/86 219/283/86 300/196/86 277/195/86
f 109/209/1 195/287/1 196/311/1 108/210/1
f 210/340/1 211/339/1 268/295/1 267/305/1
f 208/342/1 209/344/1 258/334/1 295/268/1
f 244/176/1 239/33/1 285/32/1 290/178/1
f 240/253/1 241/323/1 287/189/1 286/188/1
f 107/35/1 197/34/1 192/177/1 112/211/1
f 242/324/1 243/298/1 289/214/1 288/213/1
f 161/262/86 137/237/86 271/337/86 250/293/86
f 257/122/1 245/205/1 291/241/1 302/123/1
f 112/211/83 192/177/83 185/183/83 180/346/83
f 272/331/1 251/294/1 250/293/1 271/337/1
f 286/188/83 93/191/83 246/328/83 234/254/83
f 149/244/84 143/236/84 262/335/84 260/284/84
f 260/284/1 262/335/1 261/303/1 259/285/1
f 111/203/84 112/211/84 180/346/84 179/345/84
f 211/339/1 207/338/1 254/296/1 268/295/1
f 206/325/1 234/254/1 246/328/1 255/327/1
f 219/283/86 218/269/86 298/271/86 300/196/86
f 209/344/1 210/340/1 267/305/1 258/334/1
f 249/266/1 282/265/1 281/279/1 248/278/1
f 124/217/85 132/218/85 276/333/85 275/326/85
f 212/320/1 208/342/1 295/268/1 294/267/1
f 207/338/1 206/325/1 255/327/1 254/296/1
f 217/185/84 129/223/84 278/194/84 301/186/84
f 215/288/1 242/324/1 288/213/1 202/306/1
f 276/333/1 273/277/1 274/276/1 275/326/1
