# Blender v3.6.23 OBJ File: 'Monitor.blend'
# www.blender.org
mtllib Monitor.mtl
o Monitor_Cube
v 0.908354 3.134409 -0.487049
v -2.472161 1.235424 -0.072280
v 2.472161 1.235424 -0.072280
v 0.907400 3.140039 -0.487164
v 0.904684 3.144811 -0.487263
v 0.895826 3.149120 -0.487351
v 0.900620 3.148000 -0.487328
v 0.908354 1.891279 -0.461505
v 0.907400 1.885650 -0.461390
v 0.904684 1.880877 -0.461292
v 0.900620 1.877688 -0.461226
v 0.895826 1.876569 -0.461203
v -0.908354 3.134409 -0.487049
v -0.907400 3.140039 -0.487164
v -0.904684 3.144811 -0.487263
v -0.900620 3.148000 -0.487328
v -2.438064 1.074526 -0.068974
v -2.472161 1.108616 -0.069675
v -2.451112 1.077121 -0.069028
v -2.462174 1.084511 -0.069179
v -2.469565 1.095571 -0.069407
v -2.472161 3.989351 -0.128867
v -2.438064 4.023440 -0.129568
v -2.469565 4.002397 -0.129135
v -2.462174 4.013456 -0.129362
v -2.451112 4.020845 -0.129514
v -0.895826 3.149120 -0.487351
v -0.908354 1.891279 -0.461505
v -0.907400 1.885650 -0.461390
v -0.904684 1.880877 -0.461292
v -0.895826 1.876569 -0.461203
v -0.900620 1.877688 -0.461226
v 0.908354 1.946001 -0.462630
v -0.908354 1.946001 -0.462630
v 2.462174 1.086989 0.051412
v 2.451112 1.079599 0.051564
v 2.472161 1.108616 -0.069675
v 2.438064 1.074526 -0.068974
v 2.469565 1.095571 -0.069407
v 2.462174 1.084511 -0.069179
v 2.451112 1.077121 -0.069028
v 2.438064 4.023440 -0.129568
v 2.472161 3.989351 -0.128867
v 2.451112 4.020845 -0.129514
v 2.462174 4.013456 -0.129362
v 2.469565 4.002397 -0.129135
v 2.469565 1.098049 0.051185
v -2.462174 1.086989 0.051412
v -2.469565 1.098049 0.051185
v 2.438064 1.077004 0.051617
v -2.451112 1.079599 0.051564
v -2.438064 1.077004 0.051617
v 2.472161 1.111094 0.050917
v -2.472161 1.111094 0.050917
v -2.468709 1.237873 0.046881
v 2.468709 1.237873 0.046881
v -2.468709 1.237814 0.044005
v -2.472161 1.237702 0.038548
v 2.468709 1.237814 0.044005
v 2.472161 1.237702 0.038548
v 2.467278 1.233739 0.083348
v 2.472161 1.238520 0.078367
v -2.467278 1.233739 0.083348
v -2.472161 1.238520 0.078367
v -2.438064 1.076804 0.041855
v -2.438064 1.077004 0.051617
v -2.472161 1.111094 0.050917
v -2.472161 1.110894 0.041154
v -2.451112 1.079599 0.051564
v -2.451112 1.079399 0.041801
v -2.462174 1.086989 0.051412
v -2.462174 1.086789 0.041649
v -2.469565 1.098049 0.051185
v -2.469565 1.097848 0.041422
v -2.437584 4.020948 -0.013182
v -2.438064 4.025718 -0.018739
v -2.467278 3.991260 -0.012572
v -2.472161 3.991628 -0.018038
v -2.449207 4.018637 -0.013135
v -2.451112 4.023123 -0.018686
v -2.458654 4.012326 -0.013005
v -2.462174 4.015733 -0.018534
v -2.464967 4.002881 -0.012811
v -2.469565 4.004673 -0.018306
v 2.472161 1.110894 0.041154
v 2.472161 1.111094 0.050917
v 2.438064 1.077004 0.051617
v 2.438064 1.076804 0.041855
v 2.469565 1.097848 0.041422
v 2.469565 1.098049 0.051185
v 2.462174 1.086789 0.041649
v 2.462174 1.086989 0.051412
v 2.451112 1.079399 0.041801
v 2.451112 1.079599 0.051564
v 2.467278 3.991260 -0.012572
v 2.472161 3.991628 -0.018038
v 2.437584 4.020948 -0.013182
v 2.438064 4.025718 -0.018739
v 2.464967 4.002881 -0.012811
v 2.469565 4.004673 -0.018306
v 2.458654 4.012326 -0.013005
v 2.462174 4.015733 -0.018534
v 2.449207 4.018637 -0.013135
v 2.451112 4.023123 -0.018686
v 2.437583 1.082603 0.086454
v 2.438064 1.077622 0.081673
v 2.467278 1.112292 0.085844
v 2.472161 1.111712 0.080972
v 2.449207 1.084915 0.086406
v 2.451112 1.080217 0.081619
v 2.458654 1.091226 0.086276
v 2.462174 1.087607 0.081467
v 2.464967 1.100671 0.086082
v 2.469565 1.098666 0.081240
v -2.467278 1.112292 0.085844
v -2.472161 1.111712 0.080972
v -2.437583 1.082603 0.086454
v -2.438064 1.077622 0.081673
v -2.464967 1.100671 0.086082
v -2.469565 1.098666 0.081240
v -2.458654 1.091226 0.086276
v -2.462174 1.087607 0.081467
v -2.449207 1.084915 0.086406
v -2.451112 1.080217 0.081619
v -1.149014 1.756351 -0.418175
v -2.276115 1.167669 -0.126803
v -1.517307 1.574309 -0.342211
v -1.929855 1.358836 -0.235561
v -2.269587 3.907251 -0.189520
v -1.180874 3.291309 -0.445618
v -1.934273 3.706175 -0.286457
v -1.535777 3.480725 -0.380196
v -1.194085 1.745770 -0.412610
v -2.277151 1.189134 -0.134585
v -1.546289 1.574510 -0.340525
v -1.942719 1.370767 -0.238760
v 1.198836 3.293828 -0.443666
v 2.271910 3.895497 -0.191986
v 1.547962 3.478473 -0.379510
v 1.940735 3.698699 -0.287389
v -2.275278 3.883171 -0.192909
v -1.209218 3.291376 -0.442543
v -1.945744 3.689310 -0.287641
v -1.555538 3.472698 -0.379013
v -1.205879 1.747816 -0.411354
v -2.279061 1.202121 -0.136531
v -1.554376 1.580170 -0.340217
v -1.947188 1.380432 -0.239625
v 2.276239 1.176977 -0.131135
v 1.174599 1.748528 -0.414917
v 1.936759 1.363122 -0.237305
v 1.533530 1.572324 -0.341176
v 1.149014 1.756351 -0.418175
v 2.276115 1.167669 -0.126803
v 1.517307 1.574309 -0.342211
v 1.929855 1.358836 -0.235561
v -2.279807 1.215076 -0.137358
v -1.210888 1.753026 -0.410870
v -1.948911 1.391026 -0.240044
v -1.557659 1.587929 -0.340156
v -1.212272 1.819872 -0.412025
v -2.279096 1.332409 -0.140011
v -1.558256 1.670294 -0.341772
v -1.948741 1.491870 -0.242208
v 1.212662 3.285521 -0.442079
v 2.277770 3.871209 -0.192629
v 1.558273 3.464750 -0.378673
v 1.948130 3.679127 -0.287368
v 2.279061 1.202121 -0.136531
v 1.205880 1.747816 -0.411354
v 1.947188 1.380432 -0.239625
v 1.554376 1.580170 -0.340217
v -1.212661 3.285521 -0.442079
v -2.277770 3.871209 -0.192629
v -1.558273 3.464750 -0.378673
v -1.948130 3.679127 -0.287368
v -2.276240 1.176976 -0.131135
v -1.174599 1.748528 -0.414917
v -1.936759 1.363122 -0.237305
v -1.533530 1.572324 -0.341176
v 1.194085 1.745770 -0.412610
v 2.277151 1.189134 -0.134585
v 1.546289 1.574510 -0.340525
v 1.942719 1.370767 -0.238760
v 2.279096 1.332409 -0.140011
v 1.212272 1.819872 -0.412025
v 1.948741 1.491870 -0.242208
v 1.558256 1.670294 -0.341772
v 1.157301 3.283770 -0.448232
v 2.267999 3.916268 -0.186082
v 1.520364 3.478842 -0.381056
v 1.926907 3.710352 -0.285103
v 2.275278 3.883171 -0.192910
v 1.209218 3.291376 -0.442543
v 1.945743 3.689310 -0.287641
v 1.555538 3.472698 -0.379013
v -1.198836 3.293828 -0.443666
v -2.271910 3.895497 -0.191986
v -1.547962 3.478473 -0.379510
v -1.940735 3.698699 -0.287389
v 1.210888 1.753026 -0.410870
v 2.279807 1.215076 -0.137358
v 1.557659 1.587929 -0.340156
v 1.948911 1.391026 -0.240044
v 2.269587 3.907251 -0.189520
v 1.180874 3.291309 -0.445618
v 1.934273 3.706174 -0.286457
v 1.535776 3.480724 -0.380196
v -2.267999 3.916268 -0.186082
v -1.157301 3.283770 -0.448232
v -1.926907 3.710352 -0.285103
v -1.520364 3.478842 -0.381056
v -1.149014 1.759362 -0.271630
v -1.517307 1.576551 -0.233079
v -1.929855 1.359990 -0.179383
v -2.276115 1.167707 -0.124928
v 1.149014 1.759362 -0.271630
v 1.517307 1.576551 -0.233079
v 1.929855 1.359990 -0.179383
v 2.276115 1.167707 -0.124928
v -1.442119 1.077004 0.051617
v -0.529882 1.876569 -0.461203
v -1.442119 1.074526 -0.068974
v -1.442119 1.077004 0.051617
v -1.442119 1.076804 0.041855
v -1.441834 1.082603 0.086454
v -1.442119 1.077622 0.081673
v -0.679643 1.756351 -0.418175
v -1.346326 1.167669 -0.126803
v -0.679643 1.759362 -0.271630
v -0.897490 1.576551 -0.233079
v -1.141512 1.359990 -0.179383
v -1.346326 1.167707 -0.124928
v -0.218596 2.428216 -0.645891
v -0.218596 2.538039 -0.540490
v -0.218596 2.437254 -0.604878
v -0.218596 2.461298 -0.570445
v -0.218596 2.496689 -0.547836
v -0.218596 2.556398 -0.540868
v -0.218596 2.661798 -0.650690
v -0.218596 2.597411 -0.549905
v -0.218596 2.631843 -0.573950
v -0.218596 2.654453 -0.609341
v 0.218596 2.538039 -0.540490
v 0.218596 2.428216 -0.645891
v 0.218596 2.496689 -0.547836
v 0.218596 2.461298 -0.570445
v 0.218596 2.437254 -0.604878
v 0.218596 2.661798 -0.650690
v 0.218596 2.556398 -0.540868
v 0.218596 2.654453 -0.609341
v 0.218596 2.631843 -0.573950
v 0.218596 2.597411 -0.549905
v -0.218596 2.330065 -0.457898
v -0.218596 2.531632 -0.462040
v -0.218596 2.345409 -0.458214
v -0.218596 2.389103 -0.459111
v -0.218596 2.454496 -0.460455
v -0.218596 2.566021 -0.462747
v -0.218596 2.767588 -0.466888
v -0.218596 2.643158 -0.464332
v -0.218596 2.708551 -0.465675
v -0.218596 2.752245 -0.466573
v 0.218596 2.531632 -0.462040
v 0.218596 2.330065 -0.457898
v 0.218596 2.454496 -0.460455
v 0.218596 2.389103 -0.459111
v 0.218596 2.345409 -0.458214
v 0.218596 2.767588 -0.466888
v 0.218596 2.566021 -0.462747
v 0.218596 2.752245 -0.466573
v 0.218596 2.708551 -0.465675
v 0.218596 2.643158 -0.464332
v -2.385399 1.251713 0.045164
v 2.385399 1.251713 0.045164
v -2.385399 3.943411 -0.010145
v 2.385399 3.943411 -0.010145
vt 0.616328 0.059842
vt 0.616328 0.042917
vt 0.614336 0.042917
vt 0.614336 0.059842
vt 0.169202 0.042917
vt 0.169202 0.059842
vt 0.169598 0.059842
vt 0.169598 0.042917
vt 0.174408 0.042917
vt 0.193773 0.042917
vt 0.193773 0.059842
vt 0.174408 0.059842
vt 0.169202 0.042917
vt 0.169202 0.042917
vt 0.169202 0.059842
vt 0.169202 0.059842
vt 0.520406 0.272637
vt 0.520458 0.467118
vt 0.479287 0.447198
vt 0.479287 0.289504
vt 0.174408 0.061333
vt 0.193773 0.061115
vt 0.193773 0.065923
vt 0.174408 0.065923
vt 0.687786 0.587324
vt 0.689394 0.587644
vt 0.690701 0.588518
vt 0.691574 0.589824
vt 0.691894 0.591433
vt 0.691894 0.608238
vt 0.009219 0.608238
vt 0.009219 0.591433
vt 0.009539 0.589824
vt 0.010413 0.588518
vt 0.011720 0.587644
vt 0.013328 0.587324
vt 0.151085 0.587324
vt 0.193773 0.059842
vt 0.193773 0.042917
vt 0.689512 0.174166
vt 0.690512 0.175634
vt 0.664737 0.189949
vt 0.664479 0.188222
vt 0.614336 0.042917
vt 0.614336 0.059842
vt 0.193773 0.061115
vt 0.174408 0.061333
vt 0.174408 0.065923
vt 0.193773 0.065923
vt 0.172416 0.061333
vt 0.172416 0.065923
vt 0.174408 0.059842
vt 0.174408 0.042917
vt 0.169202 0.061333
vt 0.169202 0.065923
vt 0.169598 0.065923
vt 0.169598 0.061333
vt 0.170727 0.065923
vt 0.170727 0.061333
vt 0.170727 0.059842
vt 0.170727 0.042917
vt 0.619542 0.042917
vt 0.619542 0.042917
vt 0.619542 0.059842
vt 0.619542 0.059842
vt 0.618017 0.059842
vt 0.618017 0.042917
vt 0.172416 0.061333
vt 0.172416 0.061333
vt 0.174408 0.061333
vt 0.619146 0.059842
vt 0.619146 0.042917
vt 0.170727 0.061333
vt 0.170727 0.061333
vt 0.616328 0.042917
vt 0.616328 0.059842
vt 0.169598 0.061333
vt 0.169598 0.061333
vt 0.169202 0.061333
vt 0.169202 0.061333
vt 0.618017 0.042917
vt 0.618017 0.059842
vt 0.193773 0.061115
vt 0.193773 0.061115
vt 0.619146 0.042917
vt 0.619146 0.059842
vt 0.169598 0.042917
vt 0.169598 0.059842
vt 0.170727 0.042917
vt 0.170727 0.059842
vt 0.172416 0.042917
vt 0.172416 0.059842
vt 0.169202 0.061333
vt 0.169202 0.065923
vt 0.169202 0.065923
vt 0.172416 0.059842
vt 0.172416 0.042917
vt 0.193773 0.066668
vt 0.193773 0.066668
vt 0.169202 0.061333
vt 0.169598 0.061333
vt 0.170727 0.061333
vt 0.172416 0.061333
vt 0.174408 0.061333
vt 0.619174 0.060587
vt 0.619527 0.060587
vt 0.618099 0.060587
vt 0.619063 0.060587
vt 0.616451 0.060587
vt 0.617894 0.060587
vt 0.614408 0.060587
vt 0.616183 0.060587
vt 0.619527 0.060587
vt 0.619174 0.060587
vt 0.619063 0.060587
vt 0.618099 0.060587
vt 0.617894 0.060587
vt 0.616451 0.060587
vt 0.616183 0.060587
vt 0.614408 0.060587
vt 0.169569 0.066668
vt 0.169216 0.066668
vt 0.169598 0.065923
vt 0.170645 0.066668
vt 0.169681 0.066668
vt 0.170727 0.065923
vt 0.172293 0.066668
vt 0.170850 0.066668
vt 0.172416 0.065923
vt 0.174336 0.066668
vt 0.172561 0.066668
vt 0.169216 0.066668
vt 0.169569 0.066668
vt 0.169681 0.066668
vt 0.170645 0.066668
vt 0.170850 0.066668
vt 0.172293 0.066668
vt 0.172561 0.066668
vt 0.174336 0.066668
vt 0.174481 0.066668
vt 0.193028 0.066668
vt 0.169202 0.061333
vt 0.169202 0.066668
vt 0.614263 0.060587
vt 0.193773 0.060587
vt 0.193773 0.060587
vt 0.614263 0.060587
vt 0.193028 0.066668
vt 0.174481 0.066668
vt 0.944047 0.100395
vt 0.943993 0.153466
vt 0.943905 0.153690
vt 0.943665 0.153872
vt 0.943305 0.153994
vt 0.942863 0.154038
vt 0.757329 0.154038
vt 0.756886 0.153994
vt 0.756527 0.153872
vt 0.756287 0.153690
vt 0.756199 0.153466
vt 0.756144 0.100395
vt 0.477592 0.280291
vt 0.478241 0.280440
vt 0.478791 0.280863
vt 0.479158 0.281496
vt 0.479287 0.282243
vt 0.233495 0.289504
vt 0.233495 0.282243
vt 0.233624 0.281496
vt 0.233991 0.280863
vt 0.234541 0.280440
vt 0.235190 0.280291
vt 0.428082 0.280291
vt 0.235190 0.449150
vt 0.234541 0.449001
vt 0.233991 0.448578
vt 0.233624 0.447945
vt 0.233495 0.447198
vt 0.479158 0.447945
vt 0.478791 0.448578
vt 0.478241 0.449001
vt 0.477592 0.449150
vt 0.021919 0.194192
vt 0.021919 0.177365
vt 0.047943 0.191670
vt 0.048040 0.207240
vt 0.021919 0.559619
vt 0.048219 0.544122
vt 0.690863 0.194192
vt 0.690863 0.559619
vt 0.664563 0.544122
vt 0.664742 0.207240
vt 0.690863 0.177365
vt 0.664838 0.191670
vt 0.026532 0.564142
vt 0.024767 0.563798
vt 0.049326 0.548895
vt 0.049541 0.550081
vt 0.023270 0.562817
vt 0.022270 0.561350
vt 0.048556 0.545710
vt 0.049012 0.547342
vt 0.519541 0.263078
vt 0.520219 0.263767
vt 0.686250 0.172841
vt 0.688015 0.173186
vt 0.664356 0.186600
vt 0.664339 0.185353
vt 0.199813 0.466903
vt 0.196624 0.467896
vt 0.551503 0.172841
vt 0.538543 0.185353
vt 0.022270 0.175634
vt 0.048044 0.189949
vt 0.517945 0.262810
vt 0.023270 0.174166
vt 0.024767 0.173186
vt 0.048426 0.186600
vt 0.048303 0.188222
vt 0.690512 0.561350
vt 0.664226 0.545710
vt 0.686250 0.564142
vt 0.663241 0.550081
vt 0.689512 0.562817
vt 0.688015 0.563798
vt 0.663456 0.548895
vt 0.663770 0.547342
vt 0.516158 0.467896
vt 0.512969 0.466903
vt 0.026532 0.172841
vt 0.048443 0.185353
vt 0.519993 0.467896
vt 0.518588 0.468225
vt 0.197473 0.263182
vt 0.200935 0.264228
vt 0.193241 0.263078
vt 0.194837 0.262810
vt 0.194194 0.468225
vt 0.192789 0.467896
vt 0.192376 0.272637
vt 0.192563 0.263767
vt 0.448344 0.264228
vt 0.511847 0.264228
vt 0.192323 0.467118
vt 0.515309 0.263182
vt 0.565823 0.492540
vt 0.564175 0.492841
vt 0.618963 0.521499
vt 0.618089 0.522489
vt 0.566691 0.240648
vt 0.567135 0.241677
vt 0.619837 0.213881
vt 0.620070 0.215287
vt 0.150693 0.492594
vt 0.148607 0.492841
vt 0.095689 0.523039
vt 0.094693 0.522488
vt 0.567218 0.490718
vt 0.566848 0.491773
vt 0.619964 0.518903
vt 0.619641 0.520255
vt 0.146959 0.492540
vt 0.145934 0.491773
vt 0.093818 0.521499
vt 0.093141 0.520255
vt 0.147185 0.239898
vt 0.148911 0.239610
vt 0.093550 0.212597
vt 0.094356 0.211579
vt 0.145564 0.490718
vt 0.145566 0.252606
vt 0.092818 0.518903
vt 0.092735 0.228669
vt 0.562089 0.492594
vt 0.617093 0.523039
vt 0.145647 0.241677
vt 0.146091 0.240648
vt 0.092712 0.215287
vt 0.092945 0.213881
vt 0.561676 0.239876
vt 0.563871 0.239610
vt 0.617492 0.211006
vt 0.618425 0.211579
vt 0.565597 0.239898
vt 0.619232 0.212597
vt 0.648812 0.151825
vt 0.073497 0.151825
vt 0.073497 0.105710
vt 0.648812 0.105710
vt 0.561676 0.239876
vt 0.617492 0.211006
vt 0.664339 0.185353
vt 0.538543 0.185353
vt 0.151106 0.239876
vt 0.095290 0.211006
vt 0.567216 0.252606
vt 0.620047 0.228669
vt 0.448344 0.264228
vt 0.200935 0.264228
vt 0.151106 0.239876
vt 0.477817 0.239876
vt 0.095290 0.211006
vt 0.510832 0.211006
vt 0.048443 0.185353
vt 0.511847 0.264228
vt 0.675387 0.088348
vt 0.527718 0.088348
vt 0.527718 0.042234
vt 0.675387 0.042234
vt 0.972148 0.020949
vt 0.860881 0.020949
vt 0.860881 0.020949
vt 0.972148 0.020949
vt 0.860881 0.048342
vt 0.860881 0.037859
vt 0.972148 0.037859
vt 0.972148 0.048342
vt 0.860881 0.028972
vt 0.972148 0.028972
vt 0.860881 0.023034
vt 0.972148 0.023034
vt 0.972148 0.048342
vt 0.972148 0.037859
vt 0.860881 0.037859
vt 0.860881 0.048342
vt 0.972148 0.028972
vt 0.860881 0.028972
vt 0.972148 0.023034
vt 0.860881 0.023034
vt 0.641015 0.396900
vt 0.668907 0.382717
vt 0.668907 0.361625
vt 0.633490 0.385639
vt 0.641015 0.429387
vt 0.668907 0.443569
vt 0.668907 0.418689
vt 0.643657 0.416104
vt 0.671464 0.364335
vt 0.671464 0.289861
vt 0.496353 0.289861
vt 0.496353 0.364335
vt 0.643657 0.416104
vt 0.668907 0.418689
vt 0.668907 0.443569
vt 0.641015 0.429387
vt 0.622230 0.378115
vt 0.668907 0.347532
vt 0.668907 0.342583
vt 0.608947 0.375473
vt 0.622230 0.448172
vt 0.668907 0.478755
vt 0.668907 0.464661
vt 0.633490 0.440647
vt 0.641015 0.396900
vt 0.668907 0.382717
vt 0.668907 0.407597
vt 0.643657 0.410182
vt 0.633490 0.440647
vt 0.668907 0.464661
vt 0.668907 0.478755
vt 0.622230 0.448172
vt 0.643657 0.410182
vt 0.668907 0.407597
vt 0.622230 0.378115
vt 0.668907 0.347532
vt 0.668907 0.361625
vt 0.633490 0.385639
vt 0.608947 0.450814
vt 0.668907 0.483704
vt 0.496353 0.364335
vt 0.496353 0.289861
vt 0.671464 0.289861
vt 0.671464 0.364335
vt 0.608947 0.375473
vt 0.668907 0.342583
vt 0.668907 0.483704
vt 0.608947 0.450814
vt 0.000018 0.000089
vt 0.999982 0.000089
vt 0.999982 0.999968
vt 0.000018 0.999968
vn -0.9239 0.3826 -0.0079
vn -0.9952 0.0980 -0.0020
vn -0.0980 -0.9950 0.0204
vn -0.3827 -0.9237 0.0190
vn 0.9952 -0.0980 0.0020
vn 1.0000 0.0000 0.0000
vn 0.9767 0.0089 0.2144
vn 0.9940 -0.0931 0.0578
vn 0.0000 -0.9998 0.0205
vn 0.0980 -0.9950 0.0204
vn -0.1734 -0.0203 -0.9846
vn -0.1682 -0.0040 -0.9857
vn -0.0799 -0.0153 -0.9967
vn -0.0782 -0.0205 -0.9967
vn 0.9985 -0.0520 -0.0178
vn 0.9994 0.0197 -0.0282
vn 0.9983 0.0121 -0.0563
vn 0.9954 -0.0920 -0.0263
vn -0.0000 0.0205 0.9998
vn -0.9767 0.0089 0.2144
vn -1.0000 0.0000 0.0000
vn -0.2119 -0.2204 -0.9521
vn -0.2627 -0.1323 -0.9557
vn -0.2487 -0.1276 -0.9601
vn -0.1892 -0.2304 -0.9545
vn 0.9952 0.0980 -0.0020
vn -0.9994 0.0197 -0.0282
vn -0.9985 -0.0520 -0.0178
vn -0.9954 -0.0920 -0.0263
vn -0.9983 0.0121 -0.0563
vn -0.9239 -0.3826 0.0079
vn -0.9940 -0.0931 0.0578
vn -0.9952 -0.0980 0.0020
vn -0.7071 -0.7070 0.0145
vn 0.0980 0.9950 -0.0204
vn -0.0980 0.9950 -0.0204
vn -0.7071 0.7070 -0.0145
vn 0.0000 0.0000 1.0000
vn -0.3827 0.9237 -0.0190
vn 0.9239 0.3826 -0.0079
vn 0.7071 0.7070 -0.0145
vn 0.0000 0.9998 -0.0206
vn 0.3827 0.9237 -0.0190
vn 0.3827 -0.9237 0.0190
vn 0.7071 -0.7070 0.0145
vn 0.9239 -0.3826 0.0079
vn 0.0000 0.9998 -0.0205
vn 0.0000 0.7215 0.6924
vn -0.9960 -0.0498 0.0745
vn -0.2827 0.6963 0.6598
vn -0.0729 0.7537 0.6532
vn -0.5224 0.5361 0.6631
vn -0.6826 0.2965 0.6679
vn -0.7656 0.0862 0.6375
vn 0.9960 -0.0498 0.0745
vn 0.0729 0.7537 0.6532
vn 0.2827 0.6963 0.6598
vn 0.5224 0.5361 0.6631
vn 0.6826 0.2965 0.6679
vn 0.7656 0.0862 0.6375
vn 0.2680 -0.6321 0.7271
vn 0.0691 -0.6873 0.7231
vn 0.4951 -0.4804 0.7239
vn 0.6469 -0.2532 0.7193
vn 0.7020 -0.0546 0.7101
vn -0.0691 -0.6873 0.7231
vn -0.2680 -0.6321 0.7271
vn -0.4951 -0.4804 0.7239
vn -0.6469 -0.2532 0.7193
vn -0.7020 -0.0546 0.7101
vn -0.9574 0.0212 0.2879
vn -0.7071 0.0145 0.7070
vn 0.0000 -0.6924 0.7215
vn 0.9574 0.0212 0.2879
vn 0.7071 0.0145 0.7070
vn -0.0055 -0.1819 -0.9833
vn -0.0368 -0.1306 -0.9908
vn -0.0606 -0.0794 -0.9950
vn -0.0747 -0.0472 -0.9961
vn -0.0800 -0.0258 -0.9965
vn 0.0782 -0.0205 -0.9967
vn 0.0800 -0.0258 -0.9965
vn 0.0747 -0.0472 -0.9961
vn 0.0606 -0.0794 -0.9950
vn 0.0368 -0.1306 -0.9908
vn 0.0055 -0.1819 -0.9833
vn -0.0000 -0.1811 -0.9835
vn 0.0055 0.1315 -0.9913
vn 0.0357 0.0850 -0.9957
vn 0.0594 0.0369 -0.9976
vn 0.0741 0.0057 -0.9972
vn 0.0799 -0.0153 -0.9967
vn -0.0741 0.0057 -0.9972
vn -0.0594 0.0369 -0.9976
vn -0.0357 0.0850 -0.9957
vn -0.0055 0.1315 -0.9913
vn 0.3223 -0.0194 -0.9465
vn 0.3035 -0.0564 -0.9512
vn 0.2903 -0.0487 -0.9557
vn 0.3045 -0.0197 -0.9523
vn 0.3019 0.0176 -0.9532
vn 0.2910 0.0076 -0.9567
vn -0.3223 -0.0194 -0.9464
vn -0.3019 0.0176 -0.9532
vn -0.2910 0.0076 -0.9567
vn -0.3045 -0.0197 -0.9523
vn -0.3035 -0.0564 -0.9512
vn -0.2903 -0.0487 -0.9557
vn 0.0608 0.3883 -0.9195
vn 0.1436 0.2731 -0.9512
vn 0.1086 0.3017 -0.9472
vn 0.0333 0.4143 -0.9095
vn 0.2068 0.1773 -0.9622
vn 0.2590 0.0923 -0.9615
vn 0.2468 0.0842 -0.9654
vn 0.1858 0.1837 -0.9653
vn -0.1424 -0.0931 -0.9854
vn -0.1685 -0.0394 -0.9849
vn -0.0642 -0.4435 -0.8940
vn -0.1491 -0.3207 -0.9354
vn -0.1114 -0.3549 -0.9282
vn -0.0387 -0.4710 -0.8813
vn 0.0229 0.2589 -0.9656
vn 0.0530 0.2086 -0.9766
vn -0.0000 -0.5275 -0.8496
vn 0.2627 -0.1323 -0.9557
vn 0.2487 -0.1276 -0.9601
vn -0.1055 -0.1639 -0.9808
vn 0.2119 -0.2204 -0.9521
vn 0.1491 -0.3207 -0.9354
vn 0.1114 -0.3549 -0.9282
vn 0.1892 -0.2304 -0.9545
vn -0.2590 0.0923 -0.9615
vn -0.2468 0.0842 -0.9654
vn -0.0608 0.3883 -0.9195
vn -0.0333 0.4143 -0.9095
vn -0.2067 0.1773 -0.9622
vn -0.1436 0.2731 -0.9512
vn -0.1086 0.3018 -0.9472
vn -0.1858 0.1837 -0.9653
vn -0.0530 0.2086 -0.9766
vn -0.0229 0.2589 -0.9656
vn 0.0642 -0.4435 -0.8940
vn 0.0387 -0.4710 -0.8813
vn -0.1433 0.0479 -0.9885
vn -0.1046 0.1169 -0.9876
vn 0.0534 -0.2622 -0.9635
vn 0.0415 -0.2605 -0.9646
vn 0.1424 -0.0931 -0.9854
vn 0.1055 -0.1639 -0.9808
vn 0.1046 0.1169 -0.9876
vn 0.1433 0.0479 -0.9885
vn 0.1734 -0.0203 -0.9846
vn 0.1685 -0.0394 -0.9849
vn 0.0000 -0.3370 -0.9415
vn -0.0415 -0.2605 -0.9646
vn 0.1682 -0.0040 -0.9857
vn -0.0534 -0.2622 -0.9635
vn -0.1215 0.1578 -0.9800
vn -0.0524 0.2720 -0.9609
vn -0.1533 0.1765 -0.9723
vn -0.0782 0.2966 -0.9518
vn -0.1718 -0.1155 -0.9783
vn -0.2052 -0.0459 -0.9776
vn -0.2113 -0.1249 -0.9694
vn -0.2498 -0.0485 -0.9671
vn 0.0055 0.3445 -0.9388
vn 0.0524 0.2720 -0.9609
vn 0.0136 0.3935 -0.9192
vn 0.0782 0.2966 -0.9518
vn -0.2061 0.0013 -0.9785
vn -0.1734 0.0666 -0.9826
vn -0.2514 0.0048 -0.9679
vn -0.2116 0.0775 -0.9743
vn 0.1215 0.1578 -0.9800
vn 0.1734 0.0666 -0.9826
vn 0.1533 0.1765 -0.9723
vn 0.2116 0.0775 -0.9743
vn 0.1217 -0.2088 -0.9704
vn 0.0518 -0.3299 -0.9426
vn 0.1547 -0.2265 -0.9616
vn 0.0789 -0.3532 -0.9322
vn 0.2061 0.0013 -0.9785
vn 0.2145 -0.0204 -0.9765
vn 0.2514 0.0048 -0.9679
vn 0.2626 -0.0201 -0.9647
vn -0.0055 0.3445 -0.9388
vn -0.0136 0.3935 -0.9192
vn 0.2052 -0.0459 -0.9776
vn 0.1718 -0.1155 -0.9783
vn 0.2498 -0.0485 -0.9671
vn 0.2113 -0.1249 -0.9694
vn -0.0090 -0.3776 -0.9259
vn -0.0518 -0.3299 -0.9426
vn -0.0263 -0.4242 -0.9052
vn -0.0789 -0.3532 -0.9322
vn -0.1217 -0.2088 -0.9704
vn -0.1547 -0.2265 -0.9616
vn -0.2157 -0.9763 0.0201
vn -0.2351 -0.9718 0.0200
vn 0.4755 -0.8795 0.0181
vn 0.4551 -0.8903 0.0183
vn 0.4570 -0.8893 0.0183
vn 0.4779 -0.8782 0.0180
vn 0.0090 -0.3776 -0.9259
vn 0.0263 -0.4242 -0.9052
vn -0.2145 -0.0204 -0.9765
vn -0.2626 -0.0201 -0.9647
vn 0.0000 -0.2063 -0.9785
vn -0.0000 -0.2355 -0.9719
vn -0.0000 -0.2235 -0.9747
vn -0.0000 -0.2674 -0.9636
vn -0.0000 -0.2566 -0.9665
vn -0.0000 -0.2725 -0.9622
vn 0.4876 -0.8729 0.0179
vn -0.4755 -0.8795 0.0181
vn -0.4876 -0.8729 0.0179
vn -0.4779 -0.8782 0.0180
vn -0.4551 -0.8903 0.0183
vn -0.4570 -0.8893 0.0183
vn 0.2157 -0.9763 0.0201
vn 0.2351 -0.9718 0.0200
vn 0.0000 0.0776 -0.9970
vn 0.0000 -0.1184 -0.9930
vn 0.0000 0.9766 -0.2152
vn 0.0000 0.9158 -0.4016
vn 0.0000 0.6924 -0.7215
vn 0.0000 0.3636 -0.9315
vn 0.0000 -0.9846 -0.1749
vn 0.0000 -0.9315 -0.3636
vn 0.0000 -0.7215 -0.6924
vn 0.0000 -0.4016 -0.9158
vn 0.0000 -0.8865 -0.4628
vn 0.0000 0.8667 -0.4988
usemtl Monitor
s 1
f 84/1/1 24/2/1 22/3/2 78/4/2
f 17/5/3 65/6/3 70/7/4 19/8/4
f 37/9/5 3/10/6 60/11/7 85/12/8
f 223/13/9 38/14/10 88/15/10 225/16/9
f 161/17/11 173/18/12 13/19/13 34/20/14
f 53/21/15 56/22/16 62/23/17 108/24/18
f 105/25/19 109/26/19 111/27/19 113/28/19 107/29/19 61/30/19 63/31/19 115/32/19 119/33/19 121/34/19 123/35/19 117/36/19 226/37/19
f 58/38/20 78/4/2 22/3/2 2/39/21
f 20/40/22 21/41/23 146/42/24 134/43/25
f 3/10/6 43/44/26 96/45/26 60/11/7
f 55/46/27 54/47/28 116/48/29 64/49/30
f 49/50/31 120/51/31 116/48/29 54/47/28
f 68/52/32 58/38/20 2/39/21 18/53/33
f 52/54/3 118/55/3 124/56/4 51/57/4
f 51/57/4 124/56/4 122/58/34 48/59/34
f 48/59/34 122/58/34 120/51/31 49/50/31
f 19/8/4 70/7/4 72/60/34 20/61/34
f 42/62/35 23/63/36 76/64/36 98/65/35
f 82/66/37 25/67/37 24/2/1 84/1/1
f 47/68/38 90/69/38 86/70/38 53/21/38
f 80/71/39 26/72/39 25/67/37 82/66/37
f 35/73/38 92/74/38 90/69/38 47/68/38
f 46/75/40 100/76/40 96/45/26 43/44/26
f 36/77/38 94/78/38 92/74/38 35/73/38
f 50/79/38 87/80/38 94/78/38 36/77/38
f 45/81/41 102/82/41 100/76/40 46/75/40
f 59/83/42 57/84/42 55/46/42 56/22/42
f 44/85/43 104/86/43 102/82/41 45/81/41
f 42/62/35 98/65/35 104/86/43 44/85/43
f 88/15/10 38/14/10 41/87/44 93/88/44
f 93/88/44 41/87/44 40/89/45 91/90/45
f 91/90/45 40/89/45 39/91/46 89/92/46
f 89/92/46 39/91/46 37/9/5 85/12/8
f 221/93/9 50/79/10 106/94/10 227/95/9
f 20/61/34 72/60/34 74/96/31 21/97/31
f 76/64/36 23/63/36 26/72/39 80/71/39
f 21/97/31 74/96/31 68/52/32 18/53/33
f 56/22/42 55/46/42 64/49/47 62/23/47
f 62/23/48 64/49/48 63/98/48 61/99/48
f 66/100/3 69/101/4 70/7/4 65/6/3
f 69/101/4 71/102/34 72/60/34 70/7/4
f 71/102/34 73/103/31 74/96/31 72/60/34
f 73/103/31 67/104/49 68/52/32 74/96/31
f 79/105/50 75/106/51 76/64/51 80/71/50
f 81/107/52 79/108/50 80/71/50 82/66/52
f 83/109/53 81/110/52 82/66/52 84/1/53
f 77/111/54 83/112/53 84/1/53 78/4/54
f 94/78/44 87/80/10 88/15/10 93/88/44
f 92/74/45 94/78/44 93/88/44 91/90/45
f 90/69/46 92/74/45 91/90/45 89/92/46
f 86/70/55 90/69/46 89/92/46 85/12/8
f 97/113/56 103/114/57 104/86/57 98/65/56
f 103/115/57 101/116/58 102/82/58 104/86/57
f 101/117/58 99/118/59 100/76/59 102/82/58
f 99/119/59 95/120/60 96/45/60 100/76/59
f 109/121/61 105/122/62 106/94/62 110/123/61
f 111/124/63 109/125/61 110/123/61 112/126/63
f 113/127/64 111/128/63 112/126/63 114/129/64
f 107/130/65 113/131/64 114/129/64 108/24/65
f 117/132/66 123/133/67 124/56/67 118/55/66
f 123/134/67 121/135/68 122/58/68 124/56/67
f 121/136/68 119/137/69 120/51/69 122/58/68
f 119/138/69 115/139/70 116/48/70 120/51/69
f 67/104/49 57/84/71 58/38/20 68/52/32
f 115/140/70 63/141/72 64/49/72 116/48/70
f 224/142/9 66/100/3 65/6/3 225/16/9
f 226/143/73 117/132/66 118/55/66 227/95/73
f 60/11/7 96/45/60 95/144/60 59/145/74
f 98/65/56 76/64/51 75/106/51 97/113/56
f 78/4/54 58/38/20 57/146/71 77/147/54
f 59/83/74 86/70/55 85/12/8 60/11/7
f 61/148/75 107/149/65 108/24/65 62/23/75
f 59/150/19 95/151/19 99/152/19 101/153/19 103/154/19 97/155/19 75/156/19 79/157/19 81/158/19 83/159/19 77/160/19 57/161/19
f 224/142/38 87/80/38 50/79/38 221/93/38
f 106/94/10 50/79/10 36/77/44 110/123/44
f 110/123/44 36/77/44 35/73/45 112/126/45
f 112/126/45 35/73/45 47/68/46 114/129/46
f 114/129/46 47/68/46 53/21/15 108/24/18
f 71/102/38 48/59/38 49/50/38 73/103/38
f 69/101/38 51/57/38 48/59/38 71/102/38
f 66/100/38 52/54/38 51/57/38 69/101/38
f 73/103/38 49/50/38 54/47/38 67/104/38
f 57/84/71 67/104/49 54/47/28 55/46/27
f 86/70/55 59/83/74 56/22/16 53/21/15
f 31/162/76 32/163/77 30/164/78 29/165/79 28/166/80 34/20/14 33/167/81 8/168/82 9/169/83 10/170/84 11/171/85 12/172/86 222/173/87
f 6/174/88 7/175/89 5/176/90 4/177/91 1/178/92 33/167/81 34/20/14 13/19/13 14/179/93 15/180/94 16/181/95 27/182/96
f 3/183/97 37/184/98 202/185/99 185/186/100
f 43/187/101 3/183/97 185/186/100 166/188/102
f 2/189/103 22/190/104 174/191/105 162/192/106
f 18/193/107 2/189/103 162/192/106 157/194/108
f 42/195/109 44/196/110 205/197/111 190/198/112
f 45/199/113 46/200/114 193/201/115 138/202/116
f 145/203/117 158/204/118 28/166/80 29/165/79
f 17/205/119 19/206/120 177/207/121 126/208/122
f 189/209/123 206/210/124 7/175/89 6/174/88
f 19/206/120 20/40/22 134/43/25 177/207/121
f 223/211/125 17/205/119 126/208/122 229/212/125
f 37/184/98 39/213/126 169/214/127 202/185/99
f 133/215/128 145/203/117 29/165/79 30/164/78
f 46/200/114 43/187/101 166/188/102 193/201/115
f 40/216/129 41/217/130 149/218/131 182/219/132
f 44/196/110 45/199/113 138/202/116 205/197/111
f 22/190/104 24/220/133 141/221/134 174/191/105
f 23/222/135 42/195/109 190/198/112 209/223/136
f 21/41/23 18/193/107 157/194/108 146/42/24
f 25/224/137 26/225/138 129/226/139 198/227/140
f 130/228/141 210/229/142 27/182/96 16/181/95
f 41/217/130 38/230/143 154/231/144 149/218/131
f 142/232/145 197/233/146 15/180/94 14/179/93
f 24/220/133 25/224/137 198/227/140 141/221/134
f 150/234/147 153/235/148 12/172/86 11/171/85
f 39/213/126 40/216/129 182/219/132 169/214/127
f 197/233/146 130/228/141 16/181/95 15/180/94
f 170/236/149 181/237/150 10/170/84 9/169/83
f 26/225/138 23/222/135 209/223/136 129/226/139
f 137/238/151 194/239/152 4/177/91 5/176/90
f 186/240/153 201/241/154 8/168/82 33/167/81
f 228/242/155 125/243/156 31/162/76 222/173/87
f 173/18/12 142/232/145 14/179/93 13/19/13
f 206/210/124 137/238/151 5/176/90 7/175/89
f 210/229/142 189/209/123 6/174/88 27/182/96
f 181/237/150 150/234/147 11/171/85 10/170/84
f 165/244/157 186/240/153 33/167/81 1/178/92
f 194/239/152 165/244/157 1/178/92 4/177/91
f 201/241/154 170/236/149 9/169/83 8/168/82
f 178/245/158 133/215/128 30/164/78 32/163/77
f 158/204/118 161/17/11 34/20/14 28/166/80
f 130/228/141 197/233/146 199/246/159 132/247/160
f 132/247/160 199/246/159 200/248/161 131/249/162
f 131/249/162 200/248/161 198/227/140 129/226/139
f 158/204/118 145/203/117 147/250/163 160/251/164
f 160/251/164 147/250/163 148/252/165 159/253/166
f 159/253/166 148/252/165 146/42/24 157/194/108
f 206/210/124 189/209/123 191/254/167 208/255/168
f 208/255/168 191/254/167 192/256/169 207/257/170
f 207/257/170 192/256/169 190/198/112 205/197/111
f 142/232/145 173/18/12 175/258/171 144/259/172
f 144/259/172 175/258/171 176/260/173 143/261/174
f 143/261/174 176/260/173 174/191/105 141/221/134
f 194/239/152 137/238/151 139/262/175 196/263/176
f 196/263/176 139/262/175 140/264/177 195/265/178
f 195/265/178 140/264/177 138/202/116 193/201/115
f 150/234/147 181/237/150 183/266/179 152/267/180
f 152/267/180 183/266/179 184/268/181 151/269/182
f 151/269/182 184/268/181 182/219/132 149/218/131
f 186/240/153 165/244/157 167/270/183 188/271/184
f 188/271/184 167/270/183 168/272/185 187/273/186
f 187/273/186 168/272/185 166/188/102 185/186/100
f 210/229/142 130/228/141 132/247/160 212/274/187
f 212/274/187 132/247/160 131/249/162 211/275/188
f 211/275/188 131/249/162 129/226/139 209/223/136
f 170/236/149 201/241/154 203/276/189 172/277/190
f 172/277/190 203/276/189 204/278/191 171/279/192
f 171/279/192 204/278/191 202/185/99 169/214/127
f 178/245/158 125/243/156 127/280/193 180/281/194
f 180/281/194 127/280/193 128/282/195 179/283/196
f 179/283/196 128/282/195 126/208/122 177/207/121
f 145/203/117 133/215/128 135/284/197 147/250/163
f 147/250/163 135/284/197 136/285/198 148/252/165
f 148/252/165 136/285/198 134/43/25 146/42/24
f 201/241/154 186/240/153 188/271/184 203/276/189
f 203/276/189 188/271/184 187/273/186 204/278/191
f 204/278/191 187/273/186 185/186/100 202/185/99
f 228/286/9 153/287/199 217/288/200 230/289/9
f 128/282/201 127/280/202 214/290/203 215/291/204
f 229/212/47 126/208/47 216/292/47 233/293/47
f 197/233/146 142/232/145 144/259/172 199/246/159
f 199/246/159 144/259/172 143/261/174 200/248/161
f 200/248/161 143/261/174 141/221/134 198/227/140
f 137/238/151 206/210/124 208/255/168 139/262/175
f 139/262/175 208/255/168 207/257/170 140/264/177
f 140/264/177 207/257/170 205/197/111 138/202/116
f 189/209/123 210/229/142 212/274/187 191/254/167
f 191/254/167 212/274/187 211/275/188 192/256/169
f 192/256/169 211/275/188 209/223/136 190/198/112
f 153/235/148 150/234/147 152/267/180 155/294/205
f 155/294/205 152/267/180 151/269/182 156/295/206
f 156/295/206 151/269/182 149/218/131 154/231/144
f 173/18/12 161/17/11 163/296/207 175/258/171
f 175/258/171 163/296/207 164/297/208 176/260/173
f 176/260/173 164/297/208 162/192/106 174/191/105
f 165/244/157 194/239/152 196/263/176 167/270/183
f 167/270/183 196/263/176 195/265/178 168/272/185
f 168/272/185 195/265/178 193/201/115 166/188/102
f 181/237/150 170/236/149 172/277/190 183/266/179
f 183/266/179 172/277/190 171/279/192 184/268/181
f 184/268/181 171/279/192 169/214/127 182/219/132
f 133/215/128 178/245/158 180/281/194 135/284/197
f 135/284/197 180/281/194 179/283/196 136/285/198
f 136/285/198 179/283/196 177/207/121 134/43/25
f 161/17/11 158/204/118 160/251/164 163/296/207
f 163/296/207 160/251/164 159/253/166 164/297/208
f 164/297/208 159/253/166 157/194/108 162/192/106
f 125/243/156 178/245/158 32/163/77 31/162/76
f 230/298/209 217/299/209 218/300/210 231/301/211
f 231/301/211 218/300/210 219/302/212 232/303/213
f 232/303/213 219/302/212 220/304/214 233/293/214
f 126/208/215 128/282/201 215/291/204 216/292/215
f 156/295/216 154/231/217 220/304/217 219/302/218
f 155/294/219 156/295/216 219/302/218 218/300/220
f 127/280/202 125/243/221 213/305/222 214/290/203
f 153/235/199 155/294/219 218/300/220 217/299/200
f 215/291/212 232/303/213 233/293/214 216/292/214
f 214/290/210 231/301/211 232/303/213 215/291/212
f 213/305/209 230/298/209 231/301/211 214/290/210
f 154/231/42 229/212/47 233/293/47 220/304/42
f 125/306/221 228/307/9 230/308/9 213/309/222
f 153/235/148 228/242/155 222/173/87 12/172/86
f 38/230/143 223/211/125 229/212/125 154/231/144
f 66/100/38 224/142/38 221/93/38 52/54/38
f 105/122/62 226/143/73 227/95/73 106/94/62
f 87/80/10 224/142/9 225/16/9 88/15/10
f 52/54/3 221/93/9 227/95/9 118/55/3
f 17/5/3 223/13/9 225/16/9 65/6/3
f 244/310/223 235/311/223 239/312/224 250/313/224
f 234/314/225 236/315/226 248/316/226 245/317/225
f 236/315/226 237/318/227 247/319/227 248/316/226
f 237/318/227 238/320/228 246/321/228 247/319/227
f 238/320/228 235/311/223 244/310/223 246/321/228
f 249/322/229 251/323/230 243/324/230 240/325/229
f 251/323/230 252/326/231 242/327/231 243/324/230
f 252/326/231 253/328/232 241/329/232 242/327/231
f 253/328/232 250/313/224 239/312/224 241/329/232
f 246/330/6 266/331/6 267/332/6 247/333/6
f 253/334/6 273/335/6 270/336/6 250/337/6
f 245/338/233 265/339/233 254/340/233 234/341/233
f 239/342/21 259/343/21 261/344/21 241/345/21
f 248/346/6 268/347/6 265/348/6 245/349/6
f 251/350/6 271/351/6 272/352/6 252/353/6
f 238/354/21 258/355/21 255/356/21 235/357/21
f 242/358/21 262/359/21 263/360/21 243/361/21
f 244/362/6 264/363/6 266/331/6 246/330/6
f 235/357/21 255/356/21 259/343/21 239/342/21
f 236/364/21 256/365/21 257/366/21 237/367/21
f 250/337/6 270/336/6 264/363/6 244/362/6
f 247/333/6 267/332/6 268/347/6 248/346/6
f 252/353/6 272/352/6 273/335/6 253/334/6
f 249/368/6 269/369/6 271/351/6 251/350/6
f 241/345/21 261/344/21 262/359/21 242/358/21
f 240/370/234 260/371/234 269/372/234 249/373/234
f 237/367/21 257/366/21 258/355/21 238/354/21
f 234/374/21 254/375/21 256/365/21 236/364/21
f 243/361/21 263/360/21 260/376/21 240/377/21
f 256/365/19 254/340/19 265/348/19 268/347/19 267/332/19 266/331/19 264/363/19 270/336/19 273/335/19 272/352/19 271/351/19 269/372/19 260/376/19 263/360/19 262/359/19 261/344/19 259/343/19 255/356/19 258/355/19 257/366/19
usemtl Screen
s off
f 274/378/19 275/379/19 277/380/19 276/381/19
o Support_Cube.002
v -0.210416 2.428396 -0.763249
v -0.210416 2.653103 -0.772284
v 0.210416 2.428396 -0.763249
v 0.210416 2.653103 -0.772284
v -0.210416 2.433177 -0.644353
v -0.210416 2.540862 -0.544993
v -0.210416 2.442650 -0.605053
v -0.210416 2.466441 -0.572370
v -0.210416 2.500928 -0.551280
v -0.210416 2.558524 -0.545703
v -0.210416 2.657884 -0.653388
v -0.210416 2.597823 -0.555176
v -0.210416 2.630506 -0.578967
v -0.210416 2.651597 -0.613455
v 0.210416 2.540862 -0.544993
v 0.210416 2.433177 -0.644353
v 0.210416 2.500928 -0.551280
v 0.210416 2.466441 -0.572370
v 0.210416 2.442650 -0.605053
v 0.210416 2.657884 -0.653388
v 0.210416 2.558524 -0.545703
v 0.210416 2.651597 -0.613455
v 0.210416 2.630506 -0.578967
v 0.210416 2.597823 -0.555176
vt 0.972148 0.020949
vt 0.972148 0.020949
vt 0.860881 0.020949
vt 0.860881 0.020949
vt 0.860881 0.079803
vt 0.860881 0.079803
vt 0.972148 0.079803
vt 0.972148 0.079803
vt 0.860881 0.048342
vt 0.972148 0.048342
vt 0.949561 0.022604
vt 0.960216 0.024724
vt 0.969248 0.030759
vt 0.975284 0.039792
vt 0.977403 0.050446
vt 0.977403 0.055197
vt 0.975284 0.065851
vt 0.969248 0.074884
vt 0.960216 0.080919
vt 0.949561 0.083039
vt 0.917584 0.083039
vt 0.917584 0.022604
vt 0.917584 0.022604
vt 0.917584 0.083039
vt 0.949561 0.083039
vt 0.960216 0.080919
vt 0.969248 0.074884
vt 0.975284 0.065851
vt 0.977403 0.055197
vt 0.977403 0.050446
vt 0.975284 0.039792
vt 0.969248 0.030759
vt 0.960216 0.024724
vt 0.949561 0.022604
vt 0.860881 0.048342
vt 0.972148 0.048342
vt 0.972148 0.037859
vt 0.860881 0.037859
vt 0.972148 0.028972
vt 0.860881 0.028972
vt 0.972148 0.023034
vt 0.860881 0.023034
vt 0.860881 0.037859
vt 0.972148 0.037859
vt 0.860881 0.028972
vt 0.972148 0.028972
vt 0.860881 0.023034
vt 0.972148 0.023034
vn 0.0000 -0.0580 0.9983
vn 0.0000 0.1379 0.9904
vn 0.0000 -0.0402 -0.9992
vn 0.0000 0.9992 -0.0402
vn 0.0000 0.9983 0.0580
vn -1.0000 -0.0000 0.0000
vn 1.0000 -0.0000 0.0000
vn 0.0000 -0.9904 0.1379
vn 0.0000 -0.9078 0.4195
vn 0.0000 -0.6781 0.7349
vn 0.0000 -0.3453 0.9385
vn 0.0000 0.9385 0.3453
vn 0.0000 0.7349 0.6781
vn 0.0000 0.4195 0.9078
vn 0.0000 -0.9992 0.0402
usemtl Monitor
s 1
f 292/382/235 298/383/236 287/384/236 283/385/235
f 278/386/237 279/387/237 281/388/237 280/389/237
f 281/388/238 279/387/238 288/390/239 297/391/239
f 282/392/240 284/393/240 285/394/240 286/395/240 283/396/240 287/397/240 289/398/240 290/399/240 291/400/240 288/401/240 279/402/240 278/403/240
f 280/404/241 281/405/241 297/406/241 299/407/241 300/408/241 301/409/241 298/410/241 292/411/241 294/412/241 295/413/241 296/414/241 293/415/241
f 282/416/242 293/417/242 296/418/243 284/419/243
f 284/419/243 296/418/243 295/420/244 285/421/244
f 285/421/244 295/420/244 294/422/245 286/423/245
f 286/423/245 294/422/245 292/382/235 283/385/235
f 297/391/239 288/390/239 291/424/246 299/425/246
f 299/425/246 291/424/246 290/426/247 300/427/247
f 300/427/247 290/426/247 289/428/248 301/429/248
f 301/429/248 289/428/248 287/384/236 298/383/236
f 278/386/249 280/389/249 293/417/242 282/416/242
o Stand_Plane.001
v -1.060679 -0.002557 0.256332
v -1.109089 -0.002557 0.213528
v -1.079205 -0.002557 0.253073
v -1.094910 -0.002557 0.243795
v -1.105404 -0.002557 0.229908
v 1.109089 -0.002557 0.213528
v 1.060679 -0.002557 0.256332
v 1.105404 -0.002557 0.229908
v 1.094910 -0.002557 0.243795
v 1.079205 -0.002557 0.253073
v -1.109089 -0.002557 -1.090116
v -1.060679 -0.002557 -1.132920
v -1.105404 -0.002557 -1.106496
v -1.094910 -0.002557 -1.120383
v -1.079205 -0.002557 -1.129662
v 1.060679 -0.002557 -1.132920
v 1.109089 -0.002557 -1.090116
v 1.079205 -0.002557 -1.129662
v 1.094910 -0.002557 -1.120383
v 1.105404 -0.002557 -1.106496
v -1.117222 0.087622 -1.183899
v -1.168212 0.087622 -1.137954
v -1.136735 0.087622 -1.180402
v -1.153278 0.087622 -1.170442
v -1.164331 0.087622 -1.155536
v -1.168212 0.087622 0.261365
v -1.117222 0.087622 0.307310
v -1.164331 0.087622 0.278948
v -1.153278 0.087622 0.293853
v -1.136735 0.087622 0.303813
v 1.117222 0.087622 0.307310
v 1.168212 0.087622 0.261365
v 1.136735 0.087622 0.303813
v 1.153278 0.087622 0.293853
v 1.164331 0.087622 0.278948
v 1.168212 0.087622 -1.137954
v 1.117222 0.087622 -1.183899
v 1.164331 0.087622 -1.155536
v 1.153278 0.087622 -1.170442
v 1.136735 0.087622 -1.180402
v 1.117222 0.057513 -1.183899
v 1.136735 0.057513 -1.180402
v 1.153278 0.057513 -1.170442
v 1.164331 0.057513 -1.155536
v 1.168212 0.057513 -1.137954
v 1.117222 0.057513 0.307310
v 1.136735 0.057513 0.303813
v 1.153278 0.057513 0.293853
v 1.164331 0.057513 0.278948
v 1.168212 0.057513 0.261365
v -1.117222 0.057513 0.307310
v -1.136735 0.057513 0.303813
v -1.153278 0.057513 0.293853
v -1.164331 0.057513 0.278948
v -1.168212 0.057513 0.261365
v -1.117222 0.057513 -1.183899
v -1.136735 0.057513 -1.180402
v -1.153278 0.057513 -1.170442
v -1.164331 0.057513 -1.155536
v -1.168212 0.057513 -1.137954
v 1.079205 0.052521 -1.129662
v 1.094910 0.052521 -1.120383
v 1.105404 0.052521 -1.106496
v 1.109089 0.052521 -1.090116
v 1.060679 0.052521 0.256332
v -1.079205 0.052521 0.253073
v -1.094910 0.052521 0.243795
v -1.105404 0.052521 0.229908
v -1.109089 0.052521 0.213528
v -1.060679 0.052521 -1.132920
v 1.060679 0.052521 -1.132920
v 1.079205 0.052521 0.253073
v 1.094910 0.052521 0.243795
v 1.105404 0.052521 0.229908
v 1.109089 0.052521 0.213528
v -1.060679 0.052521 0.256332
v -1.079205 0.052521 -1.129662
v -1.094910 0.052521 -1.120383
v -1.105404 0.052521 -1.106496
v -1.109089 0.052521 -1.090116
v -0.074994 0.074322 -0.646952
v -0.447723 0.071646 -0.713498
v -0.217631 0.074118 -0.652018
v -0.338553 0.073538 -0.666443
v -0.419351 0.072670 -0.688032
v -0.447723 3.114745 -0.835862
v -0.074994 3.117421 -0.769315
v -0.419351 3.115769 -0.810396
v -0.338553 3.116637 -0.788806
v -0.217631 3.117218 -0.774381
v -0.447723 0.070569 -0.740277
v -0.074994 0.067894 -0.806823
v -0.419351 0.069546 -0.765743
v -0.338553 0.068677 -0.787332
v -0.217631 0.068097 -0.801758
v -0.074994 3.110993 -0.929186
v -0.447723 3.113669 -0.862640
v -0.217631 3.111197 -0.924121
v -0.338553 3.111777 -0.909696
v -0.419351 3.112645 -0.888106
v 0.447723 0.071646 -0.713498
v 0.074994 0.074322 -0.646952
v 0.419351 0.072670 -0.688032
v 0.338553 0.073538 -0.666443
v 0.217631 0.074118 -0.652018
v 0.074994 3.117421 -0.769315
v 0.447723 3.114745 -0.835862
v 0.217631 3.117218 -0.774381
v 0.338553 3.116637 -0.788806
v 0.419351 3.115769 -0.810396
v 0.074994 0.067894 -0.806823
v 0.447723 0.070569 -0.740277
v 0.217631 0.068097 -0.801758
v 0.338553 0.068677 -0.787332
v 0.419351 0.069546 -0.765743
v 0.447723 3.113669 -0.862640
v 0.074994 3.110993 -0.929186
v 0.419351 3.112645 -0.888106
v 0.338553 3.111777 -0.909696
v 0.217631 3.111197 -0.924121
v -0.074994 1.155423 -0.690423
v -0.217631 1.155219 -0.695489
v -0.338553 1.154639 -0.709914
v -0.419351 1.153771 -0.731503
v -0.447723 1.152747 -0.756970
v -0.074994 1.148995 -0.850294
v -0.217631 1.149198 -0.845229
v -0.338553 1.149778 -0.830803
v -0.419351 1.150646 -0.809214
v -0.447723 1.151670 -0.783748
v 0.447723 1.151670 -0.783748
v 0.419351 1.150646 -0.809214
v 0.338553 1.149778 -0.830803
v 0.217631 1.149198 -0.845229
v 0.074994 1.148995 -0.850294
v 0.074994 1.155423 -0.690423
v 0.217631 1.155219 -0.695489
v 0.338553 1.154639 -0.709914
v 0.419351 1.153771 -0.731503
v 0.447723 1.152747 -0.756970
v -0.217631 0.413638 -0.665670
v -0.338553 0.413058 -0.680095
v -0.419351 0.412190 -0.701684
v -0.447723 0.411166 -0.727151
v -0.074994 0.407413 -0.820475
v 0.447723 0.410089 -0.753929
v 0.074994 0.413841 -0.660604
v -0.074994 0.413841 -0.660604
v -0.217631 0.407617 -0.815410
v -0.338553 0.408197 -0.800984
v -0.419351 0.409065 -0.779395
v -0.447723 0.410089 -0.753929
v 0.419351 0.409065 -0.779395
v 0.338553 0.408197 -0.800984
v 0.217631 0.407617 -0.815410
v 0.074994 0.407413 -0.820475
v 0.217631 0.413638 -0.665670
v 0.338553 0.413058 -0.680095
v 0.419351 0.412190 -0.701684
v 0.447723 0.411166 -0.727151
v -0.244665 0.797584 -0.684339
v -0.217631 0.692865 -0.676898
v -0.217631 0.902561 -0.685330
v -0.232743 0.722427 -0.679892
v -0.232743 0.872854 -0.685941
v -0.144253 0.994729 -0.686426
v -0.074994 0.566220 -0.666732
v -0.076347 1.029398 -0.685404
v -0.198143 0.654677 -0.674669
v -0.144253 0.600907 -0.670590
v -0.198143 0.940805 -0.686174
v -0.074994 1.023186 -0.845236
v -0.074994 0.559791 -0.826602
v -0.001073 1.034884 -0.845706
v -0.001073 0.548093 -0.826132
v 0.074994 0.560409 -0.826627
v 0.074201 1.022971 -0.845227
v -0.001073 1.041312 -0.685835
v 0.074994 0.566838 -0.666756
v 0.074201 1.029400 -0.685356
v -0.001073 0.554521 -0.666261
v 0.217631 0.898352 -0.685160
v 0.217631 0.697074 -0.677067
v 0.230597 0.722438 -0.679636
v 0.242519 0.797594 -0.684083
v 0.230597 0.872864 -0.685685
v 0.142107 0.600910 -0.670514
v 0.142107 0.994732 -0.686349
v 0.195997 0.654680 -0.674593
v 0.195997 0.940808 -0.686098
v 0.142107 0.594673 -0.825618
v 0.217631 0.691053 -0.826807
v 0.195997 0.648597 -0.825869
v 0.217631 0.892331 -0.834900
v 0.195997 0.934726 -0.837374
v 0.142107 0.988496 -0.841453
v 0.242519 0.791812 -0.827884
v 0.230597 0.866968 -0.832331
v 0.230597 0.716541 -0.826282
v -0.232743 0.716551 -0.826026
v -0.244665 0.791822 -0.827628
v -0.217631 0.686844 -0.826638
v -0.217631 0.896540 -0.835069
v -0.232743 0.866978 -0.832075
v -0.144253 0.594676 -0.825542
v -0.198143 0.648600 -0.825793
v -0.144253 0.988499 -0.841377
v -0.198143 0.934729 -0.837298
v -0.198143 0.654114 -0.688664
v -0.198143 0.649163 -0.811799
v -0.244665 0.797050 -0.697608
v -0.232743 0.721883 -0.693425
v -0.217631 0.902004 -0.699196
v -0.232743 0.872310 -0.699473
v -0.074994 0.565624 -0.681536
v -0.144253 0.600330 -0.684939
v -0.198143 0.940243 -0.700169
v -0.074994 0.560387 -0.811798
v -0.001073 0.548688 -0.811328
v 0.074994 0.561005 -0.811823
v -0.076347 1.028803 -0.700200
v -0.001073 1.040717 -0.700640
v -0.001073 0.553926 -0.681066
v 0.217631 0.696517 -0.690933
v 0.230597 0.721892 -0.693216
v 0.242519 0.797058 -0.697399
v 0.230597 0.872318 -0.699265
v 0.195997 0.654117 -0.688601
v 0.142107 0.595251 -0.811255
v 0.195997 0.649160 -0.811861
v 0.074994 0.566242 -0.681561
v 0.195997 0.935289 -0.823366
v 0.142107 0.989073 -0.827091
v -0.244665 0.792355 -0.814360
v -0.232743 0.867522 -0.818543
v 0.242519 0.792347 -0.814568
v 0.230597 0.867514 -0.818751
v 0.230597 0.717087 -0.812703
v -0.217631 0.897098 -0.821203
v -0.144253 0.595253 -0.811193
v -0.144253 0.989076 -0.827029
v -0.198143 0.935291 -0.823304
v 0.142107 0.994155 -0.700713
v 0.195997 0.940245 -0.700107
v -0.217631 0.692308 -0.690764
v -0.144253 0.994152 -0.700775
v -0.074994 1.023781 -0.830431
v -0.001073 1.035479 -0.830902
v 0.217631 0.897795 -0.699027
v 0.217631 0.691611 -0.812941
v 0.217631 0.892889 -0.821034
v 0.074201 1.028805 -0.700161
v -0.232743 0.717095 -0.812494
v -0.217631 0.687402 -0.812771
v 0.074201 1.023567 -0.830423
v 0.142107 0.600332 -0.684877
v -0.182511 0.665447 -0.689119
v -0.182511 0.660495 -0.812254
v -0.225348 0.797051 -0.697608
v -0.214370 0.727842 -0.693664
v -0.200455 0.893700 -0.698862
v -0.214370 0.866354 -0.699234
v -0.069116 0.583978 -0.682274
v -0.132889 0.615928 -0.685566
v -0.182511 0.928912 -0.699713
v -0.069116 0.578740 -0.812536
v -0.001050 0.567968 -0.812103
v 0.068993 0.579309 -0.812559
v -0.070362 1.010469 -0.699463
v -0.001050 1.021440 -0.699865
v -0.001050 0.573206 -0.681841
v 0.200332 0.704489 -0.691254
v 0.212271 0.727850 -0.693456
v 0.223248 0.797059 -0.697399
v 0.212271 0.866362 -0.699025
v 0.180411 0.665449 -0.689057
v 0.130789 0.610848 -0.811882
v 0.180411 0.660493 -0.812316
v 0.068993 0.584547 -0.682297
v 0.180411 0.923958 -0.822910
v 0.130789 0.973477 -0.826463
v -0.225348 0.792356 -0.814360
v -0.214370 0.861566 -0.818303
v 0.223248 0.792348 -0.814568
v 0.212271 0.861557 -0.818512
v 0.212271 0.723045 -0.812942
v -0.200455 0.888794 -0.820869
v -0.132889 0.610851 -0.811820
v -0.132889 0.973480 -0.826401
v -0.182511 0.923961 -0.822848
v 0.130789 0.978559 -0.700086
v 0.180411 0.928914 -0.699651
v -0.200455 0.700613 -0.691098
v -0.132889 0.978556 -0.700148
v -0.069116 1.005430 -0.829693
v -0.001050 1.016202 -0.830127
v 0.200332 0.889825 -0.698706
v 0.200332 0.699583 -0.813261
v 0.200332 0.884919 -0.820714
v 0.068262 1.010471 -0.699424
v -0.214370 0.723054 -0.812734
v -0.200455 0.695708 -0.813105
v 0.068262 1.005233 -0.829685
v 0.130789 0.615930 -0.685504
v 0.132049 3.022856 -0.765513
v 0.160576 3.022652 -0.770579
v 0.132049 1.249989 -0.694226
v 0.160576 1.249785 -0.699291
v -0.132049 3.022856 -0.765513
v -0.132049 1.249989 -0.694226
v -0.160576 1.249785 -0.699291
v -0.160576 3.022652 -0.770579
vt 0.712622 0.700133
vt 0.712622 0.327928
vt 0.712622 0.327928
vt 0.712622 0.700133
vt 0.988301 0.327928
vt 0.988301 0.700133
vt 0.988301 0.700133
vt 0.988301 0.327928
vt 0.560002 0.938979
vt 0.563252 0.938332
vt 0.566008 0.936491
vt 0.567849 0.933736
vt 0.568496 0.930485
vt 0.568496 0.671795
vt 0.567849 0.668544
vt 0.566008 0.665789
vt 0.563252 0.663947
vt 0.560002 0.663301
vt 0.187796 0.663301
vt 0.184546 0.663947
vt 0.181790 0.665789
vt 0.179949 0.668544
vt 0.179303 0.671795
vt 0.179303 0.930485
vt 0.179949 0.933736
vt 0.181790 0.936491
vt 0.184546 0.938332
vt 0.187796 0.938979
vt 0.721116 0.708627
vt 0.717866 0.707981
vt 0.715110 0.706139
vt 0.713269 0.703384
vt 0.713269 0.324677
vt 0.715110 0.321922
vt 0.717866 0.320080
vt 0.721116 0.319434
vt 0.979807 0.319434
vt 0.983057 0.320080
vt 0.985813 0.321922
vt 0.987654 0.324677
vt 0.987654 0.703384
vt 0.985813 0.706139
vt 0.983057 0.707981
vt 0.979807 0.708627
vt 0.721116 0.319434
vt 0.979807 0.319434
vt 0.987654 0.324677
vt 0.985813 0.321922
vt 0.983057 0.320080
vt 0.187796 0.938979
vt 0.184546 0.938332
vt 0.181790 0.936491
vt 0.179949 0.933736
vt 0.179303 0.930485
vt 0.713269 0.703384
vt 0.715110 0.706139
vt 0.717866 0.707981
vt 0.721116 0.708627
vt 0.560002 0.663301
vt 0.563252 0.663947
vt 0.566008 0.665789
vt 0.567849 0.668544
vt 0.568496 0.671795
vt 0.979807 0.708627
vt 0.979807 0.708627
vt 0.721116 0.708627
vt 0.983057 0.707981
vt 0.985813 0.706139
vt 0.987654 0.703384
vt 0.717866 0.707981
vt 0.715110 0.706139
vt 0.713269 0.703384
vt 0.712622 0.700133
vt 0.717866 0.320080
vt 0.715110 0.321922
vt 0.713269 0.324677
vt 0.983057 0.320080
vt 0.979807 0.319434
vt 0.985813 0.321922
vt 0.987654 0.324677
vt 0.988301 0.327928
vt 0.721116 0.319434
vt 0.988301 0.700133
vt 0.712622 0.327928
vt 0.560002 0.938979
vt 0.187796 0.663301
vt 0.179303 0.671795
vt 0.184546 0.663947
vt 0.181790 0.665789
vt 0.179949 0.668544
vt 0.563252 0.938332
vt 0.566008 0.936491
vt 0.567849 0.933736
vt 0.568496 0.930485
vt 0.983057 0.707981
vt 0.985813 0.706139
vt 0.987654 0.703384
vt 0.717866 0.320080
vt 0.715110 0.321922
vt 0.713269 0.324677
vt 0.445885 0.788457
vt 0.017149 0.788457
vt 0.017149 0.821206
vt 0.445885 0.821206
vt 0.754329 0.429866
vt 0.754329 0.882126
vt 0.754329 0.882126
vt 0.754329 0.429866
vt 0.779474 0.882126
vt 0.760864 0.882126
vt 0.760864 0.882126
vt 0.779474 0.882126
vt 0.807325 0.882126
vt 0.840178 0.882126
vt 0.874724 0.882126
vt 0.907577 0.882126
vt 0.935428 0.882126
vt 0.954037 0.882126
vt 0.960572 0.882126
vt 0.960572 0.882126
vt 0.954037 0.882126
vt 0.935428 0.882126
vt 0.907577 0.882126
vt 0.874724 0.882126
vt 0.840178 0.882126
vt 0.807325 0.882126
vt 0.960572 0.429866
vt 0.960572 0.429866
vt 0.874724 0.429866
vt 0.840178 0.429866
vt 0.508604 0.821586
vt 0.508604 0.843666
vt 0.493954 0.834834
vt 0.493954 0.830418
vt 0.445885 0.852350
vt 0.017149 0.852350
vt 0.017149 0.878752
vt 0.445885 0.878752
vt 0.017149 0.896394
vt 0.445885 0.896394
vt 0.954037 0.429866
vt 0.874724 0.258924
vt 0.874724 0.180662
vt 0.907577 0.180662
vt 0.907577 0.258924
vt 0.935428 0.180662
vt 0.935428 0.258924
vt 0.954037 0.180662
vt 0.954037 0.258924
vt 0.960572 0.180662
vt 0.960572 0.258924
vt 0.754329 0.258924
vt 0.754329 0.180662
vt 0.760864 0.180662
vt 0.760864 0.258924
vt 0.779474 0.180662
vt 0.779474 0.258924
vt 0.807325 0.180662
vt 0.807325 0.258924
vt 0.840178 0.180662
vt 0.840178 0.258924
vt 0.607936 0.788457
vt 0.682127 0.788457
vt 0.682127 0.757313
vt 0.607936 0.757313
vt 0.682127 0.730910
vt 0.607936 0.730910
vt 0.682127 0.713269
vt 0.607936 0.713269
vt 0.760864 0.258924
vt 0.760864 0.180662
vt 0.754329 0.180662
vt 0.754329 0.258924
vt 0.935428 0.180662
vt 0.954037 0.180662
vt 0.960572 0.180662
vt 0.779474 0.180662
vt 0.807325 0.180662
vt 0.840178 0.180662
vt 0.874724 0.180662
vt 0.907577 0.180662
vt 0.760864 0.429866
vt 0.017149 0.730910
vt 0.445885 0.730910
vt 0.445885 0.713269
vt 0.017149 0.713269
vt 0.017149 0.757313
vt 0.445885 0.757313
vt 0.204642 0.798368
vt 0.204642 0.776288
vt 0.219293 0.785120
vt 0.219293 0.789536
vt 0.807325 0.429866
vt 0.779474 0.429866
vt 0.760864 0.429866
vt 0.954037 0.429866
vt 0.935428 0.429866
vt 0.907577 0.429866
vt 0.954037 0.258924
vt 0.960572 0.258924
vt 0.607936 0.878752
vt 0.607936 0.896394
vt 0.607936 0.852350
vt 0.546919 0.852350
vt 0.540443 0.855649
vt 0.501096 0.852350
vt 0.492745 0.848094
vt 0.567036 0.836328
vt 0.607936 0.821206
vt 0.574638 0.821206
vt 0.840361 0.400816
vt 0.857698 0.403562
vt 0.857698 0.291352
vt 0.874724 0.294049
vt 0.470821 0.805066
vt 0.473424 0.821501
vt 0.577194 0.805066
vt 0.574503 0.788457
vt 0.682127 0.821206
vt 0.682127 0.852350
vt 0.682127 0.878752
vt 0.682127 0.896394
vt 0.507572 0.754482
vt 0.502016 0.757313
vt 0.545999 0.757313
vt 0.555270 0.762037
vt 0.480978 0.773803
vt 0.473424 0.788630
vt 0.840178 0.294191
vt 0.824720 0.302067
vt 0.807325 0.370656
vt 0.812308 0.380435
vt 0.807325 0.324259
vt 0.804339 0.330120
vt 0.911057 0.364795
vt 0.907577 0.371626
vt 0.903088 0.314480
vt 0.907577 0.323289
vt 0.874724 0.400866
vt 0.890676 0.392847
vt 0.480978 0.836328
vt 0.492745 0.848094
vt 0.480978 0.836328
vt 0.812308 0.314480
vt 0.812308 0.314480
vt 0.807325 0.324259
vt 0.507572 0.855649
vt 0.507572 0.855649
vt 0.501096 0.852350
vt 0.524007 0.858252
vt 0.524007 0.858252
vt 0.890676 0.302067
vt 0.890676 0.302067
vt 0.874724 0.294049
vt 0.492745 0.762037
vt 0.492745 0.762037
vt 0.502016 0.757313
vt 0.540443 0.855649
vt 0.907577 0.323289
vt 0.903088 0.314480
vt 0.555270 0.848094
vt 0.555270 0.848094
vt 0.546919 0.852350
vt 0.801593 0.347457
vt 0.804339 0.330120
vt 0.801593 0.347457
vt 0.840178 0.294191
vt 0.824720 0.302067
vt 0.480978 0.773803
vt 0.577194 0.805066
vt 0.574638 0.821206
vt 0.473424 0.821501
vt 0.507572 0.754482
vt 0.804339 0.364795
vt 0.804339 0.364795
vt 0.840361 0.400816
vt 0.857698 0.403562
vt 0.540443 0.754482
vt 0.524007 0.751879
vt 0.524007 0.751879
vt 0.540443 0.754482
vt 0.913803 0.347457
vt 0.911057 0.364795
vt 0.913803 0.347457
vt 0.903088 0.380435
vt 0.824720 0.392847
vt 0.911057 0.330120
vt 0.567036 0.773803
vt 0.911057 0.330120
vt 0.470821 0.805066
vt 0.473424 0.788630
vt 0.812308 0.380435
vt 0.824720 0.392847
vt 0.404740 0.822002
vt 0.407719 0.803193
vt 0.402892 0.803193
vt 0.400149 0.820512
vt 0.382629 0.852435
vt 0.365323 0.861134
vt 0.363854 0.856545
vt 0.379789 0.848535
vt 0.285985 0.803193
vt 0.288964 0.822002
vt 0.293543 0.820512
vt 0.290800 0.803193
vt 0.297610 0.838969
vt 0.311075 0.852435
vt 0.313903 0.848535
vt 0.301504 0.836136
vt 0.327845 0.745406
vt 0.311075 0.753950
vt 0.313903 0.757851
vt 0.329345 0.749983
vt 0.346852 0.864060
vt 0.346846 0.859239
vt 0.292204 0.778026
vt 0.288964 0.784384
vt 0.293543 0.785874
vt 0.296527 0.780019
vt 0.400964 0.776973
vt 0.404740 0.784384
vt 0.400149 0.785874
vt 0.396672 0.779050
vt 0.400964 0.829412
vt 0.396094 0.838969
vt 0.392188 0.836136
vt 0.396672 0.827336
vt 0.382629 0.852435
vt 0.396094 0.838969
vt 0.392188 0.836136
vt 0.379789 0.848535
vt 0.365323 0.745251
vt 0.346852 0.742326
vt 0.346846 0.747147
vt 0.363854 0.749841
vt 0.407719 0.803193
vt 0.402892 0.803193
vt 0.396094 0.767416
vt 0.382629 0.753950
vt 0.379789 0.757851
vt 0.392188 0.770250
vt 0.365323 0.745251
vt 0.382629 0.753950
vt 0.379789 0.757851
vt 0.363854 0.749841
vt 0.346852 0.864060
vt 0.365661 0.861080
vt 0.364165 0.856496
vt 0.346846 0.859239
vt 0.400964 0.776973
vt 0.396672 0.779050
vt 0.327845 0.745406
vt 0.346852 0.742326
vt 0.346846 0.747147
vt 0.329345 0.749983
vt 0.288964 0.784384
vt 0.292204 0.778026
vt 0.296527 0.780019
vt 0.293543 0.785874
vt 0.396094 0.767416
vt 0.392188 0.770250
vt 0.292204 0.828360
vt 0.288964 0.822002
vt 0.293543 0.820512
vt 0.296527 0.826367
vt 0.404740 0.822002
vt 0.400149 0.820512
vt 0.545999 0.757313
vt 0.567036 0.836328
vt 0.907577 0.371626
vt 0.807325 0.370656
vt 0.555270 0.762037
vt 0.874724 0.400866
vt 0.890676 0.392847
vt 0.903088 0.380435
vt 0.857698 0.291352
vt 0.567036 0.773803
vt 0.574503 0.788457
vt 0.329527 0.856496
vt 0.329527 0.856496
vt 0.313903 0.848535
vt 0.301504 0.836136
vt 0.296527 0.826367
vt 0.290800 0.803193
vt 0.301504 0.770250
vt 0.301504 0.770250
vt 0.313903 0.757851
vt 0.400149 0.785874
vt 0.396672 0.827336
vt 0.297610 0.767416
vt 0.328043 0.861080
vt 0.297610 0.767416
vt 0.311075 0.753950
vt 0.328043 0.861080
vt 0.292204 0.828360
vt 0.311075 0.852435
vt 0.297610 0.838969
vt 0.404740 0.784384
vt 0.400964 0.829412
vt 0.285985 0.803193
vt 0.761743 0.122407
vt 0.935666 0.122407
vt 0.935666 0.109774
vt 0.761743 0.109774
vt 0.508604 0.776288
vt 0.508604 0.798368
vt 0.493954 0.789536
vt 0.493954 0.785120
vt 0.935666 0.135693
vt 0.761743 0.135693
vt 0.761743 0.148327
vt 0.935666 0.148327
vt 0.204642 0.843666
vt 0.219293 0.834834
vt 0.204642 0.821586
vt 0.219293 0.830418
vn -0.0886 0.0000 0.9961
vn 0.0886 0.0000 0.9961
vn 0.0886 0.0000 -0.9961
vn -0.0886 0.0000 -0.9961
vn 0.0000 -1.0000 0.0000
vn 0.0000 1.0000 0.0000
vn 0.9941 0.0000 0.1084
vn 0.9941 0.0000 -0.1084
vn 0.3519 0.0000 -0.9360
vn 0.6723 0.0000 -0.7403
vn 0.9099 0.0000 -0.4148
vn 0.0869 0.0000 0.9962
vn 0.3465 0.0000 0.9380
vn 0.6659 0.0000 0.7461
vn 0.9072 0.0000 0.4207
vn 0.9939 0.0000 0.1104
vn -0.3519 0.0000 0.9360
vn -0.6723 0.0000 0.7403
vn -0.9099 0.0000 0.4148
vn -0.9941 0.0000 0.1084
vn -0.0869 0.0000 -0.9962
vn -0.3465 0.0000 -0.9380
vn -0.6659 0.0000 -0.7461
vn -0.9072 0.0000 -0.4207
vn -0.9939 0.0000 -0.1104
vn -0.9941 0.0000 -0.1084
vn -0.0799 -0.9968 -0.0053
vn -0.0799 -0.9968 0.0053
vn -0.0752 -0.9971 0.0110
vn -0.0752 -0.9971 -0.0110
vn -0.9099 0.0000 -0.4148
vn -0.6723 0.0000 -0.7403
vn -0.3519 0.0000 -0.9360
vn -0.0631 -0.9977 0.0257
vn -0.0598 -0.9978 0.0297
vn -0.0429 -0.9979 0.0495
vn -0.0443 -0.9979 0.0479
vn -0.0218 -0.9971 0.0733
vn -0.0283 -0.9974 0.0661
vn -0.0040 -0.9956 0.0931
vn -0.0109 -0.9963 0.0855
vn 0.9099 0.0000 0.4148
vn 0.6723 0.0000 0.7403
vn 0.3519 0.0000 0.9360
vn 0.0631 -0.9977 -0.0257
vn 0.0598 -0.9978 -0.0297
vn 0.0752 -0.9971 -0.0110
vn 0.0799 -0.9968 -0.0053
vn 0.0429 -0.9979 -0.0495
vn 0.0443 -0.9979 -0.0479
vn 0.0218 -0.9971 -0.0733
vn 0.0283 -0.9974 -0.0661
vn 0.0040 -0.9956 -0.0931
vn 0.0109 -0.9963 -0.0855
vn 0.0799 -0.9968 0.0053
vn 0.0752 -0.9971 0.0110
vn -0.0040 -0.9956 -0.0931
vn -0.0109 -0.9963 -0.0855
vn 0.0040 -0.9956 0.0931
vn 0.0109 -0.9963 0.0855
vn -0.0869 0.0000 0.9962
vn 0.0869 0.0000 -0.9962
vn 0.9939 0.0000 -0.1104
vn 0.3465 0.0000 -0.9380
vn 0.6659 0.0000 -0.7461
vn 0.9072 0.0000 -0.4207
vn -0.3465 0.0000 0.9380
vn -0.6659 0.0000 0.7461
vn -0.9072 0.0000 0.4207
vn -0.9939 0.0000 0.1104
vn -0.0598 -0.9978 -0.0297
vn -0.0631 -0.9977 -0.0257
vn -0.0443 -0.9979 -0.0479
vn -0.0429 -0.9979 -0.0495
vn -0.0283 -0.9974 -0.0661
vn -0.0218 -0.9971 -0.0733
vn 0.0598 -0.9978 0.0297
vn 0.0631 -0.9977 0.0257
vn 0.0443 -0.9979 0.0479
vn 0.0429 -0.9979 0.0495
vn 0.0283 -0.9974 0.0661
vn 0.0218 -0.9971 0.0733
vn 0.0186 0.0402 0.9990
vn 0.0194 0.0402 0.9990
vn -0.0194 0.0402 0.9990
vn -0.0186 0.0401 0.9990
vn 1.0000 -0.0000 0.0000
vn -0.0000 0.9992 -0.0402
vn -1.0000 0.0000 0.0000
vn -0.0178 -0.0402 -0.9990
vn 0.0178 -0.0402 -0.9990
vn -0.0787 0.0401 0.9961
vn -0.0638 0.0401 0.9972
vn -0.0779 0.0401 0.9962
vn -0.1889 0.0395 0.9812
vn -0.4764 0.0353 0.8785
vn -0.6683 0.0299 0.7433
vn -0.0771 -0.0401 -0.9962
vn -0.1889 -0.0395 -0.9812
vn -0.4764 -0.0353 -0.8785
vn -0.6683 -0.0299 -0.7433
vn 0.6683 -0.0299 -0.7433
vn 0.4764 -0.0353 -0.8785
vn 0.1889 -0.0395 -0.9812
vn 0.0771 -0.0401 -0.9962
vn 0.0178 0.0402 0.9990
vn 0.0771 0.0401 0.9962
vn 0.1889 0.0395 0.9812
vn 0.4764 0.0353 0.8785
vn 0.6683 0.0299 0.7433
vn 0.0000 -0.9992 0.0402
vn 0.0787 0.0401 0.9961
vn 0.0779 0.0401 0.9962
vn 0.0638 0.0401 0.9972
vn -0.0771 0.0401 0.9962
vn -0.1061 0.0400 0.9935
vn -0.1185 0.0399 0.9921
vn -0.0355 0.0402 0.9986
vn -0.0178 0.0402 0.9990
vn -0.0210 0.0402 0.9990
vn 0.0208 -0.0402 -0.9990
vn -0.0000 -0.0402 -0.9992
vn -0.0210 -0.0402 -0.9990
vn -0.0002 0.0401 0.9992
vn -0.0213 0.0400 0.9990
vn 0.0000 0.0402 0.9992
vn 0.0210 0.0402 0.9990
vn 0.1186 0.0399 0.9921
vn 0.1061 0.0400 0.9935
vn 0.0355 0.0402 0.9986
vn 0.0354 0.0401 0.9986
vn 0.0206 0.0400 0.9990
vn 0.0210 -0.0402 -0.9990
vn 0.0355 -0.0402 -0.9986
vn 0.1061 -0.0400 -0.9935
vn 0.1061 -0.0400 -0.9936
vn 0.1186 -0.0399 -0.9921
vn -0.1185 -0.0399 -0.9921
vn -0.1061 -0.0400 -0.9936
vn -0.0355 -0.0402 -0.9986
vn -0.1061 -0.0400 -0.9935
vn 0.5855 -0.8100 0.0326
vn 0.8078 -0.5890 0.0237
vn 0.8100 -0.5859 0.0236
vn 0.5897 -0.8070 0.0324
vn -0.8910 0.4536 -0.0182
vn -0.8078 0.5890 -0.0237
vn -0.8100 0.5859 -0.0236
vn 0.8910 -0.4536 0.0182
vn 0.9499 -0.3122 0.0126
vn 0.9520 -0.3059 0.0123
vn 0.3049 0.9516 -0.0383
vn 0.5832 0.8117 -0.0326
vn 0.5875 0.8086 -0.0325
vn 0.3076 0.9507 -0.0382
vn -0.8910 -0.4536 0.0182
vn -0.8078 -0.5890 0.0237
vn -0.8100 -0.5859 0.0236
vn 0.9499 0.3122 -0.0126
vn 0.9520 0.3059 -0.0123
vn 0.8078 0.5890 -0.0237
vn 0.8910 0.4536 -0.0182
vn 0.8100 0.5859 -0.0236
vn -0.9499 0.3122 -0.0126
vn -0.9520 0.3059 -0.0123
vn -0.5855 0.8100 -0.0326
vn -0.3092 0.9502 -0.0382
vn -0.3119 0.9493 -0.0382
vn -0.5897 0.8070 -0.0324
vn -0.5855 -0.8100 0.0326
vn -0.5897 -0.8070 0.0325
vn -0.0018 0.9992 -0.0402
vn 0.3075 -0.9508 0.0382
vn 0.3103 -0.9499 0.0382
vn -0.9499 -0.3122 0.0126
vn -0.9520 -0.3059 0.0123
vn -0.3075 -0.9508 0.0382
vn -0.3102 -0.9499 0.0382
vn -0.1186 -0.0399 -0.9921
vn 0.1185 0.0399 0.9921
vn -0.5897 -0.8070 0.0324
vn -0.0098 0.0110 0.9999
vn -0.0025 0.0402 0.9992
vn -0.0195 -0.0538 -0.9984
vn -0.0120 -0.0463 -0.9989
vn 0.0025 0.0402 0.9992
vn 0.0097 0.0109 0.9999
vn 0.0096 0.0109 0.9999
vn 0.0110 0.0267 0.9996
vn 0.0194 0.0266 0.9995
vn 0.0120 0.0463 0.9989
vn 0.0195 0.0538 0.9984
vn 0.0120 0.0679 0.9976
vn 0.0097 0.0695 0.9975
vn 0.0118 0.0672 0.9977
vn -0.0122 -0.0127 -0.9998
vn -0.0098 -0.0110 -0.9999
vn -0.0121 -0.0131 -0.9998
vn -0.0122 -0.0676 -0.9976
vn -0.0111 -0.0536 -0.9985
vn -0.0121 -0.0672 -0.9977
vn -0.0195 0.0265 0.9995
vn -0.0111 0.0268 0.9996
vn -0.0120 0.0463 0.9989
vn -0.0025 -0.0402 -0.9992
vn -0.0111 0.0536 0.9985
vn -0.0195 0.0538 0.9984
vn -0.0120 -0.0341 -0.9993
vn -0.0195 -0.0265 -0.9995
vn -0.0003 0.0401 0.9992
vn -0.0122 0.0340 0.9993
vn -0.0122 0.0676 0.9976
vn -0.0121 0.0672 0.9977
vn 0.0120 -0.0341 -0.9993
vn 0.0097 -0.0109 -0.9999
vn 0.0120 -0.0124 -0.9999
vn 0.0118 -0.0132 -0.9998
vn -0.0111 -0.0268 -0.9996
vn 0.0120 -0.0679 -0.9976
vn 0.0097 -0.0695 -0.9975
vn 0.0118 -0.0672 -0.9977
vn -0.0098 -0.0694 -0.9975
vn 0.3049 -0.9516 0.0383
vn 0.3076 -0.9507 0.0382
vn 0.5832 -0.8117 0.0326
vn 0.5875 -0.8086 0.0325
vn -0.5897 0.8070 -0.0325
vn -0.3077 -0.9507 0.0382
vn -0.5858 -0.8098 0.0326
vn -0.8079 -0.5888 0.0237
vn -0.9501 -0.3118 0.0125
vn -0.9501 0.3118 -0.0125
vn -0.8079 0.5888 -0.0237
vn -0.5857 0.8098 -0.0326
vn -0.3094 0.9502 -0.0382
vn 0.3051 0.9516 -0.0383
vn 0.5835 0.8115 -0.0326
vn 0.8079 0.5888 -0.0237
vn 0.9501 0.3118 -0.0125
vn 0.9501 -0.3118 0.0125
vn 0.5846 -0.8106 0.0334
vn 0.8079 -0.5888 0.0237
vn 0.3072 -0.9508 0.0390
vn 0.3055 -0.9514 0.0390
vn 0.0110 0.0536 0.9985
vn 0.0118 0.0342 0.9993
vn 0.0110 -0.0267 -0.9996
vn 0.0195 -0.0265 -0.9995
vn 0.0118 -0.0462 -0.9989
vn 0.0120 0.0124 0.9999
vn 0.0118 0.0132 0.9998
vn 0.0194 -0.0537 -0.9984
vn 0.0110 -0.0536 -0.9985
vn -0.0098 0.0694 0.9975
vn -0.0122 0.0127 0.9998
vn -0.0121 0.0131 0.9998
vn 0.0025 -0.0402 -0.9992
usemtl Monitor
s 1
f 352/430/250 347/431/251 332/432/251 328/433/250
f 342/434/252 357/435/253 322/436/253 338/437/252
f 302/438/254 304/439/254 305/440/254 306/441/254 303/442/254 312/443/254 314/444/254 315/445/254 316/446/254 313/447/254 317/448/254 319/449/254 320/450/254 321/451/254 318/452/254 307/453/254 309/454/254 310/455/254 311/456/254 308/457/254
f 327/458/255 329/459/255 330/460/255 331/461/255 328/433/255 332/432/255 334/462/255 335/463/255 336/464/255 333/465/255 337/466/255 339/467/255 340/468/255 341/469/255 338/437/255 322/436/255 324/470/255 325/471/255 326/472/255 323/473/255
f 351/474/256 346/475/257 337/466/257 333/465/256
f 342/434/252 338/437/252 341/469/258 343/476/258
f 343/476/258 341/469/258 340/468/259 344/477/259
f 344/477/259 340/468/259 339/467/260 345/478/260
f 345/478/260 339/467/260 337/466/257 346/475/257
f 366/479/261 308/457/261 311/456/262 373/480/262
f 373/480/262 311/456/262 310/455/263 374/481/263
f 374/481/263 310/455/263 309/454/264 375/482/264
f 375/482/264 309/454/264 307/453/265 376/483/265
f 352/430/250 328/433/250 331/461/266 353/484/266
f 353/484/266 331/461/266 330/460/267 354/485/267
f 354/485/267 330/460/267 329/459/268 355/486/268
f 355/486/268 329/459/268 327/458/269 356/487/269
f 371/488/270 313/447/270 316/446/271 378/489/271
f 378/489/271 316/446/271 315/445/272 379/490/272
f 379/490/272 315/445/272 314/444/273 380/491/273
f 380/491/273 314/444/273 312/443/274 381/492/274
f 361/493/275 356/487/269 327/458/269 323/473/275
f 381/494/276 370/495/277 356/487/278 361/493/279
f 326/472/280 360/496/280 361/493/275 323/473/275
f 325/471/281 359/497/281 360/496/280 326/472/280
f 324/470/282 358/498/282 359/497/281 325/471/281
f 322/436/253 357/435/253 358/498/282 324/470/282
f 369/499/283 355/486/284 356/487/278 370/495/277
f 368/500/285 354/485/286 355/486/284 369/499/283
f 367/501/287 353/484/288 354/485/286 368/500/285
f 377/502/289 352/430/290 353/484/288 367/501/287
f 336/464/291 350/503/291 351/474/256 333/465/256
f 335/463/292 349/504/292 350/503/291 336/464/291
f 334/462/293 348/505/293 349/504/292 335/463/292
f 332/432/251 347/431/251 348/505/293 334/462/293
f 364/506/294 345/478/295 346/475/296 365/507/297
f 363/508/298 344/477/299 345/478/295 364/506/294
f 362/509/300 343/476/301 344/477/299 363/508/298
f 372/510/302 342/434/303 343/476/301 362/509/300
f 376/511/304 365/507/297 346/475/296 351/474/305
f 372/510/302 371/512/306 357/435/307 342/434/303
f 377/502/289 366/513/308 347/431/309 352/430/290
f 302/438/310 308/457/261 366/479/261 377/514/310
f 317/448/311 313/447/270 371/488/270 372/515/311
f 307/453/265 318/452/312 365/516/312 376/483/265
f 317/448/311 372/515/311 362/517/313 319/449/313
f 319/449/313 362/517/313 363/518/314 320/450/314
f 320/450/314 363/518/314 364/519/315 321/451/315
f 321/451/315 364/519/315 365/516/312 318/452/312
f 302/438/310 377/514/310 367/520/316 304/439/316
f 304/439/316 367/520/316 368/521/317 305/440/317
f 305/440/317 368/521/317 369/522/318 306/441/318
f 306/441/318 369/522/318 370/523/319 303/442/319
f 312/443/274 303/442/319 370/523/319 381/492/274
f 360/496/320 380/524/321 381/494/276 361/493/279
f 359/497/322 379/525/323 380/524/321 360/496/320
f 358/498/324 378/526/325 379/525/323 359/497/322
f 357/435/307 371/512/306 378/526/325 358/498/324
f 350/503/326 375/527/327 376/511/304 351/474/305
f 349/504/328 374/528/329 375/527/327 350/503/326
f 348/505/330 373/529/331 374/528/329 349/504/328
f 347/431/309 366/513/308 373/529/331 348/505/330
f 437/530/332 407/531/333 388/532/334 422/533/335
f 432/534/336 417/535/336 408/536/336 441/537/336
f 410/538/337 411/539/337 408/536/337 417/535/337 419/540/337 420/541/337 421/542/337 418/543/337 397/544/337 399/545/337 400/546/337 401/547/337 398/548/337 387/549/337 389/550/337 390/551/337 391/552/337 388/553/337 407/554/337 409/555/337
f 426/556/338 387/549/338 398/548/338 431/557/338
f 427/558/339 397/544/339 418/543/340 436/559/340
f 388/560/334 391/561/341 613/562/342 610/563/342
f 423/564/343 391/565/341 390/566/344 424/567/344
f 424/567/344 390/566/344 389/568/345 425/569/345
f 425/570/345 389/550/345 387/549/346 426/556/346
f 446/571/339 393/572/339 396/573/347 450/574/347
f 450/574/347 396/573/347 395/575/348 451/576/348
f 451/576/348 395/575/348 394/577/349 452/578/349
f 452/578/349 394/577/349 392/579/350 453/580/350
f 447/581/351 413/582/351 416/583/352 454/584/352
f 454/584/352 416/583/352 415/585/353 455/586/353
f 455/586/353 415/585/353 414/587/354 456/588/354
f 456/588/354 414/587/354 412/589/340 457/590/340
f 448/591/355 403/592/355 406/593/356 458/594/356
f 458/594/356 406/593/356 405/595/357 459/596/357
f 459/596/357 405/595/357 404/597/358 460/598/358
f 460/599/358 404/600/358 402/601/359 461/602/359
f 385/603/360 386/604/360 383/605/360 392/579/360 394/577/360 395/575/360 396/573/360 393/572/360 412/589/360 414/587/360 415/585/360 416/583/360 413/582/360 402/601/360 404/600/360 405/606/360 406/607/360 403/608/360 382/609/360 384/610/360
f 411/539/358 440/611/358 441/537/359 408/536/359
f 410/612/357 439/613/357 440/614/358 411/615/358
f 409/616/361 438/617/362 439/613/357 410/612/357
f 437/618/332 438/619/362 609/620/363 608/621/363
f 421/542/354 435/622/354 436/559/340 418/543/340
f 420/541/353 434/623/353 435/622/354 421/542/354
f 419/540/352 433/624/352 434/623/353 420/541/353
f 417/535/351 432/534/351 433/624/352 419/540/352
f 401/547/349 430/625/349 431/557/350 398/548/350
f 400/546/348 429/626/348 430/625/349 401/547/349
f 399/545/347 428/627/347 429/626/348 400/546/348
f 397/544/339 427/558/339 428/627/347 399/545/347
f 444/628/345 425/570/345 426/556/346 445/629/346
f 443/630/344 424/567/344 425/569/345 444/631/345
f 443/630/344 442/632/364 463/633/365 465/634/366
f 423/564/343 464/635/365 472/636/367
f 471/637/367 449/638/368 468/639/369
f 436/559/340 478/640/370 475/641/371
f 476/642/371 446/571/339 474/643/372
f 445/629/338 426/556/338 431/557/338 453/580/338
f 447/581/336 432/534/336 441/537/336 461/602/336
f 479/644/373 422/533/335 469/645/374
f 482/646/375 448/591/355 480/647/376
f 403/592/355 448/591/355 449/638/368 382/648/368
f 413/582/336 447/581/336 461/602/336 402/601/336
f 383/605/338 445/629/338 453/580/338 392/579/338
f 393/572/339 446/571/339 457/590/340 412/589/340
f 382/648/368 449/638/368 442/632/364 384/649/364
f 384/649/364 442/632/364 443/630/344 385/650/344
f 385/650/344 443/630/344 444/631/345 386/651/345
f 386/604/345 444/628/345 445/629/346 383/605/346
f 440/611/358 460/599/358 461/602/359 441/537/359
f 439/613/357 459/596/357 460/598/358 440/614/358
f 487/652/377 439/613/357 438/617/362 483/653/378
f 458/594/356 484/654/378 490/655/379
f 489/656/380 437/530/332 481/657/381
f 457/590/340 477/658/382 492/659/383
f 435/622/354 495/660/384 496/661/383
f 455/586/353 456/588/354 493/662/385 500/663/386
f 433/624/352 454/584/352 455/586/353 434/623/353
f 432/534/351 447/581/351 454/584/352 433/624/352
f 430/625/349 452/578/349 453/580/350 431/557/350
f 429/626/348 451/576/348 452/578/349 430/625/349
f 505/664/387 429/626/348 428/627/347 504/665/388
f 507/666/389 450/574/347 503/667/390
f 428/627/347 427/558/339 473/668/372 508/669/389
f 467/670/391 472/636/392 518/671/393 547/672/394
f 493/662/395 494/673/396 531/674/397 551/675/395
f 464/635/398 466/676/399 515/677/400 514/678/398
f 466/676/399 462/679/336 512/680/336 515/677/400
f 474/643/401 506/681/402 541/682/403 519/683/404
f 483/653/405 491/684/406 545/685/407 550/686/405
f 462/679/336 465/634/408 513/687/409 512/680/336
f 507/666/410 503/667/411 555/688/411 511/689/412
f 463/633/411 470/690/410 510/691/412 546/692/411
f 498/693/338 500/663/413 539/694/414 537/695/338
f 492/659/415 477/658/416 521/696/417 530/697/418
f 491/684/406 489/656/419 544/698/420 545/685/407
f 468/639/401 482/646/421 524/699/421 516/700/404
f 469/645/422 467/670/391 547/672/394 522/701/423
f 487/652/424 483/653/405 550/686/405 528/702/425
f 499/703/424 498/693/338 537/695/338 538/704/425
f 475/641/360 478/640/426 556/705/427 549/706/360
f 465/634/408 463/633/411 546/692/411 513/687/409
f 485/707/413 486/708/338 527/709/338 526/710/414
f 502/711/336 505/664/399 536/712/400 535/713/336
f 427/558/339 436/559/340 475/641/371
f 473/668/372 427/558/339 475/641/371
f 428/627/347 508/669/389 509/714/389
f 436/559/340 435/622/354 497/715/383 478/640/370
f 497/715/383 435/622/354 496/661/383
f 504/665/388 428/627/347 509/714/389
f 451/576/348 429/626/348 505/664/387 502/711/428
f 435/622/354 434/623/353 499/703/386 495/660/384
f 434/623/353 455/586/353 498/693/386 499/703/386
f 498/693/386 455/586/353 500/663/386
f 456/588/354 457/590/340 492/659/383 494/673/383
f 493/662/385 456/588/354 494/673/383
f 476/642/371 457/590/340 446/571/339
f 477/658/382 457/590/340 476/642/371
f 474/643/372 446/571/339 506/681/389
f 506/681/389 446/571/339 450/574/347 507/666/389
f 450/574/347 451/576/348 501/716/428 503/667/390
f 501/716/428 451/576/348 502/711/428
f 437/530/332 422/533/335 479/644/373
f 481/657/381 437/530/332 479/644/373
f 469/645/374 422/533/335 467/670/367
f 438/617/362 437/530/332 489/656/380 491/684/379
f 422/533/335 423/564/343 472/636/367 467/670/367
f 483/653/378 438/617/362 491/684/379
f 486/708/429 459/596/357 439/613/357 487/652/377
f 464/635/365 423/564/343 424/567/344 466/676/366
f 466/676/366 424/567/344 443/630/344 462/679/366
f 485/707/429 459/596/357 486/708/429
f 484/654/378 458/594/356 459/596/357 485/707/429
f 462/679/366 443/630/344 465/634/366
f 442/632/364 449/638/368 471/637/367 470/690/367
f 463/633/365 442/632/364 470/690/367
f 449/638/368 448/591/355 482/646/375
f 468/639/369 449/638/368 482/646/375
f 480/647/376 448/591/355 488/717/379
f 448/591/355 458/594/356 490/655/379 488/717/379
f 503/667/411 501/716/408 554/718/409 555/688/411
f 481/657/426 479/644/360 523/719/360 553/720/427
f 479/644/360 469/645/422 522/701/423 523/719/360
f 497/715/419 496/661/406 533/721/407 534/722/430
f 515/723/431 512/724/432 560/725/432 563/726/431
f 542/727/433 548/728/434 596/729/434 590/730/433
f 527/731/435 528/732/436 576/733/437 575/734/435
f 545/735/438 544/736/439 592/737/439 593/738/438
f 532/739/440 557/740/441 605/741/441 580/742/440
f 548/728/434 549/743/371 597/744/371 596/729/434
f 525/745/442 526/746/443 574/747/443 573/748/444
f 555/749/445 554/750/446 602/751/446 603/752/447
f 540/753/448 543/754/449 591/755/449 588/756/450
f 547/757/451 518/758/452 566/759/452 595/760/451
f 516/761/453 524/762/375 572/763/375 564/764/453
f 554/750/446 535/765/454 583/766/454 602/751/446
f 510/767/455 517/768/456 565/769/456 558/770/455
f 519/771/457 541/772/458 589/773/458 567/774/457
f 523/775/459 522/776/460 570/777/460 571/778/459
f 543/754/449 542/727/433 590/730/433 591/755/449
f 546/779/461 510/767/455 558/770/455 594/780/462
f 521/781/463 520/782/371 568/783/371 569/784/463
f 539/785/464 551/786/465 599/787/466 587/788/464
f 541/772/458 511/789/467 559/790/467 589/773/458
f 520/782/371 519/771/457 567/774/457 568/783/371
f 552/791/468 538/792/469 586/793/469 600/794/470
f 536/795/471 540/753/448 588/756/450 584/796/471
f 522/776/460 547/757/451 595/760/451 570/777/460
f 484/654/395 485/707/413 526/710/414 525/797/395
f 471/637/402 468/639/401 516/700/404 517/798/403
f 505/664/399 504/665/398 540/799/398 536/712/400
f 496/661/406 495/660/405 552/800/405 533/721/407
f 486/708/338 487/652/424 528/702/425 527/709/338
f 478/640/426 497/715/419 534/722/430 556/705/427
f 472/636/392 464/635/398 514/678/398 518/671/393
f 506/681/402 507/666/410 511/689/412 541/682/403
f 489/656/419 481/657/426 553/720/427 544/698/420
f 490/655/396 484/654/395 525/797/395 529/801/397
f 473/668/472 475/641/360 549/706/360 548/802/473
f 509/714/392 508/669/474 542/803/475 543/804/393
f 470/690/410 471/637/402 517/798/403 510/691/412
f 495/660/405 499/703/424 538/704/425 552/800/405
f 494/673/396 492/659/415 530/697/418 531/674/397
f 476/642/421 474/643/401 519/683/404 520/805/421
f 500/663/413 493/662/395 551/675/395 539/694/414
f 477/658/416 476/642/421 520/805/421 521/696/417
f 480/647/416 488/717/415 557/806/476 532/807/417
f 482/646/421 480/647/416 532/807/417 524/699/421
f 488/717/415 490/655/396 529/801/397 557/806/476
f 504/665/398 509/714/392 543/804/393 540/799/398
f 508/669/474 473/668/472 548/802/473 542/803/475
f 501/716/408 502/711/336 535/713/336 554/718/409
f 597/744/360 604/808/477 601/809/477 571/778/360
f 601/809/477 604/808/477 582/810/478 592/737/478
f 593/738/479 592/737/478 582/810/478 581/811/479
f 598/812/405 593/738/479 581/811/479 600/794/405
f 576/733/480 586/793/480 585/813/338 575/734/338
f 575/734/338 585/813/338 587/788/481 574/747/481
f 599/787/395 579/814/482 577/815/482 573/748/395
f 578/816/483 605/741/483 577/815/482 579/814/482
f 569/784/484 580/742/484 605/741/483 578/816/483
f 580/742/484 569/784/484 568/783/421 572/763/421
f 572/763/421 568/783/421 567/774/485 564/764/485
f 589/773/486 565/769/486 564/764/485 567/774/485
f 559/790/487 558/770/487 565/769/486 589/773/486
f 603/752/411 602/751/488 561/817/488 594/780/411
f 560/725/336 561/817/488 602/751/488 583/766/336
f 563/726/489 560/725/336 583/766/336 584/796/489
f 562/818/398 563/726/489 584/796/489 588/756/398
f 595/760/490 566/759/491 591/755/491 590/730/490
f 570/777/492 595/760/490 590/730/490 596/729/493
f 597/744/360 571/778/360 570/777/492 596/729/493
f 566/759/491 562/818/398 588/756/398 591/755/491
f 559/790/487 603/752/411 594/780/411 558/770/487
f 576/733/480 598/812/405 600/794/405 586/793/480
f 587/788/481 599/787/395 573/748/395 574/747/481
f 511/789/467 555/749/445 603/752/447 559/790/467
f 529/819/494 525/745/442 573/748/444 577/815/494
f 553/820/495 523/775/459 571/778/459 601/809/495
f 531/821/496 530/822/497 578/816/497 579/814/496
f 526/746/443 527/731/435 575/734/435 574/747/443
f 549/743/371 556/823/498 604/808/498 597/744/371
f 524/762/375 532/739/440 580/742/440 572/763/375
f 528/732/436 550/824/499 598/812/500 576/733/437
f 556/823/498 534/825/501 582/810/501 604/808/498
f 534/825/501 533/826/502 581/811/502 582/810/501
f 550/824/499 545/735/438 593/738/438 598/812/500
f 512/724/432 513/827/503 561/817/503 560/725/432
f 535/765/454 536/795/471 584/796/471 583/766/454
f 551/786/465 531/821/496 579/814/496 599/787/466
f 514/828/504 515/723/431 563/726/431 562/818/505
f 557/740/441 529/819/494 577/815/494 605/741/441
f 538/792/469 537/829/506 585/813/506 586/793/469
f 533/826/502 552/791/468 600/794/470 581/811/502
f 517/768/456 516/761/453 564/764/453 565/769/456
f 530/822/497 521/781/463 569/784/463 578/816/497
f 537/829/506 539/785/464 587/788/464 585/813/506
f 544/736/439 553/820/495 601/809/495 592/737/439
f 518/758/452 514/828/504 562/818/505 566/759/452
f 513/827/503 546/779/461 594/780/462 561/817/503
f 606/830/363 608/831/363 609/832/363 607/833/363
f 409/834/361 407/835/333 606/836/363 607/837/363
f 407/835/333 437/618/332 608/621/363 606/836/363
f 438/619/362 409/834/361 607/837/363 609/620/363
f 611/838/342 610/839/342 613/840/342 612/841/342
f 391/561/341 423/842/343 612/843/342 613/562/342
f 423/842/343 422/844/335 611/845/342 612/843/342
f 422/844/335 388/560/334 610/563/342 611/845/342
