# Blender v3.6.23 OBJ File: 'Mouse.blend'
# www.blender.org
mtllib Mouse.mtl
o Mouse_Plane
v 0.000000 1.487643 -0.386503
v 0.000000 1.212090 -1.209579
v 0.000000 1.598379 0.358669
v 0.000000 1.550308 0.975590
v 0.000000 1.337419 1.549851
v 0.000000 1.047273 1.954569
v 0.000000 0.590593 2.293656
v 0.000000 0.220614 2.417259
v 0.000000 0.989759 -1.640548
v 0.000000 0.647249 -2.099957
v 0.000000 0.885032 -1.804350
v 0.000000 0.516769 -2.212621
v 0.000000 0.784597 -1.945572
v -0.846434 0.009509 -1.779675
v 0.846434 0.009509 -1.779675
v 0.248208 0.009509 -2.046724
v -0.248208 0.009509 -2.046724
v 0.989894 0.009509 -1.638452
v -0.989894 0.009509 -1.638452
v 0.633837 0.009509 -1.934059
v -0.633837 0.009509 -1.934059
v 1.078505 0.009509 -1.474651
v -1.078505 0.009509 -1.474651
v 0.283859 0.009509 2.417259
v -0.283859 0.009509 2.417259
v 0.575683 0.009509 2.293657
v -0.575683 0.009509 2.293657
v 0.906095 0.009509 1.954569
v -0.906095 0.009509 1.954569
v 1.091620 0.009509 1.549851
v -1.091620 0.009509 1.549851
v 1.207652 0.009509 0.975590
v -1.207652 0.009509 0.975590
v 1.172141 0.009509 0.358669
v -1.172141 0.009509 0.358669
v 1.146927 0.009509 -1.209579
v -1.146927 0.009509 -1.209579
v 1.112483 0.009509 -0.386503
v -1.112483 0.009509 -0.386503
v -0.479576 1.212090 -1.209579
v -0.757304 1.179955 -1.209579
v -0.456217 0.989759 -1.640548
v -0.737075 0.956192 -1.640548
v -0.163335 0.647249 -2.099957
v -0.447619 0.586712 -2.099957
v -0.404206 0.885032 -1.804350
v -0.688895 0.848165 -1.804350
v -0.210572 0.414495 -2.212621
v 0.000000 0.516769 -2.212621
v -0.609260 0.741431 -1.945572
v -0.320986 0.784597 -1.945572
v -0.756826 1.455764 -0.386503
v -0.481407 1.487643 -0.386503
v -0.446506 1.598379 0.358669
v -0.720119 1.564805 0.358669
v -0.391402 1.550308 0.975590
v -0.663545 1.513522 0.975590
v -0.300548 1.337419 1.549851
v -0.570795 1.293649 1.549851
v -0.208135 1.047273 1.954569
v -0.475682 0.993130 1.954569
v -0.080235 0.590593 2.293656
v -0.340108 0.510472 2.293656
v -0.155067 0.073824 2.417259
v 0.756826 1.455764 -0.386503
v 0.481407 1.487643 -0.386503
v 0.446506 1.598379 0.358669
v 0.720119 1.564805 0.358669
v 0.391402 1.550308 0.975590
v 0.663545 1.513522 0.975590
v 0.300548 1.337419 1.549851
v 0.570795 1.293649 1.549851
v 0.208135 1.047273 1.954569
v 0.475682 0.993130 1.954569
v 0.080235 0.590593 2.293656
v 0.340108 0.510472 2.293656
v 0.155067 0.073824 2.417259
v 0.479576 1.212090 -1.209579
v 0.757304 1.179955 -1.209579
v 0.456216 0.989759 -1.640548
v 0.737075 0.956192 -1.640548
v 0.163335 0.647249 -2.099957
v 0.447619 0.586712 -2.099957
v 0.404206 0.885032 -1.804350
v 0.688895 0.848165 -1.804350
v 0.000000 0.516769 -2.212621
v 0.210572 0.414495 -2.212621
v 0.609260 0.741431 -1.945572
v 0.320986 0.784597 -1.945572
v -1.243577 0.675181 -0.386503
v -1.101215 0.373875 -1.804350
v -0.248208 0.189744 -2.212621
v -1.199791 0.426239 -1.640548
v -0.633837 0.254984 -2.099957
v -1.061160 0.706513 0.975590
v -0.879376 0.600069 1.549851
v -0.440035 0.226656 2.293657
v -1.172141 0.730549 0.358669
v -0.695010 0.454996 1.954569
v -0.155067 0.041666 2.417259
v -0.941622 0.323658 -1.945572
v -1.242583 0.537404 -1.209579
v 1.172141 0.730549 0.358669
v 1.199791 0.426239 -1.640548
v 0.879376 0.600069 1.549851
v 0.941622 0.323658 -1.945572
v 1.243577 0.675181 -0.386503
v 0.633837 0.254984 -2.099957
v 1.242583 0.537404 -1.209579
v 1.061160 0.706513 0.975590
v 0.440035 0.226656 2.293657
v 0.248208 0.189744 -2.212621
v 0.155067 0.041666 2.417259
v 1.101215 0.373875 -1.804350
v 0.695010 0.454996 1.954569
v -1.101215 0.373875 -1.804350
v -0.633837 0.254984 -2.099957
v -1.061160 0.706513 0.975590
v -1.172141 0.730549 0.358669
v -0.695010 0.454996 1.954569
v -0.155067 0.041666 2.417259
v -1.243577 0.675181 -0.386503
v -0.248208 0.189744 -2.212621
v -1.199791 0.426239 -1.640548
v -0.879376 0.600069 1.549851
v -0.440035 0.226656 2.293657
v -0.941622 0.323658 -1.945572
v -1.242583 0.537404 -1.209579
v 1.172141 0.730549 0.358669
v 0.879376 0.600069 1.549851
v 0.941622 0.323658 -1.945572
v 0.248208 0.189744 -2.212621
v 1.101215 0.373875 -1.804350
v 1.199791 0.426239 -1.640548
v 1.243577 0.675181 -0.386503
v 0.633837 0.254984 -2.099957
v 1.242583 0.537404 -1.209579
v 1.061160 0.706513 0.975590
v 0.440035 0.226656 2.293657
v 0.155067 0.041666 2.417259
v 0.695010 0.454996 1.954569
v -0.140666 0.927548 -1.647629
v 0.140666 0.927548 -1.647629
v -0.140666 0.793725 -1.627307
v 0.140666 0.793725 -1.627307
v -0.140666 0.673002 -1.568331
v 0.140666 0.673002 -1.568331
v -0.140666 0.577195 -1.476474
v 0.140666 0.577196 -1.476474
v -0.140666 0.515684 -1.360727
v 0.140666 0.515684 -1.360727
v -0.140666 0.494489 -1.232421
v 0.140666 0.494489 -1.232421
v -0.140666 0.515684 -1.104114
v 0.140666 0.515684 -1.104114
v -0.140666 0.577195 -0.988367
v 0.140666 0.577196 -0.988367
v -0.140666 0.673002 -0.896510
v 0.140666 0.673002 -0.896510
v -0.140666 0.793725 -0.837534
v 0.140666 0.793725 -0.837534
v -0.140666 0.927548 -0.817212
v 0.140666 0.927548 -0.817212
v -0.140666 1.061371 -0.837534
v 0.140666 1.061371 -0.837534
v -0.140666 1.182094 -0.896510
v 0.140666 1.182094 -0.896510
v -0.140666 1.277901 -0.988367
v 0.140666 1.277901 -0.988367
v -0.140666 1.339412 -1.104114
v 0.140666 1.339412 -1.104114
v -0.140666 1.360608 -1.232421
v 0.140666 1.360608 -1.232421
v -0.140666 1.339412 -1.360727
v 0.140666 1.339412 -1.360727
v -0.140666 1.277901 -1.476474
v 0.140666 1.277901 -1.476474
v -0.140666 1.182094 -1.568331
v 0.140666 1.182094 -1.568331
v -0.140666 1.061371 -1.627307
v 0.140666 1.061371 -1.627307
v -1.243577 1.233710 -0.386503
v -1.160238 1.360527 -0.386503
v 1.160238 1.360527 -0.386503
v 1.243577 1.233710 -0.386503
v -1.158045 1.085274 -1.209579
v -1.242583 0.958318 -1.209579
v 1.242583 0.958318 -1.209579
v 1.158045 1.085274 -1.209579
v -1.172141 1.343919 0.358669
v -1.089742 1.472227 0.358669
v 1.089742 1.472227 0.358669
v 1.172141 1.343919 0.358669
v -1.061160 1.294781 0.975590
v -0.979567 1.426092 0.975590
v 0.979567 1.426092 0.975590
v 1.061160 1.294781 0.975590
v -0.879376 1.080217 1.549851
v -0.799068 1.217440 1.549851
v 0.799068 1.217440 1.549851
v 0.879376 1.080217 1.549851
v -0.695010 0.787899 1.954569
v -0.616883 0.933485 1.954569
v 0.616883 0.933485 1.954569
v 0.695010 0.787899 1.954569
v -0.440035 0.328991 2.293657
v -0.368628 0.491444 2.293656
v 0.368628 0.491444 2.293656
v 0.440035 0.328991 2.293657
v -0.155067 0.073824 2.417259
v -0.155067 0.041666 2.417259
v 0.155067 0.041666 2.417259
v 0.155067 0.073824 2.417259
v -1.113613 0.864056 -1.640548
v -1.199791 0.736055 -1.640548
v 1.199791 0.736055 -1.640548
v 1.113613 0.864056 -1.640548
v -0.633837 0.394268 -2.099957
v -0.551661 0.538522 -2.099957
v 0.633837 0.394268 -2.099957
v 0.551661 0.538522 -2.099957
v -1.013096 0.761734 -1.804350
v -1.101215 0.631522 -1.804350
v 1.101215 0.631522 -1.804350
v 1.013096 0.761734 -1.804350
v -0.248208 0.263886 -2.212621
v -0.210572 0.414495 -2.212621
v -0.169261 0.369979 -2.212621
v 0.210572 0.414495 -2.212621
v 0.248208 0.263886 -2.212621
v 0.169261 0.369979 -2.212621
v 0.852269 0.665665 -1.945572
v 0.941622 0.531370 -1.945572
v -0.852269 0.665665 -1.945572
v -0.941622 0.531370 -1.945572
vt 0.340462 0.575927
vt 0.247278 0.575927
vt 0.247278 0.426982
vt 0.333707 0.426982
vt 0.160850 0.426982
vt 0.171516 0.303671
vt 0.247278 0.303671
vt 0.189103 0.188887
vt 0.247278 0.188887
vt 0.206990 0.107992
vt 0.247278 0.107992
vt 0.231748 0.040215
vt 0.247278 0.040215
vt 0.247278 0.015509
vt 0.812053 0.105447
vt 0.858420 0.087084
vt 0.858420 0.061489
vt 0.812053 0.070673
vt 0.247278 0.826587
vt 0.335586 0.826587
vt 0.325519 0.859328
vt 0.247278 0.859328
vt 0.309411 0.887555
vt 0.247278 0.887555
vt 0.278895 0.918414
vt 0.247278 0.918414
vt 0.247278 0.940933
vt 0.247278 0.940933
vt 0.876043 0.057162
vt 0.891237 0.053014
vt 0.873388 0.027060
vt 0.858195 0.027060
vt 0.154094 0.575927
vt 0.185146 0.887555
vt 0.215662 0.918414
vt 0.907846 0.058847
vt 0.891237 0.070174
vt 0.891237 0.053014
vt 0.907847 0.047340
vt 0.876043 0.078448
vt 0.876043 0.057162
vt 0.247278 0.740444
vt 0.154449 0.740444
vt 0.340108 0.740444
vt 0.876043 0.078448
vt 0.876043 0.057162
vt 0.421853 0.029717
vt 0.435151 0.053454
vt 0.435151 0.045000
vt 0.421853 0.029717
vt 0.471632 0.091368
vt 0.471632 0.063864
vt 0.515175 0.115518
vt 0.515175 0.075850
vt 0.576958 0.133244
vt 0.576958 0.084644
vt 0.858420 0.087084
vt 0.858420 0.061489
vt 0.158971 0.826587
vt 0.643330 0.137304
vt 0.723501 0.128199
vt 0.723501 0.082055
vt 0.643330 0.086629
vt 0.247278 0.940933
vt 0.169038 0.859328
vt 0.891237 0.070174
vt 0.907846 0.058847
vt 0.907847 0.047340
vt 0.891237 0.053014
vt 0.435151 0.053454
vt 0.421853 0.029717
vt 0.421853 0.029717
vt 0.435151 0.045000
vt 0.471632 0.091368
vt 0.471632 0.063864
vt 0.515175 0.115518
vt 0.515175 0.075850
vt 0.576958 0.133244
vt 0.576958 0.084644
vt 0.643330 0.137304
vt 0.643330 0.086629
vt 0.022696 0.575927
vt 0.100783 0.575927
vt 0.100690 0.740444
vt 0.023120 0.740444
vt 0.323040 0.303671
vt 0.305455 0.188887
vt 0.287566 0.107992
vt 0.262809 0.040215
vt 0.758342 0.036690
vt 0.648249 0.036690
vt 0.648249 0.036690
vt 0.659049 0.027502
vt 0.747543 0.027502
vt 0.758342 0.036690
vt 0.919968 0.048076
vt 0.919968 0.041950
vt 0.919968 0.048076
vt 0.919968 0.041950
vt 0.365210 0.887555
vt 0.412248 0.887555
vt 0.354061 0.918414
vt 0.333922 0.918414
vt 0.723501 0.128199
vt 0.723501 0.082055
vt 0.104606 0.826587
vt 0.160635 0.918414
vt 0.129347 0.887555
vt 0.113932 0.859328
vt 0.206519 0.940933
vt 0.181445 0.040215
vt 0.217263 0.015509
vt 0.155202 0.107992
vt 0.136792 0.188887
vt 0.118839 0.303671
vt 0.107888 0.426982
vt 0.386669 0.426982
vt 0.393774 0.575927
vt 0.375718 0.303671
vt 0.357765 0.188887
vt 0.339354 0.107992
vt 0.313111 0.040215
vt 0.277294 0.015509
vt 0.380625 0.859328
vt 0.288038 0.940933
vt 0.389951 0.826587
vt 0.393866 0.740444
vt 0.812053 0.105447
vt 0.812053 0.070673
vt 0.643330 0.086629
vt 0.723501 0.082055
vt 0.723501 0.027060
vt 0.643330 0.027060
vt 0.421853 0.029717
vt 0.435151 0.045000
vt 0.435151 0.027060
vt 0.421853 0.027060
vt 0.515175 0.075850
vt 0.471632 0.063864
vt 0.471632 0.027060
vt 0.515175 0.027060
vt 0.876043 0.057162
vt 0.858420 0.061489
vt 0.840572 0.027060
vt 0.858195 0.027060
vt 0.812053 0.070673
vt 0.812053 0.027060
vt 0.471632 0.063864
vt 0.515175 0.075850
vt 0.515175 0.027060
vt 0.471632 0.027060
vt 0.643330 0.086629
vt 0.576958 0.084644
vt 0.576958 0.027060
vt 0.643330 0.027060
vt 0.858420 0.061489
vt 0.840572 0.027060
vt 0.576958 0.084644
vt 0.576958 0.027060
vt 0.812053 0.070673
vt 0.812053 0.027060
vt 0.723501 0.082055
vt 0.723501 0.027060
vt 0.435151 0.045000
vt 0.435151 0.027060
vt 0.907847 0.047340
vt 0.919968 0.041950
vt 0.902119 0.027060
vt 0.889998 0.027060
vt 0.919968 0.041950
vt 0.907847 0.047340
vt 0.889998 0.027060
vt 0.902119 0.027060
vt 0.891237 0.053014
vt 0.873388 0.027060
vt 0.421853 0.029717
vt 0.421853 0.027060
vt 0.000000 1.000000
vt 0.000000 1.000000
vt 0.000000 1.000000
vt 0.000000 1.000000
vt 0.000000 0.000000
vt 0.000000 0.000000
vt 0.000000 0.000000
vt 0.000000 0.000000
vt 0.000000 1.000000
vt 0.000000 1.000000
vt 0.000000 1.000000
vt 0.000000 1.000000
vt 0.000000 0.000000
vt 0.000000 0.000000
vt 0.000000 0.000000
vt 0.000000 0.000000
vt 0.000000 1.000000
vt 0.000000 1.000000
vt 0.000000 0.000000
vt 0.000000 0.000000
vt 0.000000 1.000000
vt 0.000000 1.000000
vt 0.000000 0.000000
vt 0.000000 0.000000
vt 0.000000 0.000000
vt 0.000000 0.000000
vt 1.000000 0.000000
vt 1.000000 0.000000
vt 1.000000 0.000000
vt 1.000000 0.000000
vt 1.000000 0.000000
vt 1.000000 0.000000
vt 1.000000 0.000000
vt 1.000000 0.000000
vt 1.000000 1.000000
vt 1.000000 1.000000
vt 1.000000 1.000000
vt 1.000000 1.000000
vt 1.000000 1.000000
vt 1.000000 1.000000
vt 1.000000 0.000000
vt 1.000000 0.000000
vt 1.000000 0.000000
vt 1.000000 0.000000
vt 1.000000 1.000000
vt 1.000000 1.000000
vt 1.000000 0.000000
vt 1.000000 0.000000
vt 1.000000 1.000000
vt 1.000000 1.000000
vt 1.000000 1.000000
vt 1.000000 1.000000
vt 0.051178 0.859328
vt 0.082308 0.887555
vt 0.175925 0.040215
vt 0.217263 0.015509
vt 0.036342 0.426982
vt 0.092606 0.188887
vt 0.127871 0.107992
vt 0.031721 0.826587
vt 0.057668 0.303671
vt 0.140496 0.918414
vt 0.206519 0.940933
vt 0.401951 0.188887
vt 0.366686 0.107992
vt 0.462836 0.826587
vt 0.443379 0.859328
vt 0.458215 0.426982
vt 0.436889 0.303671
vt 0.471436 0.740444
vt 0.471861 0.575927
vt 0.318632 0.040215
vt 0.288038 0.940933
vt 0.277294 0.015509
vt 0.703296 0.057797
vt 0.919968 0.056841
vt 0.919968 0.056841
vt 0.421853 0.044501
vt 0.421853 0.032373
vt 0.421853 0.032373
vt 0.616233 0.939207
vt 0.583130 0.914385
vt 0.560793 0.891679
vt 0.546996 0.865342
vt 0.536342 0.822722
vt 0.541705 0.690384
vt 0.532416 0.570572
vt 0.526887 0.471380
vt 0.544953 0.379048
vt 0.573841 0.313976
vt 0.625287 0.259455
vt 0.670726 0.239582
vt 0.759122 0.239582
vt 0.804561 0.259455
vt 0.856007 0.313976
vt 0.884895 0.379048
vt 0.902961 0.471380
vt 0.897432 0.570572
vt 0.888143 0.690384
vt 0.893506 0.822722
vt 0.882852 0.865342
vt 0.869055 0.891679
vt 0.846718 0.914385
vt 0.813616 0.939207
vt 0.753571 0.957322
vt 0.676277 0.957322
vt 0.948813 0.585418
vt 0.992978 0.585418
vt 0.992978 0.555517
vt 0.948813 0.555517
vt 0.992978 0.528542
vt 0.948813 0.528542
vt 0.992978 0.507135
vt 0.948813 0.507135
vt 0.948813 0.528542
vt 0.992978 0.528542
vt 0.992978 0.555517
vt 0.948813 0.555517
vt 0.992978 0.585418
vt 0.948813 0.585418
vt 0.992978 0.615320
vt 0.948813 0.615320
vt 0.992978 0.642294
vt 0.948813 0.642294
vt 0.948813 0.507135
vt 0.992978 0.507135
vt 0.992978 0.528542
vt 0.948813 0.528542
vt 0.992978 0.555517
vt 0.948813 0.555517
vt 0.992978 0.585418
vt 0.948813 0.585418
vt 0.992978 0.615320
vt 0.948813 0.615320
vt 0.992978 0.642294
vt 0.948813 0.642294
vt 0.992978 0.663702
vt 0.948813 0.663702
vt 0.948813 0.642294
vt 0.992978 0.642294
vt 0.992978 0.615320
vt 0.948813 0.615320
vt 0.992978 0.585418
vt 0.948813 0.585418
vt 0.992978 0.555517
vt 0.948813 0.555517
vt 0.992978 0.528542
vt 0.948813 0.528542
vt 0.948813 0.663702
vt 0.992978 0.663702
vt 0.992978 0.642294
vt 0.948813 0.642294
vt 0.628820 0.226748
vt 0.596800 0.231820
vt 0.564779 0.226748
vt 0.535893 0.212030
vt 0.512969 0.189106
vt 0.498251 0.160220
vt 0.493180 0.128200
vt 0.498251 0.096179
vt 0.512969 0.067293
vt 0.535893 0.044369
vt 0.564779 0.029651
vt 0.596800 0.024580
vt 0.628820 0.029651
vt 0.657706 0.044369
vt 0.680630 0.067293
vt 0.695348 0.096179
vt 0.700420 0.128200
vt 0.695348 0.160220
vt 0.680630 0.189106
vt 0.657706 0.212030
vt 0.992978 0.615320
vt 0.948813 0.615320
vt 0.812675 0.231820
vt 0.844695 0.226748
vt 0.873581 0.212030
vt 0.896505 0.189106
vt 0.911223 0.160220
vt 0.916295 0.128200
vt 0.911223 0.096179
vt 0.896505 0.067293
vt 0.873581 0.044369
vt 0.844695 0.029651
vt 0.812675 0.024580
vt 0.780654 0.029651
vt 0.751768 0.044369
vt 0.728844 0.067293
vt 0.714126 0.096179
vt 0.709055 0.128200
vt 0.714126 0.160220
vt 0.728844 0.189106
vt 0.751768 0.212030
vt 0.780654 0.226748
vt 0.919968 0.056841
vt 0.919968 0.056841
vt 0.723501 0.137051
vt 0.811668 0.114384
vt 0.811668 0.114384
vt 0.723501 0.137051
vt 0.722525 0.137162
vt 0.643330 0.146199
vt 0.643330 0.146199
vt 0.722525 0.137162
vt 0.641969 0.146118
vt 0.576958 0.142228
vt 0.576958 0.142228
vt 0.641969 0.146118
vt 0.575168 0.141718
vt 0.515175 0.124640
vt 0.515175 0.124640
vt 0.575168 0.141718
vt 0.513494 0.123715
vt 0.471632 0.100669
vt 0.471632 0.100669
vt 0.513494 0.123715
vt 0.470405 0.099400
vt 0.435151 0.062940
vt 0.435151 0.062940
vt 0.470405 0.099400
vt 0.434460 0.061351
vt 0.421853 0.032373
vt 0.421853 0.032373
vt 0.434460 0.061351
vt 0.812231 0.114215
vt 0.858420 0.095917
vt 0.858420 0.095917
vt 0.812231 0.114215
vt 0.861222 0.094542
vt 0.876043 0.087265
vt 0.907847 0.067620
vt 0.894410 0.076800
vt 0.879672 0.085283
vt 0.891237 0.078967
vt 0.876043 0.087265
vt 0.861222 0.094542
vt 0.909856 0.065833
vt 0.909856 0.065833
vt 0.891237 0.078967
vt 0.879672 0.085283
vt 0.894410 0.076800
vt 0.907847 0.067620
vn 0.0577 0.9714 -0.2304
vn 0.0000 0.9724 -0.2331
vn 0.0000 0.9994 -0.0349
vn 0.0623 0.9976 -0.0294
vn -0.0623 0.9976 -0.0294
vn -0.0678 0.9725 0.2228
vn 0.0000 0.9767 0.2147
vn -0.0711 0.8751 0.4788
vn 0.0000 0.8830 0.4693
vn -0.0723 0.7018 0.7087
vn 0.0000 0.7130 0.7012
vn -0.0696 0.4484 0.8911
vn 0.0000 0.4623 0.8867
vn 0.0000 0.1907 0.9817
vn -0.9993 0.0000 -0.0370
vn -0.8813 0.2423 -0.4058
vn -0.9368 0.0000 -0.3497
vn -0.9984 0.0000 -0.0564
vn 0.0000 0.8665 -0.4991
vn 0.0550 0.8602 -0.5070
vn 0.0559 0.8124 -0.5804
vn 0.0000 0.8290 -0.5593
vn 0.0614 0.7477 -0.6612
vn 0.0000 0.7822 -0.6230
vn 0.0730 0.6279 -0.7749
vn 0.0000 0.7019 -0.7123
vn 0.0374 0.3306 -0.9430
vn 0.0000 0.6535 -0.7569
vn -0.7397 -0.4522 -0.4984
vn -0.5728 -0.4969 -0.6519
vn -0.5700 -0.4973 -0.6541
vn -0.7431 -0.4508 -0.4945
vn -0.0577 0.9714 -0.2304
vn -0.0614 0.7477 -0.6612
vn -0.0730 0.6279 -0.7749
vn 0.3529 0.0834 -0.9319
vn 0.5214 0.1395 -0.8418
vn 0.5452 0.0000 -0.8383
vn 0.3562 0.0000 -0.9344
vn 0.7041 0.1886 -0.6846
vn 0.7527 0.0000 -0.6584
vn 0.0000 0.9212 -0.3891
vn -0.0541 0.9197 -0.3890
vn 0.0541 0.9197 -0.3890
vn -0.7041 0.1886 -0.6846
vn -0.7527 0.0000 -0.6584
vn -0.3680 0.0390 0.9290
vn -0.5761 0.0845 0.8130
vn -0.2847 0.0000 0.9586
vn -0.2032 0.0000 0.9791
vn -0.7674 0.1755 0.6166
vn -0.8458 0.0000 0.5334
vn -0.8606 0.2348 0.4519
vn -0.9301 0.0000 0.3673
vn -0.9185 0.2762 0.2830
vn -0.9698 0.0000 0.2440
vn 0.8813 0.2423 -0.4058
vn 0.9368 0.0000 -0.3497
vn -0.0550 0.8602 -0.5070
vn -0.9905 0.0000 0.1373
vn -0.9985 0.0000 0.0548
vn -0.9990 0.0000 0.0436
vn -0.9907 0.0000 0.1359
vn -0.0649 0.5738 -0.8164
vn -0.0559 0.8124 -0.5804
vn -0.5214 0.1395 -0.8418
vn -0.3529 0.0834 -0.9319
vn -0.3562 0.0000 -0.9344
vn -0.5452 0.0000 -0.8383
vn 0.5761 0.0845 0.8130
vn 0.3680 0.0390 0.9290
vn 0.2032 0.0000 0.9791
vn 0.2847 0.0000 0.9586
vn 0.7674 0.1755 0.6166
vn 0.8458 0.0000 0.5334
vn 0.8606 0.2348 0.4519
vn 0.9301 0.0000 0.3673
vn 0.9185 0.2762 0.2830
vn 0.9698 0.0000 0.2440
vn 0.9905 0.0000 0.1373
vn 0.9907 0.0000 0.1359
vn -0.2269 0.9476 -0.2248
vn -0.1712 0.9596 -0.2232
vn -0.1608 0.9076 -0.3877
vn -0.2135 0.8962 -0.3889
vn 0.0678 0.9725 0.2228
vn 0.0711 0.8751 0.4788
vn 0.0723 0.7018 0.7087
vn 0.0696 0.4484 0.8911
vn -0.1040 0.2732 -0.9563
vn 0.1040 0.2732 -0.9563
vn 0.1230 0.1318 -0.9836
vn -0.0000 0.0000 -1.0000
vn -0.1230 0.1318 -0.9836
vn 0.1478 0.0254 -0.9887
vn 0.1340 0.0000 -0.9910
vn -0.1478 0.0254 -0.9887
vn -0.1340 0.0000 -0.9910
vn 0.1598 0.6755 -0.7199
vn 0.3306 0.4756 -0.8152
vn 0.2561 0.3358 -0.9065
vn 0.1577 0.5182 -0.8406
vn 0.9985 0.0000 0.0548
vn 0.9990 0.0000 0.0436
vn -0.1565 0.8392 -0.5209
vn -0.1577 0.5182 -0.8406
vn -0.1598 0.6755 -0.7199
vn -0.1556 0.7704 -0.6183
vn -0.1705 0.3987 0.9011
vn -0.0769 0.1261 0.9890
vn -0.2002 0.6597 0.7243
vn -0.2055 0.8415 0.4997
vn -0.1979 0.9499 0.2420
vn -0.1845 0.9827 -0.0161
vn 0.1845 0.9827 -0.0161
vn 0.1712 0.9596 -0.2232
vn 0.1979 0.9499 0.2420
vn 0.2055 0.8415 0.4997
vn 0.2002 0.6597 0.7243
vn 0.1705 0.3987 0.9011
vn 0.0769 0.1261 0.9890
vn 0.1556 0.7704 -0.6183
vn 0.1565 0.8392 -0.5209
vn 0.1608 0.9076 -0.3877
vn 0.9993 0.0000 -0.0370
vn 0.9984 0.0000 -0.0564
vn -0.9993 0.0054 0.0375
vn -0.9903 -0.1372 0.0226
vn -0.9898 -0.1406 0.0235
vn -0.9993 0.0042 0.0372
vn -0.1060 0.1125 0.9880
vn -0.2590 0.1759 0.9497
vn -0.5356 0.3364 0.7746
vn -0.2898 0.3074 0.9063
vn 0.8887 0.2980 0.3484
vn 0.7590 0.3440 0.5529
vn 0.7640 0.3439 0.5460
vn 0.8885 0.2982 0.3488
vn 0.7397 -0.4522 -0.4984
vn 0.9050 -0.3339 -0.2637
vn 0.9162 -0.3202 -0.2411
vn 0.7431 -0.4508 -0.4945
vn -0.9771 -0.2108 -0.0294
vn -0.9757 -0.2151 -0.0409
vn -0.7590 0.3440 0.5529
vn -0.8887 0.2980 0.3484
vn -0.8885 0.2982 0.3488
vn -0.7640 0.3439 0.5460
vn 0.9993 0.0054 0.0375
vn 0.9704 0.1794 0.1615
vn 0.9696 0.1815 0.1643
vn 0.9993 0.0042 0.0372
vn -0.9050 -0.3339 -0.2637
vn -0.9162 -0.3202 -0.2411
vn -0.9704 0.1794 0.1615
vn -0.9696 0.1815 0.1643
vn 0.9771 -0.2108 -0.0294
vn 0.9757 -0.2151 -0.0409
vn 0.9903 -0.1372 0.0226
vn 0.9898 -0.1406 0.0235
vn 0.2590 0.1759 0.9497
vn 0.5356 0.3364 0.7746
vn -0.3792 -0.5537 -0.7413
vn -0.2718 -0.5916 -0.7590
vn -0.3992 -0.5456 -0.7368
vn 0.2718 -0.5916 -0.7590
vn 0.3792 -0.5537 -0.7413
vn 0.3992 -0.5456 -0.7368
vn 0.5728 -0.4969 -0.6519
vn 0.5700 -0.4973 -0.6541
vn 0.1060 0.1125 0.9880
vn 0.2898 0.3074 0.9063
vn 0.0000 0.0000 1.0000
vn -0.4124 0.5783 -0.7039
vn -0.3306 0.4756 -0.8152
vn -0.3410 0.2989 0.8913
vn -0.2471 0.1515 0.9571
vn -0.2442 0.9695 -0.0187
vn -0.2697 0.8229 0.5000
vn -0.4653 0.5130 0.7214
vn -0.2043 0.8292 -0.5203
vn -0.2608 0.9356 0.2382
vn -0.2561 0.3358 -0.9065
vn 0.2697 0.8229 0.5000
vn 0.4653 0.5130 0.7214
vn 0.2043 0.8292 -0.5203
vn 0.4124 0.5783 -0.7039
vn 0.2442 0.9695 -0.0187
vn 0.2608 0.9356 0.2382
vn 0.2135 0.8962 -0.3889
vn 0.2269 0.9476 -0.2248
vn 0.3410 0.2989 0.8913
vn 0.2471 0.1515 0.9571
vn 0.0000 -0.6772 -0.7358
vn 0.0000 -1.0000 -0.0000
vn 0.0000 -0.2980 -0.9546
vn 0.0000 -0.5724 -0.8200
vn 0.0000 -0.7976 -0.6032
vn 0.0000 -0.9473 -0.3203
vn 0.0000 -0.9473 0.3203
vn 0.0000 -0.7976 0.6032
vn 0.0000 -0.5724 0.8200
vn 0.0000 -0.2980 0.9546
vn -0.0000 0.2980 0.9546
vn -0.0000 0.5724 0.8200
vn -0.0000 0.7976 0.6032
vn 0.0000 0.9473 0.3203
vn 0.0000 1.0000 0.0000
vn 0.0000 0.9473 -0.3203
vn 0.0000 0.7976 -0.6032
vn 0.0000 0.5724 -0.8200
vn 1.0000 0.0000 -0.0000
vn 0.0000 0.2980 -0.9546
vn -1.0000 -0.0000 -0.0000
vn -0.7985 0.5320 -0.2816
vn -0.8314 0.5457 -0.1050
vn -0.8340 0.5460 -0.0793
vn -0.8064 0.5360 -0.2500
vn 0.8314 0.5457 -0.1050
vn 0.7985 0.5320 -0.2816
vn 0.8064 0.5360 -0.2500
vn 0.8340 0.5460 -0.0793
vn 0.8385 0.5377 0.0885
vn 0.8379 0.5363 0.1011
vn -0.8385 0.5377 0.0885
vn -0.8379 0.5363 0.1011
vn 0.8108 0.5013 0.3022
vn -0.8108 0.5013 0.3022
vn 0.7488 0.4386 0.4970
vn -0.7488 0.4386 0.4970
vn -0.7258 0.4875 -0.4853
vn 0.7258 0.4875 -0.4853
usemtl Mouse
s 1
f 66/1/1 1/2/2 3/3/3 67/4/4
f 3/3/3 54/5/5 56/6/6 4/7/7
f 4/7/7 56/6/6 58/8/8 5/9/9
f 5/9/9 58/8/8 60/10/10 6/11/11
f 6/11/11 60/10/10 62/12/12 7/13/13
f 7/13/13 62/12/12 8/14/14
f 187/15/15 215/16/16 124/17/17 128/18/18
f 9/19/19 80/20/20 84/21/21 11/22/22
f 11/22/22 84/21/21 89/23/23 13/24/24
f 13/24/24 89/23/23 82/25/25 10/26/26
f 10/26/26 82/25/25 86/27/27 12/28/28
f 91/29/29 101/30/30 14/31/31 19/32/32
f 1/2/2 53/33/33 54/5/5 3/3/3
f 51/34/34 13/24/24 10/26/26 44/35/35
f 220/36/36 233/37/37 131/38/38 136/39/39
f 233/37/37 224/40/40 133/41/41 131/38/38
f 53/33/33 1/2/2 2/42/42 40/43/43
f 2/42/42 78/44/44 80/20/20 9/19/19
f 215/16/16 223/45/45 116/46/46 124/17/17
f 211/47/47 206/48/48 126/49/49 121/50/50
f 206/48/48 202/51/51 120/52/52 126/49/49
f 202/51/51 198/53/53 125/54/54 120/52/52
f 198/53/53 194/55/55 118/56/56 125/54/54
f 224/40/40 216/57/57 134/58/58 133/41/41
f 40/43/43 2/42/42 9/19/19 42/59/59
f 190/60/60 182/61/61 122/62/62 119/63/63
f 44/35/35 10/26/26 12/28/28 49/64/64
f 42/59/59 9/19/19 11/22/22 46/65/65
f 235/66/66 218/67/67 117/68/68 127/69/69
f 46/65/65 11/22/22 13/24/24 51/34/34
f 209/70/70 212/71/71 140/72/72 139/73/73
f 205/74/74 209/70/70 139/73/73 141/75/75
f 201/76/76 205/74/74 141/75/75 130/77/77
f 197/78/78 201/76/76 130/77/77 138/79/79
f 193/80/80 197/78/78 138/79/79 129/81/81
f 183/82/82 52/83/83 41/84/84 186/85/85
f 1/2/2 66/1/1 78/44/44 2/42/42
f 67/4/4 3/3/3 4/7/7 69/86/86
f 69/86/86 4/7/7 5/9/9 71/87/87
f 71/87/87 5/9/9 6/11/11 73/88/88
f 73/88/88 6/11/11 7/13/13 75/89/89
f 75/89/89 7/13/13 8/14/14
f 48/90/90 87/91/91 229/92/92 231/93/93 228/94/93 227/95/94
f 230/96/95 220/36/36 136/39/39 132/97/96
f 218/67/67 226/98/97 123/99/98 117/68/68
f 88/100/99 232/101/100 221/102/101 83/103/102
f 194/55/55 190/60/60 119/63/63 118/56/56
f 185/104/103 193/80/80 129/81/81 135/105/104
f 53/33/33 40/43/43 41/84/84 52/83/83
f 40/43/43 42/59/59 43/106/105 41/84/84
f 51/34/34 44/35/35 45/107/106 50/108/107
f 42/59/59 46/65/65 47/109/108 43/106/105
f 44/35/35 49/64/64 48/110/90 45/107/106
f 46/65/65 51/34/34 50/108/107 47/109/108
f 63/111/109 64/112/110 8/14/14 62/12/12
f 61/113/111 63/111/109 62/12/12 60/10/10
f 59/114/112 61/113/111 60/10/10 58/8/8
f 57/115/113 59/114/112 58/8/8 56/6/6
f 55/116/114 57/115/113 56/6/6 54/5/5
f 52/83/83 55/116/114 54/5/5 53/33/33
f 66/1/1 67/4/4 68/117/115 65/118/116
f 67/4/4 69/86/86 70/119/117 68/117/115
f 69/86/86 71/87/87 72/120/118 70/119/117
f 71/87/87 73/88/88 74/121/119 72/120/118
f 73/88/88 75/89/89 76/122/120 74/121/119
f 75/89/89 8/14/14 77/123/121 76/122/120
f 85/124/122 88/100/99 89/23/23 84/21/21
f 83/103/102 87/125/91 86/27/27 82/25/25
f 81/126/123 85/124/122 84/21/21 80/20/20
f 88/100/99 83/103/102 82/25/25 89/23/23
f 79/127/124 81/126/123 80/20/20 78/44/44
f 65/118/116 79/127/124 78/44/44 66/1/1
f 216/57/57 188/128/125 137/129/126 134/58/58
f 98/130/127 90/131/128 39/132/129 35/133/130
f 100/134/131 97/135/132 27/136/133 25/137/134
f 105/138/135 115/139/136 28/140/137 30/141/138
f 114/142/139 104/143/140 22/144/141 18/145/142
f 90/131/128 102/146/143 37/147/144 39/132/129
f 99/148/145 96/149/146 31/150/147 29/151/148
f 103/152/149 110/153/150 32/154/151 34/155/152
f 102/146/143 93/156/153 23/157/154 37/147/144
f 95/158/155 98/130/127 35/133/130 33/159/156
f 104/143/140 109/160/157 36/161/158 22/144/141
f 109/160/157 107/162/159 38/163/160 36/161/158
f 115/139/136 111/164/161 26/165/162 28/140/137
f 94/166/163 92/167/164 17/168/164 21/169/165
f 97/135/132 99/148/145 29/151/148 27/136/133
f 112/170/166 108/171/167 20/172/168 16/173/166
f 110/153/150 105/138/135 30/141/138 32/154/151
f 93/156/153 91/29/29 19/32/32 23/157/154
f 106/174/169 114/142/139 18/145/142 15/175/170
f 96/149/146 95/158/155 33/159/156 31/150/147
f 108/171/167 106/174/169 15/175/170 20/172/168
f 107/162/159 103/152/149 34/155/152 38/163/160
f 111/164/161 113/176/171 24/177/172 26/165/162
f 101/30/30 94/166/163 21/169/165 14/31/31
f 127/178/173 117/179/173 94/180/173 101/181/173
f 125/182/173 118/183/173 95/184/173 96/185/173
f 124/186/173 116/187/173 91/188/173 93/189/173
f 126/190/49 120/191/173 99/192/173 97/193/132
f 117/179/173 123/194/173 92/195/173 94/180/173
f 118/183/173 119/196/173 98/197/173 95/184/173
f 128/198/173 124/186/173 93/189/173 102/199/173
f 120/191/173 125/182/173 96/185/173 99/192/173
f 122/200/173 128/198/173 102/199/173 90/201/173
f 121/202/50 126/190/49 97/193/132 100/203/131
f 119/196/173 122/200/173 90/201/173 98/197/173
f 116/187/173 127/178/173 101/181/173 91/188/173
f 139/204/73 140/205/72 113/206/171 111/207/161
f 135/208/173 129/209/173 103/210/173 107/211/173
f 136/212/173 131/213/173 106/214/173 108/215/173
f 131/213/173 133/216/173 114/217/173 106/214/173
f 138/218/173 130/219/173 105/220/173 110/221/173
f 132/222/173 136/212/173 108/215/173 112/223/173
f 141/224/173 139/204/73 111/207/161 115/225/173
f 137/226/173 135/208/173 107/211/173 109/227/173
f 134/228/173 137/226/173 109/227/173 104/229/173
f 129/209/173 138/218/173 110/221/173 103/210/173
f 133/216/173 134/228/173 104/229/173 114/217/173
f 130/219/173 141/224/173 115/225/173 105/220/173
f 222/230/174 47/109/108 50/108/107 234/231/175
f 188/128/125 185/104/103 135/105/104 137/129/126
f 63/111/109 207/232/176 210/233/177 64/112/110
f 52/83/83 183/82/82 191/234/178 55/116/114
f 59/114/112 199/235/179 203/236/180 61/113/111
f 186/85/85 41/84/84 43/106/105 214/237/181
f 55/116/114 191/234/178 195/238/182 57/115/113
f 234/231/175 50/108/107 45/107/106 219/239/183
f 61/113/111 203/236/180 207/232/176 63/111/109
f 214/237/181 43/106/105 47/109/108 222/230/174
f 57/115/113 195/238/182 199/235/179 59/114/112
f 219/239/183 45/107/106 48/110/90 227/240/94
f 200/241/184 72/120/118 74/121/119 204/242/185
f 81/126/123 217/243/186 225/244/187 85/124/122
f 192/245/188 68/117/115 70/119/117 196/246/189
f 79/127/124 189/247/190 217/243/186 81/126/123
f 65/118/116 184/248/191 189/247/190 79/127/124
f 204/242/185 74/121/119 76/122/120 208/249/192
f 223/45/45 235/66/66 127/69/69 116/46/46
f 196/246/189 70/119/117 72/120/118 200/241/184
f 85/124/122 225/244/187 232/101/100 88/100/99
f 83/103/102 221/102/101 229/250/92 87/125/91
f 184/248/191 65/118/116 68/117/115 192/245/188
f 208/249/192 76/122/120 77/123/121 213/251/193
f 87/91/91 48/90/90 86/252/27
f 132/97/96 123/99/98 226/98/97 228/253/93 231/254/93 230/96/95
f 16/173/194 17/168/194 123/99/194 132/97/194
f 8/255/14 64/256/110 77/257/121
f 77/257/121 64/256/110 121/50/173 140/72/173
f 25/137/173 24/177/173 140/72/173 121/50/173
f 20/258/195 15/259/195 18/260/195 22/261/195 36/262/195 38/263/195 34/264/195 32/265/195 30/266/195 28/267/195 26/268/195 24/269/195 25/270/195 27/271/195 29/272/195 31/273/195 33/274/195 35/275/195 39/276/195 37/277/195 23/278/195 19/279/195 14/280/195 21/281/195 17/282/195 16/283/195
f 142/284/93 143/285/93 145/286/196 144/287/196
f 144/287/196 145/286/196 147/288/197 146/289/197
f 146/289/197 147/288/197 149/290/198 148/291/198
f 148/292/198 149/293/198 151/294/199 150/295/199
f 150/295/199 151/294/199 153/296/195 152/297/195
f 152/297/195 153/296/195 155/298/200 154/299/200
f 154/299/200 155/298/200 157/300/201 156/301/201
f 156/302/201 157/303/201 159/304/202 158/305/202
f 158/305/202 159/304/202 161/306/203 160/307/203
f 160/307/203 161/306/203 163/308/173 162/309/173
f 162/309/173 163/308/173 165/310/204 164/311/204
f 164/311/204 165/310/204 167/312/205 166/313/205
f 166/313/205 167/312/205 169/314/206 168/315/206
f 168/316/206 169/317/206 171/318/207 170/319/207
f 170/319/207 171/318/207 173/320/208 172/321/208
f 172/321/208 173/320/208 175/322/209 174/323/209
f 174/323/209 175/322/209 177/324/210 176/325/210
f 176/326/210 177/327/210 179/328/211 178/329/211
f 145/330/212 143/331/212 181/332/212 179/333/212 177/334/212 175/335/212 173/336/212 171/337/212 169/338/212 167/339/212 165/340/212 163/341/212 161/342/212 159/343/212 157/344/212 155/345/212 153/346/212 151/347/212 149/348/212 147/349/212
f 178/329/211 179/328/211 181/350/213 180/351/213
f 180/351/213 181/350/213 143/285/93 142/284/93
f 142/352/214 144/353/214 146/354/214 148/355/214 150/356/214 152/357/214 154/358/214 156/359/214 158/360/214 160/361/214 162/362/214 164/363/214 166/364/214 168/365/214 170/366/214 172/367/214 174/368/214 176/369/214 178/370/214 180/371/214
f 226/98/97 227/372/94 228/253/93
f 229/373/92 230/96/95 231/254/93
f 187/15/215 182/61/216 183/374/217 186/375/218
f 185/104/219 188/128/220 189/376/221 184/377/222
f 193/80/223 185/104/219 184/378/222 192/379/224
f 182/61/216 190/60/225 191/380/226 183/381/217
f 197/78/78 193/80/223 192/382/224 196/383/227
f 190/60/225 194/55/55 195/384/228 191/385/226
f 201/76/76 197/78/78 196/386/227 200/387/229
f 194/55/55 198/53/53 199/388/230 195/389/228
f 205/74/74 201/76/76 200/390/229 204/391/185
f 198/53/53 202/51/51 203/392/180 199/393/230
f 209/70/70 205/74/74 204/394/185 208/395/192
f 202/51/51 206/48/48 207/396/176 203/397/180
f 212/71/71 209/70/70 208/398/192 213/399/193
f 206/48/48 211/47/47 210/400/177 207/401/176
f 215/16/16 187/15/215 186/402/218 214/403/231
f 188/128/220 216/57/57 217/404/232 189/405/221
f 223/45/45 215/16/16 214/406/231 222/407/174
f 233/37/37 220/36/36 221/408/101 232/409/100
f 235/66/66 223/45/45 222/410/174 234/411/175
f 216/57/57 224/40/40 225/412/187 217/413/232
f 226/98/97 218/67/67 219/414/183 227/372/94
f 220/36/36 230/96/95 229/373/92 221/415/101
f 224/40/40 233/37/37 232/416/100 225/417/187
f 218/67/67 235/66/66 234/418/175 219/419/183
f 182/61/61 187/15/15 128/18/18 122/62/62
