# Blender v2.81 (sub 16) OBJ File: 'Book_4.blend'
# www.blender.org
mtllib Book_4.mtl
o Cube
v 1.000000 0.212632 -0.679356
v 1.000000 0.018482 -0.679356
v 1.000000 0.212632 0.669537
v 1.000000 0.018482 0.669537
v -1.000000 0.212632 -0.679356
v -1.000000 0.018482 -0.679356
v -1.000000 0.212632 0.669537
v -1.000000 0.018482 0.669537
v -1.000000 0.030729 0.681090
v -1.000000 0.200385 0.681090
v -1.000000 0.061228 0.701992
v -1.000000 0.096756 0.712881
v -1.000000 0.134358 0.712881
v -1.000000 0.169886 0.701992
v 1.000000 0.200385 0.681090
v 1.000000 0.030729 0.681090
v 1.000000 0.169886 0.701992
v 1.000000 0.134358 0.712881
v 1.000000 0.096756 0.712881
v 1.000000 0.061228 0.701992
v -1.000000 0.005092 -0.679356
v -1.000000 0.005092 0.679356
v 1.000000 0.005092 -0.679356
v 1.000000 0.226023 -0.679356
v 1.000000 0.226023 0.679356
v -1.000000 0.226023 0.679356
v -1.000000 0.226023 -0.679356
v 1.000000 0.005092 0.679356
v 1.000000 0.174365 0.719627
v 1.000000 0.207152 0.697156
v -1.000000 0.207152 0.697156
v -1.000000 0.174365 0.719627
v 1.000000 0.135821 0.731441
v -1.000000 0.135821 0.731441
v 1.000000 0.095293 0.731441
v -1.000000 0.095293 0.731441
v 1.000000 0.056750 0.719627
v -1.000000 0.056750 0.719627
v 1.000000 0.023962 0.697156
v -1.000000 0.023962 0.697156
v 0.984909 0.212632 -0.664265
v 0.984909 0.018482 -0.664265
v -0.984909 0.212632 -0.664265
v -0.984909 0.018482 -0.664265
v -0.978658 0.018482 0.669537
v 0.978658 0.212632 0.669537
v -0.978658 0.212632 0.669537
v 0.978658 0.018482 0.669537
v 0.978658 0.169886 0.701992
v 0.978658 0.200385 0.681090
v -0.978658 0.200385 0.681090
v -0.978658 0.169886 0.701992
v 0.978658 0.134358 0.712881
v -0.978658 0.134358 0.712881
v 0.978658 0.096756 0.712881
v -0.978658 0.096756 0.712881
v 0.978658 0.061228 0.701992
v -0.978658 0.061228 0.701992
v 0.978658 0.030729 0.681090
v -0.978658 0.030729 0.681090
vt 0.000513 -0.000673
vt 0.676576 -0.000674
vt 0.676576 0.450052
vt 0.000513 0.450052
vt 0.463279 0.400705
vt 0.463279 0.396585
vt 0.468978 0.396585
vt 0.468978 0.400705
vt 0.676450 0.998902
vt -0.000167 0.999879
vt -0.000168 0.559181
vt 0.676450 0.558204
vt 0.000180 0.553929
vt 0.000180 0.545518
vt 0.674954 0.545518
vt 0.674954 0.553929
vt 0.000180 0.463864
vt 0.000180 0.455453
vt 0.674954 0.455453
vt 0.674954 0.463864
vt 0.615458 0.280719
vt 0.615458 0.766156
vt 0.611428 0.762493
vt 0.611428 0.284382
vt 0.674954 0.478478
vt 0.000180 0.478479
vt 0.674954 0.495659
vt 0.000180 0.495659
vt 0.674954 0.513723
vt 0.000180 0.513723
vt 0.674954 0.530904
vt 0.000180 0.530904
vt 0.911361 0.359647
vt 0.911361 0.371599
vt 0.905662 0.371599
vt 0.905662 0.359647
vt 0.454358 0.956644
vt 0.454358 0.629243
vt 0.459314 0.629243
vt 0.459314 0.959027
vt 0.498955 0.008604
vt 0.013519 0.008604
vt 0.013519 0.003649
vt 0.498955 0.003649
vt 0.013743 0.125538
vt 0.013743 0.452939
vt 0.008787 0.452939
vt 0.008787 0.123155
vt 0.382507 0.629243
vt 0.382507 0.956644
vt 0.377552 0.959027
vt 0.377552 0.629243
vt 0.006461 0.989977
vt 0.491898 0.989977
vt 0.491898 0.994932
vt 0.006461 0.994932
vt 0.085594 0.452939
vt 0.085594 0.125538
vt 0.090549 0.123155
vt 0.090549 0.452939
vt 0.029562 0.117661
vt 0.018275 0.122734
vt 0.015771 0.118835
vt 0.027905 0.113380
vt 0.387040 0.959448
vt 0.398326 0.964521
vt 0.396669 0.968802
vt 0.384535 0.963348
vt 0.042710 0.115018
vt 0.042169 0.110513
vt 0.411475 0.967164
vt 0.410933 0.971669
vt 0.056626 0.115018
vt 0.057167 0.110513
vt 0.425390 0.967164
vt 0.425932 0.971669
vt 0.069774 0.117661
vt 0.071432 0.113380
vt 0.438539 0.964521
vt 0.440196 0.968802
vt 0.081061 0.122734
vt 0.083566 0.118835
vt 0.449826 0.959448
vt 0.452330 0.963348
vt 0.809825 0.094853
vt 0.892141 0.094238
vt 0.897062 0.484754
vt 0.891559 0.488159
vt 0.877855 0.494318
vt 0.861891 0.497527
vt 0.844996 0.497527
vt 0.829032 0.494318
vt 0.815328 0.488159
vt 0.809825 0.484754
vt 0.994410 0.995297
vt 0.922559 0.995297
vt 0.922559 0.517186
vt 0.994410 0.517186
vt 0.897419 0.483706
vt 0.892084 0.487006
vt 0.878799 0.492978
vt 0.863322 0.496089
vt 0.846942 0.496089
vt 0.831465 0.492978
vt 0.818180 0.487006
vt 0.812845 0.483706
vt 0.812845 0.102639
vt 0.897419 0.102639
vt 0.463279 0.361724
vt 0.463279 0.349771
vt 0.468978 0.349771
vt 0.468978 0.361724
vt 0.151121 0.276302
vt 0.511293 0.276302
vt 0.511293 0.281482
vt 0.155151 0.279965
vt 0.463279 0.339512
vt 0.463279 0.335392
vt 0.468978 0.335392
vt 0.468978 0.339512
vt 0.911361 0.384248
vt 0.905662 0.384248
vt 0.511293 0.761739
vt 0.151121 0.761739
vt 0.155151 0.758076
vt 0.511293 0.756559
vt 0.911361 0.406461
vt 0.911361 0.410581
vt 0.905662 0.410581
vt 0.905662 0.406461
vt 0.463279 0.374373
vt 0.468978 0.374373
vt 0.911361 0.345267
vt 0.911361 0.349387
vt 0.905662 0.349387
vt 0.905662 0.345267
vt 0.911361 0.396201
vt 0.905662 0.396201
vt 0.255286 0.280719
vt 0.255286 0.285899
vt 0.463279 0.386325
vt 0.468978 0.386325
vt 0.255286 0.766156
vt 0.255286 0.760976
vn 0.5773 0.5773 -0.5773
vn -0.5773 0.5773 -0.5773
vn -0.6279 0.7146 0.3083
vn 0.6279 0.7146 0.3083
vn -0.8080 0.5409 -0.2334
vn -0.7250 0.4323 -0.5362
vn -0.6912 0.4551 -0.5613
vn -0.6290 0.7147 -0.3059
vn -0.5773 -0.5773 -0.5773
vn 0.5773 -0.5773 -0.5773
vn 0.6279 -0.7146 0.3083
vn -0.6279 -0.7146 0.3083
vn 0.6900 -0.4543 0.5634
vn -0.6900 -0.4543 0.5634
vn 0.6900 0.4543 0.5634
vn -0.6900 0.4543 0.5634
vn -0.3014 0.9051 -0.3000
vn 0.3014 0.9051 -0.3000
vn -0.6746 0.3205 0.6649
vn 0.6746 0.3205 0.6649
vn -0.6752 0.1093 0.7295
vn 0.6752 0.1093 0.7295
vn -0.6752 -0.1093 0.7295
vn 0.6752 -0.1093 0.7295
vn -0.6746 -0.3205 0.6649
vn 0.6746 -0.3205 0.6649
vn 0.7427 -0.2907 -0.6031
vn 0.7420 -0.0993 -0.6630
vn 0.6767 -0.1095 -0.7280
vn 0.6760 -0.3211 -0.6632
vn 0.8080 -0.5409 -0.2334
vn -0.8080 -0.5409 -0.2334
vn 0.8080 0.5409 -0.2334
vn 0.7250 -0.4323 -0.5362
vn -0.7250 -0.4323 -0.5362
vn -0.7427 -0.2907 -0.6031
vn -0.7420 -0.0993 -0.6630
vn 0.7420 0.0993 -0.6630
vn -0.7420 0.0993 -0.6630
vn 0.7427 0.2907 -0.6031
vn -0.7427 0.2907 -0.6031
vn 0.7250 0.4323 -0.5362
vn 0.3014 -0.9051 -0.3000
vn 0.6290 -0.7147 -0.3059
vn 0.6912 -0.4551 -0.5613
vn 0.6767 0.1095 -0.7280
vn 0.6760 0.3211 -0.6632
vn 0.6912 0.4551 -0.5613
vn 0.6290 0.7147 -0.3059
vn -0.3014 -0.9051 -0.3000
vn -0.6760 0.3211 -0.6632
vn -0.6767 0.1095 -0.7280
vn -0.6767 -0.1095 -0.7280
vn -0.6760 -0.3211 -0.6632
vn -0.6912 -0.4551 -0.5613
vn -0.6290 -0.7147 -0.3059
usemtl Material
s 1
f 24/1/1 27/2/2 26/3/3 25/4/4
f 8/5/5 9/6/6 60/7/7 45/8/8
f 21/9/9 23/10/10 28/11/11 22/12/12
f 28/13/11 39/14/13 40/15/14 22/16/12
f 30/17/15 25/18/4 26/19/3 31/20/16
f 2/21/1 6/22/2 44/23/17 42/24/18
f 30/17/15 31/20/16 32/25/19 29/26/20
f 29/26/20 32/25/19 34/27/21 33/28/22
f 33/28/22 34/27/21 36/29/23 35/30/24
f 35/30/24 36/29/23 38/31/25 37/32/26
f 37/32/26 38/31/25 40/15/14 39/14/13
f 17/33/27 18/34/28 53/35/29 49/36/30
f 8/37/5 6/38/2 21/39/9 22/40/12
f 6/41/2 2/42/1 23/43/10 21/44/9
f 3/45/31 1/46/10 24/47/1 25/48/4
f 5/49/9 7/50/32 26/51/3 27/52/2
f 1/53/10 5/54/9 27/55/2 24/56/1
f 2/57/1 4/58/33 28/59/11 23/60/10
f 17/61/27 15/62/34 30/63/15 29/64/20
f 10/65/35 14/66/36 32/67/19 31/68/16
f 18/69/28 17/61/27 29/64/20 33/70/22
f 14/66/36 13/71/37 34/72/21 32/67/19
f 19/73/38 18/69/28 33/70/22 35/74/24
f 13/71/37 12/75/39 36/76/23 34/72/21
f 20/77/40 19/73/38 35/74/24 37/78/26
f 12/75/39 11/79/41 38/80/25 36/76/23
f 16/81/42 20/77/40 37/78/26 39/82/13
f 11/79/41 9/83/6 40/84/14 38/80/25
f 9/83/6 8/37/5 22/40/12 40/84/14
f 7/50/32 10/65/35 31/68/16 26/51/3
f 4/58/33 16/81/42 39/82/13 28/59/11
f 15/62/34 3/45/31 25/48/4 30/63/15
f 42/85/18 41/86/43 46/87/44 50/88/45 49/89/30 53/90/29 55/91/46 57/92/47 59/93/48 48/94/49
f 44/95/17 43/96/50 41/97/43 42/98/18
f 45/99/8 60/100/7 58/101/51 56/102/52 54/103/53 52/104/54 51/105/55 47/106/56 43/107/50 44/108/17
f 13/109/37 14/110/36 52/111/54 54/112/53
f 1/113/10 3/114/31 46/115/44 41/116/43
f 10/117/35 7/118/32 47/119/56 51/120/55
f 18/34/28 19/121/38 55/122/46 53/35/29
f 7/123/32 5/124/9 43/125/50 47/126/56
f 16/127/42 4/128/33 48/129/49 59/130/48
f 12/131/39 13/109/37 54/112/53 56/132/52
f 5/124/9 1/113/10 41/116/43 43/125/50
f 3/133/31 15/134/34 50/135/45 46/136/44
f 19/121/38 20/137/40 57/138/47 55/122/46
f 4/139/33 2/21/1 42/24/18 48/140/49
f 11/141/41 12/131/39 56/132/52 58/142/51
f 15/134/34 17/33/27 49/36/30 50/135/45
f 20/137/40 16/127/42 59/130/48 57/138/47
f 14/110/36 10/117/35 51/120/55 52/111/54
f 6/22/2 8/143/5 45/144/8 44/23/17
f 9/6/6 11/141/41 58/142/51 60/7/7
